<?xml version="1.0" encoding="UTF-8" standalone="no"?>
<svg
   xmlns:dc="http://purl.org/dc/elements/1.1/"
   xmlns:cc="http://creativecommons.org/ns#"
   xmlns:rdf="http://www.w3.org/1999/02/22-rdf-syntax-ns#"
   xmlns:svg="http://www.w3.org/2000/svg"
   xmlns="http://www.w3.org/2000/svg"
   xmlns:sodipodi="http://sodipodi.sourceforge.net/DTD/sodipodi-0.dtd"
   xmlns:inkscape="http://www.inkscape.org/namespaces/inkscape"
   width="500"
   height="500"
   viewBox="0 0 132.29166 132.29167"
   version="1.1"
   id="svg8"
   inkscape:version="1.0 (4035a4fb49, 2020-05-01)"
   sodipodi:docname="detail1.svg">
  <defs
     id="defs2" />
  <sodipodi:namedview
     units="px"
     id="base"
     pagecolor="#ffffff"
     bordercolor="#666666"
     borderopacity="1.0"
     inkscape:pageopacity="0.0"
     inkscape:pageshadow="2"
     inkscape:zoom="1"
     inkscape:cx="640.68057"
     inkscape:cy="164.61163"
     inkscape:document-units="mm"
     inkscape:current-layer="layer1"
     inkscape:document-rotation="0"
     showgrid="false"
     inkscape:window-width="1635"
     inkscape:window-height="1030"
     inkscape:window-x="34"
     inkscape:window-y="0"
     inkscape:window-maximized="0" />
  <metadata
     id="metadata5">
    <rdf:RDF>
      <cc:Work
         rdf:about="">
        <dc:format>image/svg+xml</dc:format>
        <dc:type
           rdf:resource="http://purl.org/dc/dcmitype/StillImage" />
        <dc:title></dc:title>
      </cc:Work>
    </rdf:RDF>
  </metadata>
  <g
     inkscape:label="Calque 1"
     inkscape:groupmode="layer"
     id="layer1">
    <g
       transform="matrix(0.33333333,0,0,0.33333333,32.240282,17.24722)"
       id="g59">
      <g
         id="g47"
         transform="matrix(1.5875,0,0,1.5875,-59.758533,-86.183798)">
        <g
           id="g3236"
           transform="matrix(3.9370079,0,0,3.9370079,-158.69995,-44.970836)">
          <path
             style="fill:#fafafa;stroke-width:0.264583"
             d="m 34.395817,48.683334 v 31.75 h 31.75 31.75 v -31.75 -31.75 h -31.75 -31.75 z M 61.681561,19.645313 c 0.01852,0.03638 0.107809,1.375833 0.198437,2.976563 l 0.164777,2.910416 1.190625,0.174586 c 4.185156,0.613685 4.7625,0.773562 4.7625,1.318813 0,0.347675 -2.337522,0.191611 -6.482291,-0.43279 -1.74625,-0.26307 -3.472657,-0.490262 -3.836459,-0.504875 l -0.661458,-0.02657 -0.07343,3.774091 c -0.07235,3.718216 -0.06451,3.7773 0.529167,3.99098 0.33143,0.11929 2.470903,0.35855 4.754384,0.531691 2.283478,0.173141 4.649933,0.490559 5.258784,0.705374 0.608854,0.214815 1.389692,0.390572 1.735198,0.390572 h 0.628193 v 4.556316 c 0,4.278119 0.356883,7.349934 0.853913,7.349934 0.11243,0 0.20442,-3.265715 0.20442,-7.257142 0,-7.814268 0.02114,-7.937347 1.407565,-8.195157 2.482485,-0.461626 2.693299,-0.553709 2.784975,-1.216451 0.212669,-1.537433 0.611949,-1.579665 7.650874,-0.809278 2.581175,0.282503 6.598044,0.706162 8.926378,0.941469 3.733866,0.377352 4.291914,0.496245 4.729861,1.007714 0.47653,0.556532 0.491609,1.206468 0.374375,16.137207 -0.101746,12.958527 -0.18469,15.615439 -0.496528,15.905231 -0.205907,0.19135 -4.445254,2.150009 -9.420776,4.352575 -9.120348,4.037402 -10.582867,4.510188 -11.405891,3.687166 -0.174625,-0.174625 -0.3175,-0.646286 -0.3175,-1.048136 0,-0.759273 -0.04384,-0.782303 -2.718152,-1.428062 -1.482087,-0.357876 -1.515181,-0.561084 -1.515181,-9.303715 0,-4.406007 -0.09514,-8.010921 -0.211431,-8.010921 -0.531649,0 -0.846902,1.979871 -0.846902,5.318766 v 3.561405 l -1.759985,0.785435 c -0.967991,0.43199 -2.843226,1.142623 -4.167187,1.579186 l -2.407203,0.79375 -0.07752,2.224358 c -0.04263,1.223396 0.01691,2.318666 0.132292,2.433933 0.115395,0.115268 0.924184,-0.08147 1.797309,-0.437194 1.683202,-0.685763 2.513542,-0.814841 2.513542,-0.390738 0,0.458223 -1.097632,0.998328 -5.953125,2.929319 -2.619375,1.041704 -4.911328,2.015335 -5.09323,2.163624 -0.181901,0.148289 -0.330729,0.72155 -0.330729,1.273913 0,1.239522 -0.216186,1.841327 -0.661458,1.841327 -0.418867,0 -0.661458,-0.590156 -0.661458,-1.60914 0,-0.424661 -0.114164,-0.77211 -0.253697,-0.77211 -0.139534,0 -2.312424,0.820405 -4.828646,1.823123 -5.825824,2.321599 -7.285086,2.830976 -7.498573,2.617488 -0.30981,-0.309809 0.183332,-0.771467 1.365272,-1.278105 l 1.161477,-0.497868 v -3.052111 c 0,-2.262073 -0.08544,-3.052111 -0.330075,-3.052111 -0.181541,0 -1.442194,0.370503 -2.801452,0.82334 -1.813309,0.604105 -2.549708,0.745009 -2.76555,0.529167 -0.201021,-0.201022 -0.208241,-0.380105 -0.0228,-0.565545 0.149255,-0.149255 2.524552,-1.018318 5.278438,-1.931252 4.348779,-1.441653 5.051188,-1.751205 5.342671,-2.354513 0.36293,-0.751189 1.205688,-1.087729 6.411269,-2.560221 6.298416,-1.781621 10.113029,-2.907477 10.222715,-3.017163 0.144764,-0.144764 0.142094,-25.097198 -0.0027,-25.241993 -0.05778,-0.05778 -3.24412,-0.275194 -7.080761,-0.483145 -8.036174,-0.435573 -8.609621,-0.498269 -9.191338,-1.004893 -0.6491,-0.565309 -2.007059,-0.739833 -9.293749,-1.194422 -2.216026,-0.13825 -2.778125,-0.253619 -2.778125,-0.570193 0,-0.541618 2.08036,-0.661866 4.577345,-0.264573 2.785334,0.443169 2.727362,0.540716 2.639077,-4.440676 l -0.07267,-4.100457 -1.190625,-0.355629 c -0.654849,-0.195596 -1.547818,-0.3581 -1.98438,-0.361122 -1.228824,-0.0085 -2.778125,-0.517501 -2.778125,-0.912712 0,-0.37986 0.709859,-0.760405 1.038995,-0.556988 0.108621,0.06713 1.91358,0.365644 4.01102,0.663358 2.097439,0.297718 4.46837,0.656934 5.268735,0.798264 0.800364,0.141327 2.645833,0.431591 4.101041,0.645033 1.455209,0.21344 3.927386,0.5857 5.493728,0.827247 1.566342,0.241546 3.024858,0.371268 3.241146,0.288271 0.309208,-0.118655 0.393251,-0.680434 0.393251,-2.628654 0,-1.36276 0.07938,-2.557124 0.17639,-2.654136 0.172276,-0.172275 0.583975,-0.241993 0.651021,-0.110244 z M 44.76922,24.392848 c -0.452336,0.452335 -0.442324,7.365889 0.01149,7.936286 0.185086,0.232632 0.971563,0.496866 1.785938,0.600027 3.31545,0.419979 5.783509,0.640583 7.342187,0.656275 l 1.653646,0.01665 v -3.95092 c 0,-4.458533 0.20311,-4.085148 -2.38125,-4.37751 -1.254432,-0.141909 -4.583471,-0.630393 -7.287535,-1.069332 -0.449495,-0.07296 -0.946278,0.01032 -1.124479,0.188526 z m 33.54743,26.268313 v 19.175742 l 0.595313,-0.227782 c 1.574123,-0.602301 14.692111,-6.464107 15.213542,-6.79821 0.717692,-0.459857 0.818544,-1.290101 0.132291,-1.08908 -0.254661,0.0746 -3.542017,1.244503 -7.305236,2.599791 -6.576401,2.368429 -6.856497,2.444625 -7.209895,1.961324 -0.303972,-0.415708 -0.367681,-3.195628 -0.367681,-16.043783 0,-18.121918 -0.28144,-16.541408 2.897494,-16.271674 1.098513,0.09321 4.02136,0.287438 6.495214,0.431615 2.473854,0.144177 4.825339,0.318508 5.225521,0.387403 0.673409,0.115935 0.727604,0.05951 0.727604,-0.757626 V 33.145993 L 93.067171,32.97408 C 84.163368,32.048445 78.679529,31.487984 78.515088,31.48682 78.405947,31.486026 78.31665,40.114501 78.31665,50.661161 Z M 73.488005,33.784469 c -0.434827,0.113631 -0.463021,1.141865 -0.463021,16.887026 0,9.221314 0.100652,16.828233 0.223673,16.904264 0.123021,0.07603 0.718333,0.217337 1.322917,0.314014 l 1.099243,0.175776 V 50.833817 33.602084 l -0.859896,0.03069 c -0.472943,0.01688 -1.068255,0.08514 -1.322916,0.151693 z m 18.190104,3.08456 -1.058334,0.321884 v 11.500898 11.500898 h 1.455209 1.455208 V 48.422375 c 0,-13.092924 0.149228,-12.16203 -1.852083,-11.553346 z m -10.618645,0.30493 c -0.168585,0.445892 -0.232534,6.954703 -0.163126,16.602604 0.06159,8.56045 0.09807,9.193392 0.529167,9.181523 0.254661,-0.007 2.010833,-0.572558 3.902604,-1.256771 l 3.439583,-1.244023 0.07353,-3.957126 c 0.04044,-2.176419 0.01519,-4.109178 -0.05613,-4.295019 -0.17906,-0.466619 -0.862314,-0.156464 -1.024893,0.465238 -0.07348,0.280977 -0.3531,0.50559 -0.621385,0.499142 -0.700172,-0.01683 -4.176649,-2.95575 -4.272713,-3.612036 -0.06034,-0.412255 0.425116,-0.965068 1.92061,-2.18708 2.144773,-1.752558 2.868525,-1.929583 3.006365,-0.735336 0.05907,0.511781 0.234347,0.725342 0.595313,0.725342 0.487815,0 0.511593,-0.234047 0.511593,-5.035386 0,-3.793122 -0.08159,-5.062587 -0.33073,-5.145637 -0.757793,-0.252614 -7.414516,-0.257429 -7.50979,-0.0054 z M 54.107275,66.393942 c -3.055937,0.968688 -5.833495,1.913653 -6.17235,2.099923 -0.338856,0.186269 -1.200013,0.512075 -1.913684,0.724012 -0.71367,0.211937 -1.41869,0.611633 -1.566712,0.888213 -0.432575,0.808275 -0.347365,5.286746 0.103884,5.459907 0.205156,0.07873 3.747266,-1.206844 7.871354,-2.856822 l 7.498342,-2.99996 0.07706,-2.35286 c 0.04238,-1.294074 -0.01715,-2.436291 -0.132292,-2.538262 -0.115143,-0.10197 -2.709663,0.607162 -5.765602,1.575849 z M 48.021859,43.656251 c 0,0.298505 -0.426273,0.429664 -1.719792,0.529166 l -1.719792,0.132292 -0.07141,5.793505 -0.07141,5.793502 1.851551,-0.155227 c 1.018354,-0.08537 1.917028,-0.04928 1.997054,0.0802 0.269522,0.436095 -0.929605,0.817195 -3.780875,1.201616 -1.559425,0.21025 -4.020308,0.560774 -5.468629,0.778944 -1.750838,0.263739 -2.721742,0.308241 -2.897188,0.132795 -0.394507,-0.394507 0.08576,-0.71896 1.297165,-0.876318 4.323545,-0.561617 5.276426,-0.721693 5.47438,-0.919647 0.123611,-0.123611 0.1926,-2.835788 0.153309,-6.027058 l -0.07144,-5.802312 -3.074012,0.09726 c -2.285254,0.0723 -3.127269,0.01109 -3.281568,-0.238575 -0.127302,-0.205981 -0.01612,-0.475816 0.287552,-0.697863 0.75892,-0.554937 11.095112,-0.389368 11.095112,0.177724 z"
             id="path3220" />
          <path
             style="fill:#d0d0d0;stroke-width:0.264583"
             d="m 61.03054,19.755557 c -0.09701,0.09701 -0.17639,1.291376 -0.17639,2.654136 0,1.94822 -0.08404,2.509999 -0.393251,2.628654 -0.216288,0.083 -1.674804,-0.04673 -3.241146,-0.288271 -1.566342,-0.241547 -4.038519,-0.613807 -5.493728,-0.827247 -1.455208,-0.213442 -3.300677,-0.503706 -4.101041,-0.645033 -0.800365,-0.14133 -3.171296,-0.500546 -5.268735,-0.798264 -2.09744,-0.297714 -3.902399,-0.596227 -4.01102,-0.663358 -0.329136,-0.203417 -1.038995,0.177128 -1.038995,0.556988 0,0.395211 1.549301,0.904211 2.778125,0.912712 0.436562,0.003 1.329531,0.165526 1.984375,0.361125 l 1.190625,0.355629 0.07267,4.100457 c 0.08828,4.981392 0.146257,4.883845 -2.639077,4.440676 -2.496985,-0.397293 -4.577345,-0.277045 -4.577345,0.264573 0,0.316574 0.562099,0.431943 2.778125,0.570193 7.28669,0.454589 8.644649,0.629113 9.293746,1.194422 0.581718,0.506624 1.155165,0.56932 9.191339,1.004893 3.836641,0.207951 7.022984,0.425365 7.080761,0.483145 0.144796,0.144795 0.147465,25.097229 0.0027,25.241993 -0.109683,0.109686 -3.924297,1.235542 -10.222712,3.017163 -5.205581,1.472492 -6.04834,1.809032 -6.41127,2.560221 -0.291483,0.603308 -0.993892,0.91286 -5.34267,2.354513 -2.753886,0.912934 -5.129183,1.781997 -5.278438,1.931252 -0.18544,0.18544 -0.17822,0.364523 0.0228,0.565545 0.215842,0.215842 0.95224,0.07494 2.76555,-0.529167 1.359257,-0.452837 2.61991,-0.82334 2.801451,-0.82334 0.244635,0 0.330075,0.790038 0.330075,3.052111 v 3.052111 l -1.161477,0.497868 c -1.18194,0.506638 -1.675082,0.968296 -1.365272,1.278105 0.213487,0.213488 1.672749,-0.295889 7.498573,-2.617488 2.516222,-1.002718 4.689112,-1.823123 4.828646,-1.823123 0.139533,0 0.253697,0.347449 0.253697,0.77211 0,1.018984 0.242591,1.60914 0.661458,1.60914 0.445272,0 0.661458,-0.601805 0.661458,-1.841327 0,-0.552363 0.148828,-1.125624 0.330729,-1.273913 0.181902,-0.148289 2.473855,-1.12192 5.09323,-2.163624 4.855493,-1.930991 5.953125,-2.471096 5.953125,-2.929319 0,-0.424103 -0.83034,-0.295025 -2.513542,0.390738 -0.873125,0.355724 -1.681914,0.552462 -1.797309,0.437194 -0.115396,-0.115267 -0.174927,-1.210537 -0.132292,-2.433933 l 0.07752,-2.224358 2.407203,-0.79375 c 1.323961,-0.436563 3.199196,-1.147196 4.167187,-1.579186 l 1.759985,-0.785435 v -3.561405 c 0,-3.338895 0.315253,-5.318766 0.846902,-5.318766 0.116287,0 0.211431,3.604914 0.211431,8.010921 0,8.742631 0.03309,8.945839 1.515181,9.303715 2.674316,0.645759 2.718152,0.668789 2.718152,1.428062 0,0.40185 0.142875,0.873511 0.3175,1.048136 0.823024,0.823022 2.285543,0.350236 11.405891,-3.687166 4.975522,-2.202566 9.214869,-4.161225 9.420776,-4.352575 0.311838,-0.289792 0.394782,-2.946704 0.496527,-15.905231 0.117237,-14.931178 0.102169,-15.58059 -0.374374,-16.135525 -0.43184,-0.502875 -1.005134,-0.632137 -4.400476,-0.992187 -2.147171,-0.22769 -4.290296,-0.398886 -4.7625,-0.380434 -0.940459,0.03675 0.514897,0.236932 5.570233,0.766167 2.803977,0.293545 3.293615,0.41506 3.541914,0.879012 0.425293,0.794666 0.155495,30.961487 -0.281615,31.488173 -0.174924,0.21077 -4.375248,2.187013 -9.33405,4.391649 -7.646432,3.399529 -9.182111,3.9963 -10.109478,3.928585 -1.02071,-0.07453 -1.098989,-0.137041 -1.176356,-0.939388 -0.09374,-0.972166 -0.398889,-1.184186 -2.370037,-1.646748 -0.832212,-0.195292 -1.499052,-0.52246 -1.653646,-0.81132 -0.152783,-0.285481 -0.259059,-3.795286 -0.259059,-8.555628 0,-4.439364 -0.09498,-8.130273 -0.211071,-8.20202 -0.287348,-0.177591 -0.638932,0.104781 -1.111845,0.892969 -0.281329,0.468881 -0.435391,1.739887 -0.529167,4.365625 l -0.132292,3.704167 -1.692918,0.07979 c -0.931105,0.04389 -1.804805,-0.03209 -1.941552,-0.168845 -0.219612,-0.219611 -0.366411,-24.044652 -0.149484,-24.260692 0.04388,-0.0437 0.942991,-0.164447 1.998017,-0.268317 l 1.918229,-0.188852 0.0094,4.59825 c 0.0071,3.487234 0.100735,4.758068 0.387498,5.259707 0.207968,0.363802 0.382344,0.929349 0.387499,1.256771 0.0065,0.415798 0.168944,0.595313 0.538543,0.595313 0.516512,0 0.529167,-0.17639 0.529167,-7.375938 0,-5.972006 0.06996,-7.433995 0.367546,-7.680971 0.202149,-0.167769 1.10436,-0.434821 2.004914,-0.593452 0.900555,-0.158628 1.677715,-0.422894 1.727023,-0.587256 0.04931,-0.164365 0.16551,-0.642649 0.258223,-1.062855 l 0.168568,-0.764016 2.168634,0.150934 c 1.19275,0.08302 3.45105,0.287083 5.018447,0.453488 1.5674,0.166402 2.990215,0.255751 3.161816,0.198551 0.361506,-0.120502 -7.921508,-1.005186 -9.352671,-0.998932 -1.061263,0.0046 -1.457193,0.334166 -1.594544,1.327113 -0.09168,0.662742 -0.30249,0.754825 -2.784975,1.216451 -1.386414,0.25781 -1.407554,0.380889 -1.407554,8.195157 0,3.991427 -0.09199,7.257142 -0.20442,7.257142 -0.49703,0 -0.853913,-3.071815 -0.853913,-7.349934 v -4.556316 h -0.628193 c -0.345506,0 -1.126344,-0.175757 -1.735198,-0.390572 C 66.877742,34.848779 64.511287,34.531362 62.227809,34.358221 59.944328,34.18508 57.804855,33.94582 57.473425,33.82653 56.879746,33.61285 56.871912,33.553766 56.944258,29.83555 l 0.07343,-3.774091 0.661458,0.02657 c 0.363802,0.0146 2.090209,0.241805 3.836459,0.504875 4.144769,0.624401 6.482291,0.780465 6.482291,0.43279 0,-0.545251 -0.577344,-0.705128 -4.7625,-1.318813 l -1.190625,-0.174586 -0.164777,-2.910416 c -0.09063,-1.60073 -0.179924,-2.940183 -0.198437,-2.976563 -0.06705,-0.131749 -0.478745,-0.06203 -0.651021,0.110244 z m -16.582768,3.520811 c 0.302185,0.191047 0.321852,0.322326 0.08393,0.560247 -0.393113,0.393115 -1.140052,0.122732 -1.140052,-0.412687 0,-0.456091 0.465284,-0.521099 1.056122,-0.14756 z m 4.764712,1.445664 c 1.382448,0.21285 3.168385,0.461079 3.96875,0.551622 2.58436,0.292362 2.38125,-0.08102 2.38125,4.37751 v 3.95092 l -1.653646,-0.01664 c -1.558679,-0.01569 -4.026737,-0.236297 -7.342188,-0.656275 -0.814375,-0.103161 -1.600852,-0.367396 -1.785937,-0.600028 -0.453817,-0.570397 -0.463829,-7.483951 -0.01149,-7.936285 0.178201,-0.178203 0.674985,-0.261491 1.124479,-0.188527 0.442885,0.07189 1.936338,0.304856 3.318786,0.517705 z m 7.9375,0.645573 c 0,0.127701 -0.187668,0.387935 -0.417041,0.578297 -0.345623,0.286843 -0.458202,0.281064 -0.657407,-0.03375 -0.383672,-0.606335 -0.29307,-0.776738 0.412989,-0.776738 0.363802,0 0.661459,0.104484 0.661459,0.232188 z m 4.497916,0.281363 c 0,0.386332 -0.435991,0.563931 -0.924349,0.376529 -0.353011,-0.135464 -0.371288,-0.215387 -0.09002,-0.393682 0.472857,-0.299743 1.014371,-0.290586 1.014371,0.01715 z m -17.25855,7.37434 c 0.0585,0.175506 -0.138577,0.314193 -0.446484,0.314193 -0.549626,0 -0.714357,-0.277831 -0.369315,-0.622874 0.245129,-0.245129 0.686917,-0.07796 0.815799,0.308681 z m 9.089116,1.262525 c 1.123407,0.105437 1.956649,0.05519 2.321351,-0.139999 0.456775,-0.244459 0.652114,-0.221268 0.991036,0.117655 0.23217,0.23217 0.37335,0.470903 0.313735,0.530519 -0.219779,0.219779 -8.421271,-0.492964 -8.421271,-0.731843 0,-0.142637 0.644414,-0.182509 1.521354,-0.09413 0.836745,0.08433 2.309953,0.227338 3.273795,0.317796 z M 65.47113,62.152411 c -0.138245,0.13195 -1.117185,0.494962 -2.175426,0.806693 -1.11379,0.328095 -2.052741,0.772817 -2.229607,1.056025 -0.227191,0.363792 -0.412895,0.422195 -0.724228,0.227765 -0.305906,-0.191042 -1.939524,0.213144 -6.064455,1.500453 -3.10517,0.969062 -5.716349,1.691346 -5.802619,1.605076 -0.44154,-0.44154 1.268695,-1.090423 8.278314,-3.140887 7.290366,-2.132589 9.294042,-2.604922 8.718021,-2.055125 z m -5.465962,5.203944 -0.07706,2.35286 -7.498342,2.99996 c -4.124088,1.649978 -7.666198,2.935548 -7.871354,2.856822 -0.451249,-0.173161 -0.536459,-4.651632 -0.103884,-5.459907 0.148022,-0.27658 0.853042,-0.676276 1.566712,-0.888213 0.713671,-0.211937 1.574828,-0.537743 1.913684,-0.724012 1.077312,-0.592201 11.719696,-3.869059 11.937951,-3.675772 0.115144,0.101971 0.174675,1.244188 0.132293,2.538262 z m 1.378149,2.393751 c 0,0.200463 -0.250862,0.364478 -0.557474,0.364478 -0.399641,0 -0.512005,-0.11849 -0.396875,-0.418514 0.08833,-0.230184 0.160599,-0.542419 0.160599,-0.693856 0,-0.166716 0.156572,-0.145398 0.396875,0.05404 0.218281,0.181157 0.396875,0.493392 0.396875,0.693855 z m -17.36682,-0.0324 c -0.165661,0.431706 -0.773087,0.534591 -0.998914,0.169196 -0.194421,-0.314581 0.105215,-0.566071 0.674444,-0.566071 0.315089,0 0.425121,0.134584 0.32447,0.396875 z m 10.219018,3.108854 c -0.0022,0.181901 -0.102035,0.485193 -0.221792,0.673982 -0.174598,0.275242 -0.283157,0.264432 -0.547893,-0.05456 -0.181584,-0.218795 -0.253344,-0.522087 -0.159468,-0.673983 0.238852,-0.38647 0.934056,-0.345651 0.929153,0.05456 z m -9.785531,3.622406 c 0,0.357285 -0.482319,0.604965 -0.798066,0.409823 -0.147895,-0.0914 -0.200399,-0.277025 -0.116677,-0.41249 0.198616,-0.321367 0.914743,-0.319279 0.914743,0.0027 z M 78.228457,31.397224 c -0.254122,0.254119 -0.218223,38.71736 0.03613,38.71736 0.116888,0 3.897122,-1.637109 8.400521,-3.638021 l 8.187997,-3.638021 0.08558,-0.895659 c 0.07441,-0.778779 0.02262,-0.869348 -0.396876,-0.694032 -0.265347,0.110896 -1.911201,0.709519 -3.657451,1.330275 -1.74625,0.620756 -4.832133,1.734703 -6.857516,2.475438 -2.77939,1.016493 -3.768937,1.275068 -4.034896,1.054342 -0.286078,-0.237423 -0.35238,-3.195089 -0.35238,-15.719279 0,-17.277718 -0.09533,-16.432559 1.822,-16.153585 0.525868,0.07651 3.515969,0.277039 6.644667,0.445611 3.96586,0.213677 5.868823,0.418967 6.283854,0.677894 0.58729,0.366398 0.595312,0.353703 0.595312,-0.941999 0,-0.72237 -0.0893,-1.367676 -0.198437,-1.434015 -0.109141,-0.06634 -1.150938,-0.182938 -2.315104,-0.259114 l -2.116667,-0.138499 2.182812,0.279953 2.182813,0.279953 v 0.882973 c 0,0.817221 -0.05418,0.873643 -0.727604,0.757708 -0.400182,-0.06889 -2.751667,-0.243226 -5.225521,-0.387403 -2.473854,-0.144177 -5.396701,-0.338402 -6.495214,-0.431615 -3.178934,-0.269734 -2.897494,-1.850244 -2.897494,16.271674 0,12.848155 0.06371,15.628075 0.367681,16.043783 0.353398,0.483301 0.633494,0.407105 7.209895,-1.961324 3.763219,-1.355288 7.050575,-2.525194 7.305236,-2.599791 0.686253,-0.201021 0.585401,0.629223 -0.132291,1.08908 -0.521431,0.334103 -13.639419,6.195909 -15.213542,6.79821 L 78.31665,69.836903 V 50.678734 31.520565 l 0.727604,-0.110223 0.727605,-0.110223 -0.683506,-0.03964 c -0.375931,-0.0218 -0.762884,0.03973 -0.859896,0.136747 z m 1.697741,0.188621 c 0.06064,0.05524 1.181807,0.164936 2.491494,0.243779 1.754005,0.10559 2.032781,0.08524 1.058333,-0.07725 -1.379048,-0.229957 -3.741092,-0.340765 -3.549827,-0.166529 z m 6.460244,0.703506 c 0.873125,0.108331 2.123281,0.192384 2.778125,0.186783 1.081463,-0.0093 1.045078,-0.02824 -0.396875,-0.20715 -0.873125,-0.108331 -2.123281,-0.192384 -2.778125,-0.186783 -1.081463,0.0093 -1.045078,0.02824 0.396875,0.20715 z M 73.355713,33.610328 72.7604,33.849615 v 16.777171 c 0,13.767202 0.06412,16.83039 0.357423,17.073805 0.196583,0.163149 0.910958,0.372505 1.5875,0.465235 L 75.9354,68.334427 V 50.835963 33.337501 l -0.992187,0.01677 c -0.545703,0.0092 -1.260078,0.12445 -1.5875,0.256057 z m 2.315104,17.223489 v 17.231732 l -1.099243,-0.175776 c -0.604584,-0.09668 -1.199896,-0.237983 -1.322917,-0.314014 -0.123021,-0.07603 -0.223673,-7.68295 -0.223673,-16.904264 0,-18.67544 -0.178906,-16.968589 1.785937,-17.038719 l 0.859896,-0.03069 z m 5.886979,-15.197264 c 0.254662,0.06655 0.67138,0.06655 0.926042,0 0.254661,-0.06655 0.0463,-0.121002 -0.463021,-0.121002 -0.509323,0 -0.717682,0.05445 -0.463021,0.121002 z m 9.988021,0.958614 -1.190625,0.314209 -0.06896,11.62431 c -0.05413,9.123921 0.0028,11.669857 0.264584,11.836053 0.555238,0.352476 2.755982,0.251552 3.082052,-0.141341 0.215698,-0.2599 0.280431,-3.654401 0.230835,-12.104687 -0.06764,-11.525321 -0.07876,-11.744423 -0.59809,-11.793127 -0.291042,-0.0273 -1.064948,0.09177 -1.719792,0.264583 z m 1.984375,11.827208 V 60.192709 H 92.074984 90.619775 V 48.691811 37.190913 l 1.058334,-0.321884 c 2.001311,-0.608684 1.852083,-1.539578 1.852083,11.553346 z M 80.740334,36.956442 c -0.264162,0.472036 -0.08758,26.0463 0.181827,26.333147 0.190744,0.203094 7.341357,-2.281578 7.899702,-2.744962 0.427265,-0.3546 0.497734,-8.559251 0.07575,-8.820048 -0.451051,-0.278765 -1.255575,0.121304 -1.406793,0.699561 -0.07886,0.301554 -0.267716,0.505968 -0.419687,0.454258 -0.707382,-0.240707 -3.991986,-3.039306 -3.991986,-3.401314 0,-0.433292 3.502237,-3.307292 4.030247,-3.307292 0.171337,0 0.381789,0.297657 0.46767,0.661459 0.114144,0.483523 0.330875,0.661458 0.805677,0.661458 h 0.649531 l 0.07176,-5.23167 c 0.05556,-4.050898 -0.0042,-5.255209 -0.264584,-5.335963 -0.184988,-0.05736 -2.030777,-0.167026 -4.101756,-0.2437 -3.239219,-0.119925 -3.797824,-0.08149 -3.997362,0.275066 z m 7.82892,0.222952 c 0.249137,0.08305 0.33073,1.352515 0.33073,5.145637 0,4.801339 -0.02378,5.035386 -0.511593,5.035386 -0.360966,0 -0.536242,-0.213561 -0.595313,-0.725342 -0.13784,-1.194247 -0.861592,-1.017222 -3.006365,0.735336 -1.495494,1.222012 -1.980954,1.774825 -1.92061,2.18708 0.09606,0.656286 3.572541,3.595206 4.272713,3.612036 0.268285,0.0065 0.547908,-0.218165 0.621385,-0.499142 0.162579,-0.621702 0.845833,-0.931857 1.024893,-0.465238 0.07131,0.185841 0.09657,2.1186 0.05613,4.295019 l -0.07353,3.957126 -3.439583,1.244023 c -1.891771,0.684213 -3.647943,1.24976 -3.902604,1.256771 -0.431102,0.01187 -0.46758,-0.621073 -0.529167,-9.181523 -0.06941,-9.647901 -0.0055,-16.156712 0.163126,-16.602604 0.09527,-0.251994 6.751997,-0.247179 7.50979,0.0054 z m -51.642507,6.299133 c -0.303669,0.222047 -0.414854,0.491882 -0.287552,0.697863 0.154299,0.249658 0.996314,0.310875 3.281568,0.238575 l 3.074012,-0.09726 0.07144,5.802313 c 0.03929,3.191269 -0.0297,5.903446 -0.153309,6.027057 -0.197954,0.197954 -1.150835,0.35803 -5.47438,0.919647 -1.211402,0.157358 -1.691672,0.481811 -1.297165,0.876318 0.175446,0.175446 1.14635,0.130944 2.897188,-0.132795 1.448321,-0.21817 3.909204,-0.568694 5.468629,-0.778944 2.85127,-0.384421 4.050397,-0.765521 3.780875,-1.201616 -0.08003,-0.129485 -0.9787,-0.165575 -1.997054,-0.0802 l -1.851551,0.155227 0.07141,-5.793502 0.07141,-5.793505 1.719792,-0.132292 c 1.293519,-0.0995 1.719792,-0.230661 1.719792,-0.529166 0,-0.567092 -10.336192,-0.732661 -11.095112,-0.177724 z m 7.612008,0.09011 c 0.09733,0.09733 -0.02121,0.395952 -0.263431,0.663599 -0.409367,0.452345 -0.474219,0.456028 -0.92038,0.05226 -0.26399,-0.238909 -0.416231,-0.537528 -0.338315,-0.663602 0.16686,-0.269983 1.266642,-0.307739 1.522126,-0.05225 z M 44.181349,56.4224 c 0.0022,0.10914 -0.174542,0.198437 -0.392824,0.198437 -0.448046,0 -0.464002,-0.04637 -0.227763,-0.662003 0.134902,-0.351549 0.214367,-0.369307 0.392824,-0.08779 0.123041,0.194102 0.225534,0.44221 0.227763,0.551351 z M 87.0479,62.411194 c -1.091406,0.403173 -2.907109,1.063293 -4.034896,1.466934 -1.127786,0.403641 -2.05052,0.854755 -2.05052,1.002477 0,0.147721 0.26789,0.207804 0.595312,0.133517 0.758865,-0.172174 6.912131,-2.377316 8.135938,-2.915671 l 0.926041,-0.407367 -0.79375,-0.0065 c -0.436562,-0.0036 -1.686718,0.323403 -2.778125,0.726576 z"
             id="path3222" />
          <path
             style="fill:#b1b1b1;stroke-width:0.264583"
             d="m 43.39165,23.423928 c 0,0.535419 0.746939,0.805802 1.140052,0.412687 0.237922,-0.237921 0.218255,-0.3692 -0.08393,-0.560247 -0.590838,-0.373539 -1.056122,-0.308531 -1.056122,0.14756 z m 12.439469,1.909927 c 0.0022,0.10914 0.112216,0.369374 0.244417,0.5783 0.199205,0.314811 0.311784,0.32059 0.657407,0.03375 0.60519,-0.502261 0.512239,-0.810485 -0.244418,-0.810485 -0.363802,0 -0.659635,0.0893 -0.657406,0.198438 z m 4.80241,0.29796 c -0.281266,0.178295 -0.262989,0.258218 0.09002,0.393682 0.488358,0.187402 0.924349,0.0098 0.924349,-0.376529 0,-0.307739 -0.541514,-0.316896 -1.014371,-0.01714 z m 16.823226,4.188243 c 0.327421,0.06307 0.863203,0.06307 1.190624,0 0.327422,-0.06306 0.05953,-0.114662 -0.595312,-0.114662 -0.654844,0 -0.922734,0.0516 -0.595312,0.114662 z m 2.78316,0.261213 c 0.257431,0.06708 0.614619,0.06267 0.79375,-0.0098 0.17913,-0.07248 -0.03149,-0.127363 -0.468056,-0.12197 -0.436563,0.0054 -0.583126,0.06469 -0.325694,0.131773 z m 2.511591,0.268359 c 0.329118,0.06329 0.805368,0.06088 1.058334,-0.0053 0.252965,-0.06622 -0.01632,-0.118004 -0.598398,-0.115067 -0.582083,0.0029 -0.789054,0.05712 -0.459936,0.120407 z m 2.510457,0.259839 c 0.254661,0.06655 0.67138,0.06655 0.926041,0 0.254662,-0.06655 0.0463,-0.121002 -0.46302,-0.121002 -0.509323,0 -0.717683,0.05445 -0.463021,0.121002 z m 2.650868,0.265552 c 0.257432,0.06708 0.614619,0.06267 0.79375,-0.0098 0.179131,-0.07248 -0.03149,-0.127363 -0.468056,-0.12197 -0.436562,0.0054 -0.583125,0.06469 -0.325694,0.131773 z m -9.807847,0.39873 c -0.241126,0.241125 -0.3175,4.947179 -0.3175,19.563551 0,10.585329 0.0893,19.30126 0.198437,19.368737 0.109141,0.06748 0.16696,-8.587294 0.12849,-19.232824 -0.06499,-17.983832 -0.03797,-19.378943 0.381299,-19.686235 0.248184,-0.181901 0.33324,-0.330729 0.18901,-0.330729 -0.14423,0 -0.405111,0.142875 -0.579736,0.3175 z M 90.424423,31.14338 c 0.329118,0.06329 0.805368,0.06088 1.058333,-0.0053 0.252966,-0.06622 -0.01632,-0.118004 -0.598397,-0.115067 -0.582084,0.0029 -0.789054,0.05712 -0.459936,0.120407 z m -10.454127,0.259839 c 0.254662,0.06655 0.67138,0.06655 0.926042,0 0.254661,-0.06655 0.0463,-0.121002 -0.463021,-0.121002 -0.509323,0 -0.717682,0.05445 -0.463021,0.121002 z m 12.969619,0.0011 c 0.257431,0.06708 0.614619,0.06267 0.79375,-0.0098 0.17913,-0.07248 -0.03149,-0.127363 -0.468056,-0.121971 -0.436563,0.0054 -0.583126,0.06469 -0.325694,0.131773 z m -10.054167,0.264583 c 0.257432,0.06708 0.614619,0.06267 0.79375,-0.0098 0.179131,-0.07248 -0.03149,-0.127363 -0.468056,-0.12197 -0.436563,0.0054 -0.583126,0.06469 -0.325694,0.131773 z m 12.099652,-0.082 c 0,0.0558 0.294053,0.15766 0.653452,0.226364 0.359397,0.0687 0.590497,0.02304 0.513551,-0.101449 C 96.016916,31.492556 94.9854,31.382143 94.9854,31.586864 Z M 74.298291,31.93074 c 0.190995,0.07643 0.419198,0.06703 0.507119,-0.02088 0.08792,-0.08792 -0.06835,-0.150453 -0.347266,-0.138965 -0.308226,0.0127 -0.370919,0.07539 -0.159853,0.159851 z m 10.834465,0.0064 c 0.329118,0.06329 0.805368,0.06088 1.058334,-0.0053 0.252965,-0.06622 -0.01633,-0.118004 -0.598398,-0.115067 -0.582083,0.0029 -0.789054,0.05712 -0.459936,0.120406 z m -12.438502,0.252695 c 0.181902,0.0734 0.479558,0.0734 0.661459,0 0.181901,-0.0734 0.03307,-0.133453 -0.330729,-0.133453 -0.363802,0 -0.512631,0.06005 -0.33073,0.133453 z m 15.218577,0.0081 c 0.257432,0.06708 0.614619,0.06267 0.79375,-0.0098 0.179131,-0.07248 -0.03149,-0.127363 -0.468056,-0.12197 -0.436562,0.0054 -0.583125,0.06469 -0.325694,0.131773 z m -16.447264,0.444267 c -0.213331,0.257048 -0.27943,2.477868 -0.226402,7.606771 l 0.07489,7.243733 0.06171,-7.28927 c 0.0444,-5.244487 0.150778,-7.378335 0.379214,-7.606771 0.174625,-0.174625 0.248734,-0.3175 0.164687,-0.3175 -0.08404,0 -0.288393,0.163367 -0.454104,0.363037 z m 19.093098,-0.179684 c 0.257431,0.06708 0.614619,0.06267 0.79375,-0.0098 0.17913,-0.07248 -0.03149,-0.127362 -0.468056,-0.12197 -0.436563,0.0054 -0.583126,0.06469 -0.325694,0.131773 z m 5.871897,12.252066 c 0,6.91224 0.03418,9.739974 0.07596,6.283854 0.04178,-3.45612 0.04178,-9.111588 0,-12.567708 -0.04178,-3.45612 -0.07596,-0.628386 -0.07596,6.283854 z M 43.573551,32.714627 c -0.345042,0.345043 -0.180311,0.622874 0.369315,0.622874 0.307907,0 0.504986,-0.138687 0.446484,-0.314193 -0.128882,-0.386646 -0.57067,-0.55381 -0.815799,-0.308681 z m 49.361328,0.01151 c 0.254662,0.06655 0.671381,0.06655 0.926042,0 0.254662,-0.06655 0.0463,-0.121002 -0.463021,-0.121002 -0.509323,0 -0.717682,0.05445 -0.463021,0.121002 z m 2.012075,1.617443 c 0.08098,1.282287 0.04062,1.44177 -0.294482,1.163658 -0.327334,-0.271663 -0.368397,-0.218027 -0.261437,0.341493 0.124939,0.653582 -0.273976,0.920652 -0.59626,0.399187 -0.08994,-0.145521 -0.305324,-0.260964 -0.478636,-0.256537 -0.173313,0.0044 -0.106754,0.129402 0.147907,0.27773 0.429935,0.250413 0.463021,1.106329 0.463021,11.977579 0,8.753363 -0.08012,11.788017 -0.3175,12.025395 -0.423611,0.423612 0.112533,0.410999 0.562327,-0.01323 0.287284,-0.270956 0.328223,-0.203594 0.226515,0.37272 -0.08738,0.495113 -0.02463,0.665264 0.211844,0.574519 0.212918,-0.0817 0.367387,0.145196 0.421711,0.619467 0.04715,0.411619 0.126614,-5.875436 0.176589,-13.971233 0.04997,-8.095797 -0.0096,-14.781972 -0.132292,-14.858161 -0.122735,-0.07619 -0.180922,0.530143 -0.129307,1.347412 z M 75.14165,33.221973 75.9354,33.371029 v 17.427334 c 0,17.255506 -0.0053,17.428514 -0.533222,17.547085 -0.443558,0.09961 -0.432435,0.113831 0.06614,0.08455 l 0.599369,-0.0352 V 50.800001 33.205209 l -0.859896,-0.06615 c -0.847751,-0.06521 -0.848685,-0.06404 -0.06615,0.08291 z m -2.328333,0.433028 c -0.240244,0.240244 -0.3175,4.384884 -0.3175,17.033229 0,15.609878 0.03063,16.738906 0.463021,17.066093 0.393904,0.298066 0.413652,0.295003 0.132291,-0.02052 C 72.833931,67.445378 72.7604,63.637394 72.7604,50.606269 V 33.849616 l 0.595313,-0.239286 c 0.365178,-0.146783 0.436774,-0.245769 0.185208,-0.256056 -0.225557,-0.0092 -0.552979,0.126103 -0.727604,0.300727 z m -24.13,0.407164 c 0,0.238879 8.201492,0.951622 8.421271,0.731843 0.05962,-0.05962 -0.08156,-0.298349 -0.313735,-0.530519 -0.338922,-0.338923 -0.534261,-0.362114 -0.991036,-0.117655 -0.546266,0.292352 -1.106959,0.274535 -5.595146,-0.177797 -0.87694,-0.08838 -1.521354,-0.04851 -1.521354,0.09413 z m 32.279167,0.348811 c 0.633161,0.18828 5.176398,0.303602 4.630208,0.117528 -0.145521,-0.04957 -1.395677,-0.140555 -2.778125,-0.202179 -1.382448,-0.06162 -2.215885,-0.02352 -1.852083,0.08465 z m 7.408333,0.52873 c 1.236927,0.108548 3.022865,0.190312 3.96875,0.1817 1.582243,-0.01442 1.529339,-0.03123 -0.661458,-0.210307 -1.309688,-0.107058 -3.095625,-0.188822 -3.96875,-0.1817 -1.40379,0.01146 -1.327243,0.03579 0.661458,0.210307 z m -8.667279,15.344357 c -0.06448,15.613604 -0.03798,16.126354 0.833265,16.126354 0.14423,0 0.06104,-0.148828 -0.184861,-0.330729 -0.40948,-0.302904 -0.452874,-1.63295 -0.515763,-15.808854 l -0.06867,-15.478125 z m 1.31613,-15.146933 c -0.18683,0.124878 -0.26801,0.413848 -0.180401,0.642157 0.08761,0.228307 0.03211,0.493705 -0.12333,0.589775 -0.15544,0.09607 -0.28262,0.368991 -0.28262,0.606499 0,0.396571 0.027,0.39614 0.330729,-0.0053 0.29345,-0.387834 0.782709,-0.415904 4.340596,-0.249007 2.367184,0.111043 3.949364,0.09036 3.862181,-0.05048 -0.08123,-0.131217 0.06373,-0.393168 0.32213,-0.582112 0.437335,-0.319786 0.42641,-0.352602 -0.158017,-0.474713 -0.345305,-0.07215 -1.758921,-0.201424 -3.141369,-0.287282 -1.382448,-0.08586 -2.989792,-0.214722 -3.571875,-0.286361 -0.582083,-0.07164 -1.211194,-0.02808 -1.398024,0.0968 z m 1.46417,0.499423 c -0.254662,0.06655 -0.67138,0.06655 -0.926042,0 -0.254661,-0.06655 -0.0463,-0.121002 0.463021,-0.121002 0.509323,0 0.717682,0.05445 0.463021,0.121002 z m 3.307292,0.798089 c -0.327422,0.06307 -0.863204,0.06307 -1.190626,0 -0.327421,-0.06306 -0.05953,-0.114663 0.595313,-0.114663 0.654844,0 0.922734,0.0516 0.595313,0.114663 z m 1.71428,-0.02687 c -0.08792,0.08792 -0.316124,0.09732 -0.507119,0.02088 -0.211066,-0.08446 -0.148373,-0.147156 0.159853,-0.15985 0.278913,-0.01148 0.435184,0.05105 0.347266,0.138964 z m -21.126405,-0.233768 -0.95744,0.101714 -0.100893,7.063706 c -0.05549,3.885036 -0.04136,9.385421 0.0314,12.223078 l 0.132292,5.159375 h 1.852083 1.852083 l 0.132292,-3.704167 c 0.128318,-3.592859 0.360635,-4.611685 1.190625,-5.22147 0.165314,-0.121454 0.143992,-0.195905 -0.05684,-0.198438 -0.176781,-0.0022 -0.44886,0.234075 -0.60462,0.525116 -0.411832,0.769517 -0.786704,0.66802 -2.533441,-0.685929 -1.766126,-1.368984 -2.08533,-1.790936 -1.774709,-2.345984 0.374039,-0.668372 3.58316,-3.010509 3.938217,-2.874261 0.186508,0.07157 0.375806,0.447471 0.420664,0.835337 0.06004,0.519134 0.239712,0.714502 0.680929,0.740415 0.498581,0.02928 0.509704,0.01508 0.06615,-0.08455 -0.330677,-0.07426 -0.536784,-0.338895 -0.5426,-0.696662 -0.0052,-0.317301 -0.17953,-0.874567 -0.387498,-1.238369 -0.286454,-0.501099 -0.380397,-1.767935 -0.387498,-5.22552 l -0.0094,-4.564063 -0.992187,0.04448 c -0.545704,0.02447 -1.423035,0.09025 -1.949625,0.146193 z m 25.36525,0.249143 c 0.181901,0.0734 0.479557,0.0734 0.661458,0 0.181901,-0.0734 0.03307,-0.133454 -0.330729,-0.133454 -0.363802,0 -0.512631,0.06006 -0.330729,0.133454 z m -1.468438,0.406855 c -0.23727,0.23727 -0.3175,3.243487 -0.3175,11.896942 0,11.177463 0.01775,11.588948 0.511773,11.853332 0.281474,0.150641 0.668427,0.264493 0.859896,0.253004 0.191468,-0.01149 0.02069,-0.140473 -0.379482,-0.286632 L 90.2229,60.280903 V 48.652759 37.024615 l 0.595313,-0.239287 c 0.365178,-0.146782 0.436774,-0.245768 0.185208,-0.256055 -0.225557,-0.0092 -0.552979,0.126103 -0.727604,0.300729 z m -1.114785,5.503333 -0.128757,5.159375 h -0.657833 c -0.44963,0 -0.688047,-0.167481 -0.753287,-0.529167 -0.143315,-0.79452 -0.51992,-1.085604 -0.903984,-0.698698 -0.265178,0.267139 -0.238958,0.298236 0.132292,0.1569 0.340728,-0.129717 0.463021,-0.04301 0.463021,0.328282 0,1.166694 1.719527,1.637329 1.988476,0.544245 0.08056,-0.327421 0.111003,-2.738437 0.06765,-5.357812 l -0.07882,-4.7625 z M 80.4947,38.893751 c 0,0.509323 0.05445,0.717682 0.121002,0.46302 0.06655,-0.254661 0.06655,-0.67138 0,-0.926041 -0.06655,-0.254662 -0.121002,-0.0463 -0.121002,0.463021 z m -0.259244,2.248958 c 0.0029,0.582083 0.05712,0.789054 0.120407,0.459936 0.06329,-0.329118 0.06088,-0.805368 -0.0053,-1.058334 -0.06622,-0.252965 -0.118004,0.01633 -0.115067,0.598398 z m -37.218827,2.47818 c -0.07792,0.126074 0.07433,0.424693 0.338315,0.663602 0.446161,0.40377 0.511013,0.400087 0.92038,-0.05226 0.242219,-0.267647 0.360763,-0.566267 0.263431,-0.663599 -0.255484,-0.255484 -1.355266,-0.217728 -1.522126,0.05225 z m 37.479193,10.656533 c -0.05653,8.290159 -0.02101,9.181888 0.371793,9.33262 0.342413,0.131396 0.37116,0.09058 0.135863,-0.192937 -0.205248,-0.24731 -0.321339,-3.1614 -0.371792,-9.332619 l -0.07336,-8.973027 z m 5.071732,-7.115442 -0.504029,0.595312 0.595313,-0.504028 c 0.559445,-0.473663 0.715761,-0.686597 0.504028,-0.686597 -0.05021,0 -0.318098,0.267891 -0.595312,0.595313 z m -1.322917,1.058333 -0.504028,0.595313 0.595312,-0.504029 c 0.559446,-0.473662 0.715762,-0.686596 0.504029,-0.686596 -0.05021,0 -0.318098,0.26789 -0.595313,0.595312 z m -0.989097,0.639411 c -0.23895,0.23895 -0.223866,1.085956 0.02204,1.237938 0.109141,0.06745 0.198437,-0.223176 0.198437,-0.645843 0,-0.422667 -0.0099,-0.768485 -0.02204,-0.768485 -0.01212,0 -0.101426,0.07937 -0.198437,0.17639 z m 1.014235,1.940277 c 0.26339,0.291041 0.538422,0.529166 0.611183,0.529166 0.07276,0 -0.08321,-0.238125 -0.346599,-0.529166 -0.26339,-0.291042 -0.538422,-0.529167 -0.611183,-0.529167 -0.07276,0 0.08321,0.238125 0.346599,0.529167 z m 1.322917,1.058333 c 0.26339,0.291042 0.538422,0.529167 0.611182,0.529167 0.07276,0 -0.08321,-0.238125 -0.346599,-0.529167 -0.26339,-0.291042 -0.538421,-0.529167 -0.611182,-0.529167 -0.07276,0 0.08321,0.238125 0.346599,0.529167 z m -14.42003,8.148893 0.132054,8.387565 0.07028,-8.184959 c 0.03865,-4.501728 -0.02077,-8.276132 -0.132053,-8.387567 -0.111284,-0.111432 -0.14291,3.571799 -0.07028,8.184961 z m 17.939033,-4.089241 c 0.07636,4.110041 0.0574,4.292561 -0.492331,4.737744 -0.314465,0.254661 -0.457954,0.463021 -0.318865,0.463021 0.139089,0 0.449934,-0.217735 0.690769,-0.483855 0.368096,-0.406739 0.437882,-1.142193 0.437882,-4.614593 0,-2.271907 -0.0893,-4.186157 -0.198437,-4.253891 -0.109141,-0.06773 -0.162698,1.800477 -0.119018,4.151574 z M 87.312484,52.37171 c 0,0.211704 -0.172141,0.271455 -0.463021,0.160714 -0.37125,-0.141336 -0.39747,-0.110239 -0.132292,0.1569 0.254646,0.25653 0.402754,0.261152 0.643819,0.02008 0.172201,-0.172201 0.231732,-0.394451 0.132291,-0.49389 -0.09944,-0.09943 -0.180797,-0.02915 -0.180797,0.156194 z m -43.751722,3.587121 c -0.236239,0.615629 -0.220283,0.662003 0.227763,0.662003 0.445412,0 0.49566,-0.228255 0.165061,-0.749788 -0.178457,-0.281522 -0.257922,-0.263764 -0.392824,0.08779 z m 42.742998,5.605244 c -0.62756,0.221951 -1.094235,0.450329 -1.037056,0.507507 0.120716,0.120717 2.574946,-0.68506 2.574946,-0.845411 0,-0.16568 -0.301058,-0.09953 -1.53789,0.337904 z m 0.538615,0.666731 c -1.204447,0.447725 -2.143866,0.86008 -2.087603,0.916345 0.05627,0.05626 1.079609,-0.258045 2.274097,-0.698467 2.344806,-0.864557 4.468537,-1.143671 2.664865,-0.350233 -1.223807,0.538355 -7.377073,2.743497 -8.135938,2.915671 -0.969216,0.2199 -0.677751,-0.387542 0.348456,-0.726222 0.519073,-0.17131 0.88913,-0.366112 0.822349,-0.432894 -0.06678,-0.06678 -0.55101,0.05807 -1.07606,0.277453 -0.922867,0.385598 -1.239994,1.012037 -0.685742,1.354584 0.147894,0.0914 0.190855,0.292471 0.09546,0.446815 -0.09539,0.154344 -0.05775,0.235414 0.08365,0.180155 0.141399,-0.05526 2.733021,-0.993439 5.759164,-2.084846 3.026143,-1.091406 5.316271,-2.021331 5.089171,-2.0665 -0.2271,-0.04517 -0.789152,0.112438 -1.249008,0.350238 -0.459854,0.237801 -0.901078,0.367385 -0.980498,0.287966 -0.07942,-0.07942 0.169769,-0.263845 0.553754,-0.409836 0.383984,-0.14599 0.698153,-0.387446 0.698153,-0.536569 0,-0.511411 -1.985549,-0.237267 -4.174275,0.57634 z m -2.175725,2.166929 c 0,0.05719 -0.184777,0.17489 -0.410617,0.261553 -0.235458,0.09035 -0.341662,0.046 -0.248968,-0.103985 0.155379,-0.251408 0.659585,-0.371858 0.659585,-0.157568 z m 8.152474,-2.569077 c 0.190995,0.07643 0.419198,0.06703 0.507119,-0.02089 0.08792,-0.08792 -0.06835,-0.150453 -0.347265,-0.138964 -0.308227,0.01269 -0.37092,0.07539 -0.159854,0.159852 z m -36.066015,2.378878 c -7.009619,2.050464 -8.719854,2.699347 -8.278314,3.140887 0.08627,0.08627 2.697449,-0.636014 5.802619,-1.605076 4.124931,-1.287309 5.758549,-1.691495 6.064455,-1.500453 0.311333,0.19443 0.497037,0.136027 0.724228,-0.227765 0.176866,-0.283208 1.115817,-0.72793 2.229607,-1.056025 2.063994,-0.608001 2.856982,-1.063375 1.778551,-1.021332 -0.356527,0.0139 -4.101042,1.035293 -8.321146,2.269764 z m 25.4,-1.0951 c -0.661623,0.318677 -0.683644,0.355405 -0.132292,0.220645 0.749697,-0.18324 1.592395,-0.612755 1.190625,-0.606851 -0.145521,0.0021 -0.621771,0.175931 -1.058333,0.386206 z M 95.7454,63.698438 c -0.329107,0.419644 -0.319749,0.429002 0.0999,0.09989 0.254662,-0.199719 0.463021,-0.408079 0.463021,-0.463021 0,-0.217761 -0.217273,-0.0776 -0.562917,0.363126 z m -4.199583,0.595313 c -0.218281,0.141064 -0.277813,0.25648 -0.132292,0.25648 0.145521,0 0.443177,-0.115416 0.661459,-0.25648 0.218281,-0.141065 0.277812,-0.256481 0.132291,-0.256481 -0.14552,0 -0.443177,0.115416 -0.661458,0.256481 z m 1.852083,0.529166 c -0.218281,0.141065 -0.277812,0.256481 -0.132291,0.256481 0.14552,0 0.443177,-0.115416 0.661458,-0.256481 0.218281,-0.141064 0.277813,-0.25648 0.132292,-0.25648 -0.145521,0 -0.443177,0.115416 -0.661459,0.25648 z m -2.38125,1.058334 c -0.218281,0.141064 -0.277812,0.25648 -0.132291,0.25648 0.145521,0 0.443177,-0.115416 0.661458,-0.25648 0.218281,-0.141065 0.277813,-0.256481 0.132292,-0.256481 -0.145521,0 -0.443177,0.115416 -0.661459,0.256481 z m -2.38125,1.058333 c -0.218281,0.141064 -0.277812,0.25648 -0.132291,0.25648 0.14552,0 0.443177,-0.115416 0.661458,-0.25648 0.218281,-0.141064 0.277812,-0.25648 0.132292,-0.25648 -0.145521,0 -0.443177,0.115416 -0.661459,0.25648 z m -2.38125,1.058333 c -0.218281,0.141065 -0.277812,0.256481 -0.132291,0.256481 0.145521,0 0.443177,-0.115416 0.661458,-0.256481 0.218281,-0.141064 0.277813,-0.25648 0.132292,-0.25648 -0.145521,0 -0.443177,0.115416 -0.661459,0.25648 z m -3.704166,0.264584 c -0.218282,0.141064 -0.277813,0.25648 -0.132292,0.25648 0.145521,0 0.443177,-0.115416 0.661458,-0.25648 0.218282,-0.141065 0.277813,-0.256481 0.132292,-0.256481 -0.145521,0 -0.443177,0.115416 -0.661458,0.256481 z m -10.918473,0.561998 c 0.179477,0.180821 0.392969,0.262115 0.474432,0.180653 0.08146,-0.08146 -0.06538,-0.229406 -0.326319,-0.328765 -0.377084,-0.143586 -0.407474,-0.113195 -0.148113,0.148112 z m -11.041944,0.177715 c 0,0.151437 -0.07227,0.463672 -0.160599,0.693856 -0.11513,0.300024 -0.0028,0.418514 0.396875,0.418514 0.647348,0 0.735541,-0.581175 0.160599,-1.058333 -0.240303,-0.199435 -0.396875,-0.220753 -0.396875,-0.05404 z m 23.283333,0.05404 c -0.218281,0.141064 -0.277812,0.25648 -0.132291,0.25648 0.145521,0 0.443177,-0.115416 0.661458,-0.25648 0.218281,-0.141065 0.277812,-0.256481 0.132292,-0.256481 -0.145521,0 -0.443177,0.115416 -0.661459,0.256481 z m -11.162109,0.18074 c 0.190995,0.07643 0.419198,0.06703 0.507119,-0.02089 0.08792,-0.08792 -0.06835,-0.150453 -0.347266,-0.138964 -0.308226,0.01269 -0.370919,0.07539 -0.159853,0.159852 z m 7.193359,0.216135 c -0.363802,0.207968 -0.542396,0.378123 -0.396875,0.378123 0.145521,0 0.56224,-0.170155 0.926042,-0.378123 0.363802,-0.207968 0.542396,-0.378124 0.396875,-0.378124 -0.145521,0 -0.56224,0.170156 -0.926042,0.378124 z m -36.858084,0.0369 c -0.09306,0.09306 -0.105875,0.271651 -0.02848,0.396875 0.225827,0.365395 0.833253,0.26251 0.998914,-0.169196 0.153773,-0.400724 -0.616636,-0.581475 -0.970431,-0.227679 z m 30.723058,0.01154 c 0.190995,0.07643 0.419198,0.06703 0.507119,-0.02089 0.08792,-0.08792 -0.06835,-0.150453 -0.347265,-0.138965 -0.308227,0.01269 -0.37092,0.07539 -0.159854,0.159853 z m 0.84336,0.187826 c 0,0.05719 0.184777,0.174891 0.410617,0.261553 0.235458,0.09035 0.341662,0.046 0.248968,-0.103984 -0.155379,-0.251408 -0.659585,-0.371858 -0.659585,-0.157569 z m 0.877189,1.462792 c 0.02687,0.352404 0.227446,0.68889 0.445727,0.747747 0.262229,0.07071 0.295056,0.03286 0.09675,-0.111567 -0.165065,-0.120219 -0.365643,-0.456706 -0.445728,-0.747747 -0.114813,-0.417249 -0.135276,-0.393653 -0.09675,0.111567 z m 3.620727,0.02072 c -0.218281,0.141065 -0.277812,0.256481 -0.132291,0.256481 0.145521,0 0.443177,-0.115416 0.661458,-0.256481 0.218281,-0.141064 0.277813,-0.25648 0.132292,-0.25648 -0.145521,0 -0.443177,0.115416 -0.661459,0.25648 z m -25.804038,1.59909 c -0.09388,0.151896 -0.02212,0.455188 0.159468,0.673983 0.264736,0.318987 0.373295,0.329797 0.547893,0.05456 0.119757,-0.188789 0.219564,-0.492081 0.221792,-0.673982 0.0049,-0.400207 -0.690301,-0.441026 -0.929153,-0.05456 z m -9.771121,3.674295 c -0.08372,0.135465 -0.03122,0.321086 0.116677,0.41249 0.315747,0.195142 0.798066,-0.05254 0.798066,-0.409823 0,-0.321946 -0.716127,-0.324034 -0.914743,-0.0027 z"
             id="path3224" />
          <path
             style="fill:#919191;stroke-width:0.264583"
             d="m 76.414958,29.814074 c 0.190994,0.07643 0.419198,0.06703 0.507119,-0.02088 0.08792,-0.08792 -0.06835,-0.150453 -0.347266,-0.138965 -0.308226,0.0127 -0.370919,0.07539 -0.159853,0.159851 z m 2.50204,0.267197 c 0.257432,0.06708 0.614619,0.06267 0.79375,-0.0098 0.179131,-0.07248 -0.03149,-0.127363 -0.468056,-0.12197 -0.436563,0.0054 -0.583126,0.06469 -0.325694,0.131773 z m 2.111631,0.263615 c 0.254662,0.06655 0.671381,0.06655 0.926042,0 0.254662,-0.06655 0.0463,-0.121002 -0.463021,-0.121002 -0.509323,0 -0.717682,0.05445 -0.463021,0.121002 z m 2.645834,0.264583 c 0.254661,0.06655 0.67138,0.06655 0.926041,0 0.254662,-0.06655 0.0463,-0.121002 -0.46302,-0.121002 -0.509323,0 -0.717683,0.05445 -0.463021,0.121002 z m -8.24734,0.523171 c -0.01148,0.315294 -0.169717,0.633318 -0.351619,0.706716 -0.259042,0.104526 -0.257243,0.13798 0.0083,0.154339 0.401614,0.02474 0.69369,-0.614098 0.500566,-1.094862 -0.075,-0.1867 -0.145762,-0.08149 -0.15725,0.233807 z m 10.893173,-0.258587 c 0.254662,0.06655 0.67138,0.06655 0.926042,0 0.254661,-0.06655 0.0463,-0.121002 -0.463021,-0.121002 -0.509323,0 -0.717682,0.05445 -0.463021,0.121002 z m -8.535519,0.482335 c -0.25259,0.304353 -0.418687,0.328266 -0.693857,0.0999 -0.290091,-0.240755 -0.36177,-0.164835 -0.36177,0.38318 0,0.375883 -0.148828,0.822418 -0.330729,0.992299 -0.259522,0.242374 -0.315613,4.075544 -0.260524,17.803662 0.06602,16.453013 0.04239,17.516598 -0.396875,17.861108 -0.439354,0.34458 -0.436925,0.355827 0.04093,0.189476 0.581681,-0.202492 0.937109,0.211237 0.943145,1.097846 0.0022,0.327422 0.123113,0.595312 0.268634,0.595312 0.145521,0 0.264583,-0.133641 0.264583,-0.29698 0,-0.207613 0.09952,-0.214368 0.330729,-0.02245 0.264176,0.219291 0.31673,-3.614613 0.261162,-19.052518 -0.05083,-14.123371 0.01132,-19.424507 0.230836,-19.689011 0.165219,-0.199078 0.240869,-0.361961 0.168108,-0.361961 -0.07276,0 -0.281731,0.180062 -0.464375,0.400137 z m 1.396804,-0.216784 c 0.257432,0.06708 0.614619,0.06267 0.79375,-0.0098 0.179131,-0.07248 -0.03149,-0.127362 -0.468056,-0.12197 -0.436562,0.0054 -0.583125,0.06469 -0.325694,0.131773 z m 9.519965,-0.0011 c 0.254662,0.06655 0.67138,0.06655 0.926042,0 0.254661,-0.06655 0.0463,-0.121002 -0.463021,-0.121002 -0.509323,0 -0.717682,0.05445 -0.463021,0.121002 z m -7.008373,0.269327 c 0.329118,0.06329 0.805368,0.06088 1.058333,-0.0053 0.252966,-0.06622 -0.01633,-0.118004 -0.598397,-0.115068 -0.582084,0.0029 -0.789054,0.05712 -0.459936,0.120407 z m 9.654207,-0.0047 c 0.254661,0.06655 0.67138,0.06655 0.926041,0 0.254662,-0.06655 0.0463,-0.121002 -0.463021,-0.121002 -0.509323,0 -0.717682,0.05445 -0.46302,0.121002 z m -7.138715,0.265552 c 0.257431,0.06708 0.614619,0.06267 0.79375,-0.0098 0.17913,-0.07248 -0.03149,-0.127363 -0.468056,-0.12197 -0.436563,0.0054 -0.583126,0.06469 -0.325694,0.131773 z m 9.519965,-0.0011 c 0.254661,0.06655 0.67138,0.06655 0.926041,0 0.254662,-0.06655 0.0463,-0.121002 -0.463021,-0.121002 -0.509323,0 -0.717682,0.05445 -0.46302,0.121002 z m -6.879167,0.264583 c 0.254661,0.06655 0.67138,0.06655 0.926042,0 0.254661,-0.06655 0.0463,-0.121002 -0.463021,-0.121002 -0.509323,0 -0.717683,0.05445 -0.463021,0.121002 z m 9.194199,15.639605 0.132218,15.795718 0.06835,-15.595052 c 0.03759,-8.577279 -0.02191,-15.68535 -0.13222,-15.795715 -0.110316,-0.110366 -0.141073,6.907405 -0.06835,15.595049 z M 73.769124,32.195152 c 0.190995,0.07643 0.419198,0.06703 0.507119,-0.02088 0.08792,-0.08792 -0.06835,-0.150453 -0.347265,-0.138965 -0.308227,0.0127 -0.37092,0.07539 -0.159854,0.159851 z m 15.461589,0.0016 c 0.254661,0.06655 0.67138,0.06655 0.926042,0 0.254661,-0.06655 0.0463,-0.121002 -0.463021,-0.121002 -0.509323,0 -0.717683,0.05445 -0.463021,0.121002 z m -17.562396,0.545449 c -0.315545,0.402352 -0.311124,0.424342 0.03375,0.167817 0.218281,-0.162361 0.575469,-0.36132 0.79375,-0.442132 0.331986,-0.122906 0.326467,-0.150344 -0.03375,-0.167817 -0.236842,-0.01148 -0.59403,0.187471 -0.79375,0.442132 z m 20.208229,-0.280635 c 0.254662,0.06655 0.67138,0.06655 0.926042,0 0.254661,-0.06655 0.0463,-0.121002 -0.463021,-0.121002 -0.509323,0 -0.717682,0.05445 -0.463021,0.121002 z m 2.315104,0.183631 c 0,0.05579 0.238289,0.163745 0.529532,0.239908 0.291243,0.07616 0.462809,0.03052 0.381259,-0.101433 -0.142412,-0.230428 -0.910791,-0.34725 -0.910791,-0.138475 z M 73.769124,33.25367 c 0.190995,0.07643 0.419198,0.06703 0.507119,-0.02088 0.08792,-0.08792 -0.06835,-0.150452 -0.347265,-0.138964 -0.308227,0.0127 -0.37092,0.07539 -0.159854,0.15985 z m 6.323441,1.306539 c -0.315859,0.315859 -0.228467,31.265071 0.08884,31.461177 0.152487,0.09424 0.452842,0.103972 0.667448,0.02162 0.321487,-0.123366 0.332071,-0.242809 0.0601,-0.6783 -0.213733,-0.342242 -0.239162,-0.616291 -0.07214,-0.777422 0.49171,-0.474356 8.407683,-3.203936 9.29164,-3.203936 1.061268,0 1.164167,0.437339 0.19004,0.807701 -0.383985,0.145991 -0.633174,0.330417 -0.553754,0.409836 0.07942,0.07942 0.506737,-0.04297 0.949597,-0.271986 0.44286,-0.229011 1.079003,-0.430196 1.41365,-0.447076 0.448215,-0.02261 0.486513,-0.06256 0.145431,-0.151693 -0.254661,-0.06655 -0.463021,-0.290863 -0.463021,-0.498474 0,-0.269019 0.323086,-0.375057 1.124479,-0.36906 1.046192,0.0078 1.088724,0.03546 0.610889,0.396875 -0.592431,0.448093 -0.353041,0.516884 0.398693,0.114568 0.281474,-0.150641 0.511773,-0.522407 0.511773,-0.826147 0,-0.404683 -0.08838,-0.482477 -0.33073,-0.291126 -0.478403,0.377724 -3.183535,0.592434 -3.715228,0.294883 -0.415481,-0.232515 -0.451959,-1.187187 -0.451959,-11.828531 0,-12.10685 0.0097,-12.210603 1.143646,-12.210603 0.415332,0 0.449984,-0.07068 0.188888,-0.385287 -0.175866,-0.211904 -0.25119,-0.496226 -0.167388,-0.631819 0.191844,-0.310409 -1.260737,-0.508641 -5.133896,-0.700614 -1.67349,-0.08295 -3.642532,-0.212053 -4.375647,-0.286904 -0.733116,-0.07485 -1.417725,-0.05131 -1.521355,0.05232 z m 0.259522,1.351957 c -0.06708,0.257432 -0.126381,0.110868 -0.131773,-0.325694 -0.0054,-0.436563 0.04949,-0.647187 0.12197,-0.468056 0.07247,0.179131 0.07689,0.536318 0.0098,0.79375 z m 5.63748,-0.585459 c 1.382448,0.08586 2.796064,0.215135 3.141369,0.287282 0.579895,0.121163 0.592489,0.157019 0.164938,0.469651 -0.384931,0.281469 -0.410059,0.43719 -0.149195,0.924613 0.219622,0.410369 0.289173,2.12235 0.231936,5.708907 -0.04497,2.817524 0.0075,5.067387 0.116681,4.999696 0.109141,-0.06769 0.198438,0.843481 0.198438,2.024824 0,1.181344 -0.0893,2.092487 -0.198438,2.024767 -0.10914,-0.06772 -0.163324,1.806958 -0.120409,4.165957 0.07008,3.852233 0.02966,4.331908 -0.396875,4.709493 -0.605711,0.5362 -7.77362,3.08826 -8.213966,2.924498 -0.255881,-0.09516 -0.343225,-2.556614 -0.385942,-10.87646 -0.06398,-12.460621 0.01474,-15.921471 0.372263,-16.36427 0.141722,-0.175525 0.172638,-0.456726 0.06871,-0.624893 -0.302435,-0.489352 0.452969,-0.801428 1.59862,-0.660426 0.582083,0.07164 2.189427,0.200501 3.571875,0.286361 z m -1.389063,1.107948 c 0.327422,0.06307 0.863204,0.06307 1.190626,0 0.327421,-0.06306 0.05953,-0.114663 -0.595313,-0.114663 -0.654844,0 -0.922734,0.0516 -0.595313,0.114663 z m 2.397787,-0.006 c 0.190995,0.07643 0.419198,0.06703 0.507119,-0.02088 0.08792,-0.08792 -0.06835,-0.150453 -0.347266,-0.138965 -0.308226,0.0127 -0.370919,0.07539 -0.159853,0.159851 z m 2.855296,0.541354 c -0.268954,0.268951 -0.490868,-0.135967 -0.270198,-0.49302 0.166696,-0.269721 0.229018,-0.26993 0.318638,-0.0011 0.06128,0.18383 0.03948,0.40617 -0.04844,0.494088 z m 0.308679,23.834542 c 0.0585,0.175507 -0.138576,0.314193 -0.446485,0.314193 -0.549624,0 -0.714356,-0.277831 -0.369313,-0.622874 0.245129,-0.245129 0.686917,-0.07797 0.815798,0.308681 z m -9.350603,3.19463 c 0.07975,0.129032 -0.03229,0.381736 -0.248967,0.561564 -0.327848,0.272089 -0.393962,0.232718 -0.393962,-0.234604 0,-0.567629 0.37601,-0.758846 0.642929,-0.32696 z M 93.794775,35.554272 c 0.322967,0.251598 0.394208,0.415513 0.182822,0.420648 -0.399177,0.0097 -0.155583,0.537581 0.248071,0.537581 0.506362,0 0.10723,-1.183651 -0.430893,-1.27784 l -0.529166,-0.09262 z m -1.240234,0.609802 c 0.190995,0.07643 0.419198,0.06703 0.507119,-0.02088 0.08792,-0.08792 -0.06835,-0.150453 -0.347266,-0.138965 -0.308226,0.0127 -0.370919,0.07539 -0.159853,0.159851 z M 66.905817,47.823438 c -0.329108,0.419645 -0.319749,0.429004 0.0999,0.0999 0.254661,-0.19972 0.463021,-0.40808 0.463021,-0.463021 0,-0.217762 -0.217274,-0.0776 -0.562917,0.363125 z M 66.4104,50.635313 c 0,0.05494 0.20836,0.263301 0.463021,0.463021 0.419645,0.329108 0.429004,0.319749 0.0999,-0.0999 C 66.627674,50.557708 66.4104,50.417551 66.4104,50.635313 Z m 1.322917,1.058334 c 0,0.05494 0.208359,0.2633 0.463021,0.463021 0.419645,0.329107 0.429003,0.319749 0.0999,-0.0999 -0.345644,-0.440729 -0.562917,-0.580887 -0.562917,-0.363124 z m 27.346,7.176145 c -7.94e-4,1.309688 0.04393,1.878827 0.09942,1.264754 0.05549,-0.614072 0.05615,-1.685635 0.0016,-2.38125 -0.0548,-0.695614 -0.100206,-0.193191 -0.10101,1.116496 z m -1.15225,4.497917 c -0.363802,0.207968 -0.535387,0.382343 -0.381299,0.387499 0.154088,0.0052 0.511276,-0.165431 0.79375,-0.379084 0.653251,-0.494094 0.444601,-0.498351 -0.412451,-0.0084 z m -9.920002,1.187594 c -0.09269,0.149982 0.01352,0.194339 0.248968,0.103985 0.458369,-0.175893 0.542234,-0.365537 0.16165,-0.365537 -0.136933,0 -0.321712,0.117699 -0.410618,0.261552 z m 0.130419,3.178031 c -0.218282,0.141064 -0.277813,0.25648 -0.132292,0.25648 0.145521,0 0.443177,-0.115416 0.661458,-0.25648 0.218282,-0.141064 0.277813,-0.25648 0.132292,-0.25648 -0.145521,0 -0.443177,0.115416 -0.661458,0.25648 z m -9.839193,0.709907 c 0.190995,0.07643 0.419198,0.06703 0.507119,-0.02089 0.08792,-0.08792 -0.06835,-0.150453 -0.347266,-0.138964 -0.308226,0.01269 -0.370919,0.07539 -0.159853,0.159852 z m 10.368359,0.08384 c -0.218281,0.141064 -0.277812,0.25648 -0.132291,0.25648 0.14552,0 0.443177,-0.115416 0.661458,-0.25648 0.218281,-0.141064 0.277812,-0.25648 0.132292,-0.25648 -0.145521,0 -0.443177,0.115416 -0.661459,0.25648 z m -2.910416,0.264583 c -0.218282,0.141065 -0.277813,0.256481 -0.132292,0.256481 0.145521,0 0.443177,-0.115416 0.661458,-0.256481 0.218282,-0.141064 0.277813,-0.25648 0.132292,-0.25648 -0.145521,0 -0.443177,0.115416 -0.661458,0.25648 z m -8.251693,0.445324 c 0.190995,0.07643 0.419198,0.06703 0.507119,-0.02089 0.08792,-0.08792 -0.06835,-0.150453 -0.347266,-0.138964 -0.308226,0.01269 -0.370919,0.07539 -0.159853,0.159852 z m 8.516276,0.480718 c -0.363802,0.207968 -0.542396,0.378124 -0.396875,0.378124 0.145521,0 0.56224,-0.170156 0.926042,-0.378124 0.363802,-0.207968 0.542396,-0.378124 0.396875,-0.378124 -0.145521,0 -0.56224,0.170156 -0.926042,0.378124 z m -6.685701,0.418084 c 0.09356,0.35777 0.213493,0.477704 0.279546,0.279546 0.06363,-0.190882 -0.01011,-0.472853 -0.163859,-0.626603 -0.19634,-0.196338 -0.230772,-0.09304 -0.115687,0.347057 z m 4.569034,0.507958 c -0.218281,0.141064 -0.277812,0.25648 -0.132291,0.25648 0.145521,0 0.443177,-0.115416 0.661458,-0.25648 0.218281,-0.141065 0.277812,-0.256481 0.132292,-0.256481 -0.145521,0 -0.443177,0.115416 -0.661459,0.256481 z m -3.368402,1.241687 c 0.257432,0.06708 0.614619,0.06267 0.79375,-0.0098 0.179131,-0.07247 -0.03149,-0.127362 -0.468056,-0.12197 -0.436562,0.0054 -0.583126,0.06469 -0.325694,0.131774 z"
             id="path3226" />
          <path
             style="fill:#9ea15d;stroke-width:0.264583"
             d="m 67.270296,47.659611 c -0.912021,0.737928 -1.653646,1.549963 -1.653646,1.810639 0,0.437192 3.217268,3.181834 3.729742,3.181834 0.121216,0 0.347831,-0.238125 0.503592,-0.529167 0.15576,-0.291041 0.517136,-0.529166 0.803058,-0.529166 0.341299,0 0.519858,-0.17951 0.519858,-0.522619 0,-0.444317 -0.09646,-0.485944 -0.643831,-0.277833 -0.354106,0.13463 -0.875202,0.389279 -1.157992,0.565883 -0.446918,0.279106 -0.691446,0.171611 -1.869712,-0.821915 -0.745551,-0.628661 -1.355548,-1.240698 -1.355548,-1.360083 0,-0.119388 0.327422,-0.420092 0.727604,-0.668234 0.400182,-0.248142 1.050978,-0.745533 1.446213,-1.105316 l 0.718611,-0.65415 0.253277,0.666176 c 0.215384,0.566502 0.921084,0.985607 1.682941,0.999479 0.487161,0.0089 0.136596,-0.497533 -0.396875,-0.573299 -0.426247,-0.06054 -0.619088,-0.291185 -0.679032,-0.812152 -0.121595,-1.056764 -0.721291,-0.913035 -2.62826,0.629923 z m 17.834631,0.03133 c -0.968655,0.763871 -1.76022,1.567543 -1.759026,1.785938 0.0021,0.378121 2.76706,2.771521 3.548052,3.071214 0.221638,0.08505 0.440708,-0.07824 0.54475,-0.40604 0.123931,-0.390475 0.39737,-0.548301 0.949944,-0.548301 0.513318,0 0.77592,-0.134319 0.77592,-0.396875 0,-0.623554 -1.480471,-0.506844 -1.942751,0.153156 -0.38354,0.547579 -0.390855,0.546092 -1.641782,-0.333854 -1.626515,-1.144143 -2.008849,-1.735542 -1.3605,-2.10444 0.263408,-0.149876 0.87444,-0.619765 1.357847,-1.044202 1.035685,-0.909344 1.359532,-0.960109 1.547182,-0.242535 0.08053,0.307959 0.360895,0.529166 0.670677,0.529166 0.292764,0 0.72063,0.07227 0.950812,0.1606 0.230185,0.08833 0.418515,0.0288 0.418515,-0.132292 0,-0.161091 -0.273844,-0.292891 -0.608542,-0.292891 -0.729691,0 -1.243541,-0.459187 -1.243541,-1.11125 0,-0.719442 -0.289997,-0.599556 -2.207557,0.912606 z"
             id="path3228" />
          <path
             style="fill:#727272;stroke-width:0.264583"
             d="m 75.772428,30.279338 c -0.0805,0.20978 -0.09058,0.596733 -0.02238,0.859896 0.08265,0.318976 0.134207,0.240538 0.154667,-0.235302 0.0287,-0.667583 0.120587,-0.720066 1.419754,-0.810953 l 1.389063,-0.09718 -1.397365,-0.04894 c -1.007004,-0.03527 -1.438257,0.05761 -1.543733,0.332478 z m 3.539495,0.07029 c 0.329118,0.06329 0.805368,0.06088 1.058333,-0.0053 0.252966,-0.06622 -0.01632,-0.118004 -0.598397,-0.115067 -0.582084,0.0029 -0.789054,0.05712 -0.459936,0.120407 z m 2.378165,0.264178 c 0.327422,0.06307 0.863203,0.06307 1.190625,0 0.327422,-0.06306 0.05953,-0.114662 -0.595313,-0.114662 -0.654843,0 -0.922734,0.0516 -0.595312,0.114662 z m -3.71784,0.245875 c -0.09241,0.09241 -0.439674,0.181705 -0.771703,0.198438 -0.434406,0.02188 -0.627483,0.215902 -0.688549,0.69188 -0.04667,0.363802 -0.277791,0.810286 -0.51359,0.992187 -0.38598,0.297752 -0.386938,0.330729 -0.0096,0.330729 0.459859,0 0.740336,-0.529434 0.740336,-1.397473 0,-0.432316 0.07176,-0.488683 0.313889,-0.246555 0.242125,0.242126 0.408469,0.228709 0.727604,-0.05869 0.227544,-0.20492 0.830434,-0.422365 1.339757,-0.483211 l 0.926042,-0.110635 -0.94809,-0.04234 c -0.521451,-0.02328 -1.023696,0.03326 -1.116105,0.125672 z m 6.23502,0.02185 c 0.402182,0.06082 0.997495,0.05919 1.322916,-0.0036 0.325422,-0.0628 -0.0036,-0.112559 -0.731242,-0.110574 -0.727604,0.0021 -0.993857,0.05337 -0.591674,0.114186 z M 80.63484,31.14339 c 0.329117,0.06329 0.805367,0.06088 1.058333,-0.0053 0.252965,-0.06622 -0.01632,-0.118004 -0.598398,-0.115067 -0.582083,0.0029 -0.789053,0.05712 -0.459935,0.120406 z m 6.479206,-0.0047 c 0.254662,0.06655 0.67138,0.06655 0.926042,0 0.254661,-0.06655 0.0463,-0.121001 -0.463021,-0.121001 -0.509323,0 -0.717682,0.05445 -0.463021,0.121001 z m -3.56879,0.269328 c 0.329118,0.06329 0.805368,0.06088 1.058334,-0.0053 0.252965,-0.06622 -0.01632,-0.118004 -0.598398,-0.115067 -0.582083,0.0029 -0.789054,0.05712 -0.459936,0.120406 z m 5.689095,0.0027 c 0.402182,0.06082 0.997495,0.05919 1.322917,-0.0036 0.325421,-0.0628 -0.0036,-0.112559 -0.731243,-0.110575 -0.727604,0.0021 -0.993857,0.05337 -0.591674,0.114186 z m -3.443221,0.264218 c 0.400182,0.06062 1.055026,0.06062 1.455208,0 0.400182,-0.06062 0.07276,-0.110223 -0.727604,-0.110223 -0.800365,0 -1.127787,0.0496 -0.727604,0.110223 z m 6.220793,-0.0024 c 0.329118,0.06329 0.805368,0.06088 1.058333,-0.0053 0.252966,-0.06622 -0.01632,-0.118004 -0.598397,-0.115067 -0.582084,0.0029 -0.789054,0.05712 -0.459936,0.120407 z m -3.57496,0.259842 c 0.254661,0.06655 0.67138,0.06655 0.926042,0 0.254661,-0.06655 0.0463,-0.121002 -0.463021,-0.121002 -0.509323,0 -0.717683,0.05445 -0.463021,0.121002 z m 5.490104,-0.07789 c 0,0.05748 0.466236,0.148965 1.036077,0.203308 0.569843,0.05434 0.979535,0.0073 0.910428,-0.104502 -0.125743,-0.203457 -1.946505,-0.295879 -1.946505,-0.09881 z m -19.364193,0.340823 c 0.190995,0.07643 0.419198,0.06703 0.507119,-0.02088 0.08792,-0.08792 -0.06835,-0.150453 -0.347265,-0.138965 -0.308227,0.0127 -0.37092,0.07539 -0.159854,0.159851 z m 16.52356,0.0091 c 0.402183,0.06082 0.997495,0.05919 1.322917,-0.0036 0.325421,-0.0628 -0.0036,-0.112559 -0.731242,-0.110574 -0.727604,0.0021 -0.993857,0.05337 -0.591675,0.114186 z m -18.127596,0.249944 c 0.181901,0.0734 0.479557,0.0734 0.661458,0 0.181901,-0.0734 0.03307,-0.133454 -0.330729,-0.133454 -0.363802,0 -0.51263,0.06006 -0.330729,0.133454 z m 20.505208,0.0072 c 0.254662,0.06655 0.67138,0.06655 0.926042,0 0.254661,-0.06655 0.0463,-0.121002 -0.463021,-0.121002 -0.509323,0 -0.717682,0.05445 -0.463021,0.121002 z m 1.724144,15.096858 c 0.06585,13.97899 0.03972,15.000795 -0.396875,15.519073 l -0.467373,0.554795 0.595312,-0.504028 0.595313,-0.504028 V 47.7319 c 0,-8.190785 -0.0893,-14.947556 -0.198437,-15.015046 -0.109141,-0.06749 -0.166714,6.611208 -0.12794,14.841556 z M 74.419081,32.991701 c 0.257432,0.06708 0.614619,0.06267 0.79375,-0.0098 0.179131,-0.07248 -0.03149,-0.127363 -0.468056,-0.12197 -0.436562,0.0054 -0.583125,0.06469 -0.325694,0.131773 z m -2.865284,7.357258 c 1.32e-4,4.074583 0.03686,5.704488 0.08162,3.622014 0.04476,-2.082478 0.04465,-5.416228 -2.44e-4,-7.408334 -0.04489,-1.992109 -0.08151,-0.288263 -0.08137,3.78632 z m 0.994937,-6.958542 c -0.24034,0.24034 -0.3175,4.439121 -0.3175,17.277292 0,17.135277 0.02477,17.612465 0.912812,17.586746 0.152797,-0.0044 0.06945,-0.129404 -0.185208,-0.277731 -0.433398,-0.25243 -0.463021,-1.361239 -0.463021,-17.330687 V 33.585032 l 0.595312,-0.239287 c 0.365178,-0.146783 0.436775,-0.245769 0.185209,-0.256056 -0.225557,-0.0092 -0.552979,0.126103 -0.727604,0.300728 z m 7.67158,2.196042 c 0.0054,0.436563 0.06469,0.583126 0.131773,0.325694 0.06708,-0.257432 0.06267,-0.614619 -0.0098,-0.79375 -0.07248,-0.179131 -0.127362,0.03149 -0.12197,0.468056 z m 10.928628,-0.132292 c -0.257011,0.415854 0.108305,0.79574 0.74322,0.772861 0.318833,-0.01148 0.430869,-0.08094 0.248968,-0.154339 -0.574705,-0.231899 -0.358212,-0.618522 0.346344,-0.618522 0.384006,0 0.606293,0.114523 0.513551,0.264584 -0.09456,0.153003 0.149911,0.261035 0.579697,0.256169 0.710679,-0.008 0.720733,-0.02543 0.229629,-0.396875 -0.581834,-0.440079 -2.413301,-0.525325 -2.661409,-0.123878 z m -1.565553,1.022824 c -0.113974,0.184415 -0.135773,0.406752 -0.04844,0.494086 0.236794,0.236791 0.494974,-0.111469 0.36708,-0.495155 -0.08962,-0.268862 -0.151942,-0.268653 -0.318638,0.0011 z m -0.175128,11.280301 c -0.110868,0.702175 -0.02267,3.881097 0.111406,4.015169 0.09574,0.09574 0.174067,-0.798277 0.174067,-1.986696 0,-1.188421 -0.05953,-2.160764 -0.132292,-2.160764 -0.07276,0 -0.141692,0.05953 -0.153181,0.132291 z M 71.38208,59.607881 c 0.07549,8.339495 0.164044,9.196875 0.947695,9.175741 0.164084,-0.0044 0.08997,-0.129404 -0.164687,-0.277731 -0.425175,-0.247641 -0.463352,-0.944433 -0.467072,-8.524767 -0.0021,-4.540295 -0.09152,-8.392818 -0.198437,-8.561162 -0.106913,-0.168344 -0.159787,3.51622 -0.117499,8.187919 z m 24.395943,0.638676 c -0.07214,1.921387 -0.03804,3.39989 0.07577,3.285562 0.113816,-0.114328 0.172839,-1.686372 0.131162,-3.493431 l -0.07577,-3.285562 z m -6.431555,0.24932 c -0.345043,0.345043 -0.180311,0.622874 0.369313,0.622874 0.307909,0 0.504987,-0.138686 0.446485,-0.314193 -0.128881,-0.386647 -0.570669,-0.55381 -0.815798,-0.308681 z m 2.463932,0.755165 c 0,0.514492 1.059482,0.519629 1.735368,0.0084 0.477835,-0.361415 0.435303,-0.389046 -0.610889,-0.396875 -0.826889,-0.0062 -1.124479,0.09662 -1.124479,0.388461 z m 1.25126,0.02756 c -0.08792,0.08792 -0.316124,0.09732 -0.507119,0.02089 -0.211066,-0.08446 -0.148373,-0.147157 0.159853,-0.159852 0.278913,-0.01149 0.435184,0.05105 0.347266,0.138964 z m -12.892926,3.047545 c 0,0.467322 0.06611,0.506693 0.393962,0.234604 0.398195,-0.330474 0.313385,-0.796168 -0.144995,-0.796168 -0.136932,0 -0.248967,0.252704 -0.248967,0.561564 z M 92.60415,64.161459 c -0.363802,0.207968 -0.542395,0.378124 -0.396875,0.378124 0.145521,0 0.56224,-0.170156 0.926042,-0.378124 0.363802,-0.207968 0.542396,-0.378124 0.396875,-0.378124 -0.145521,0 -0.56224,0.170156 -0.926042,0.378124 z m 1.852084,-0.132292 c -0.218282,0.141065 -0.277813,0.256481 -0.132292,0.256481 0.145521,0 0.443177,-0.115416 0.661458,-0.256481 0.218282,-0.141064 0.277813,-0.25648 0.132292,-0.25648 -0.145521,0 -0.443177,0.115416 -0.661458,0.25648 z m -2.116667,0.926042 c -0.363802,0.207968 -0.542396,0.378124 -0.396875,0.378124 0.145521,0 0.56224,-0.170156 0.926042,-0.378124 0.363802,-0.207968 0.542395,-0.378124 0.396875,-0.378124 -0.145521,0 -0.56224,0.170156 -0.926042,0.378124 z M 90.2229,65.219792 c -0.363802,0.207968 -0.542396,0.378124 -0.396875,0.378124 0.145521,0 0.56224,-0.170156 0.926042,-0.378124 0.363802,-0.207968 0.542396,-0.378123 0.396875,-0.378123 -0.145521,0 -0.56224,0.170155 -0.926042,0.378123 z m -2.116666,0.926042 c -0.509323,0.278843 -0.80698,0.506986 -0.661459,0.506986 0.145521,0 0.681302,-0.228143 1.190625,-0.506986 0.509323,-0.278843 0.806979,-0.506986 0.661459,-0.506986 -0.145521,0 -0.681302,0.228143 -1.190625,0.506986 z m 1.852083,-0.132292 c -0.363802,0.207968 -0.542396,0.378124 -0.396875,0.378124 0.145521,0 0.56224,-0.170156 0.926042,-0.378124 0.363802,-0.207968 0.542396,-0.378123 0.396875,-0.378123 -0.145521,0 -0.56224,0.170155 -0.926042,0.378123 z m -3.96875,1.058334 c -0.363802,0.207968 -0.542396,0.378123 -0.396875,0.378123 0.145521,0 0.56224,-0.170155 0.926042,-0.378123 0.363802,-0.207968 0.542396,-0.378124 0.396875,-0.378124 -0.145521,0 -0.56224,0.170156 -0.926042,0.378124 z m 1.5875,0 c -0.363802,0.207968 -0.542396,0.378123 -0.396875,0.378123 0.145521,0 0.56224,-0.170155 0.926042,-0.378123 0.363802,-0.207968 0.542395,-0.378124 0.396875,-0.378124 -0.145521,0 -0.56224,0.170156 -0.926042,0.378124 z M 85.4604,67.997917 c -0.218281,0.141065 -0.277812,0.256481 -0.132291,0.256481 0.14552,0 0.443177,-0.115416 0.661458,-0.256481 0.218281,-0.141064 0.277813,-0.25648 0.132292,-0.25648 -0.145521,0 -0.443177,0.115416 -0.661459,0.25648 z m -2.116666,0.264584 c -0.218282,0.141064 -0.277813,0.25648 -0.132292,0.25648 0.145521,0 0.443177,-0.115416 0.661458,-0.25648 0.218282,-0.141065 0.277813,-0.256481 0.132292,-0.256481 -0.145521,0 -0.443177,0.115416 -0.661458,0.256481 z m -8.797396,0.439812 c 0.181901,0.0734 0.479557,0.0734 0.661458,0 0.181901,-0.0734 0.03307,-0.133453 -0.330729,-0.133453 -0.363802,0 -0.51263,0.06005 -0.330729,0.133453 z m 1.600729,0.142271 c 0.174625,0.174625 0.3175,0.640953 0.3175,1.036285 0,0.671216 0.07574,0.718784 1.14454,0.718784 0.629497,0 1.314106,-0.112757 1.521354,-0.250571 0.259839,-0.172787 0.149876,-0.197838 -0.354227,-0.0807 -0.434038,0.100859 -0.890881,0.03722 -1.124479,-0.156651 -0.273357,-0.226867 -0.393438,-0.235885 -0.393438,-0.02955 0,0.163339 -0.119062,0.29698 -0.264583,0.29698 -0.145521,0 -0.264584,-0.228387 -0.264584,-0.507527 0,-0.734658 -0.276876,-1.344556 -0.610391,-1.344556 -0.193474,0 -0.184105,0.105087 0.02831,0.3175 z m 7.196667,0.07937 c -0.363802,0.207968 -0.542396,0.378124 -0.396875,0.378124 0.145521,0 0.562239,-0.170156 0.926041,-0.378124 0.363802,-0.207968 0.542396,-0.378124 0.396875,-0.378124 -0.14552,0 -0.562239,0.170156 -0.926041,0.378124 z m -10.36836,0.04845 c 0.190995,0.07643 0.419198,0.06703 0.507119,-0.02089 0.08792,-0.08792 -0.06835,-0.150453 -0.347265,-0.138964 -0.308227,0.01269 -0.37092,0.07539 -0.159854,0.159852 z m 1.901693,0.45241 c 0,0.05719 0.184777,0.17489 0.410617,0.261553 0.235458,0.09035 0.341662,0.046 0.248968,-0.103984 -0.155379,-0.251408 -0.659585,-0.371858 -0.659585,-0.157569 z m 5.291667,0.292891 c -0.363802,0.207968 -0.535387,0.382343 -0.381299,0.387499 0.154088,0.0052 0.511275,-0.165431 0.79375,-0.379084 0.653251,-0.494094 0.4446,-0.498351 -0.412451,-0.0084 z M 80.6979,70.11458 c -0.218281,0.141064 -0.277812,0.25648 -0.132291,0.25648 0.14552,0 0.443177,-0.115416 0.661458,-0.25648 0.218281,-0.141064 0.277812,-0.25648 0.132292,-0.25648 -0.145521,0 -0.443177,0.115416 -0.661459,0.25648 z m -4.920324,0.79375 c 0.02186,0.566152 0.166635,0.67318 1.004832,0.742807 0.562182,0.0467 1.294699,-0.101342 1.719792,-0.34757 0.40727,-0.235906 0.502367,-0.341558 0.211325,-0.234782 -0.291041,0.106775 -1.026186,0.24469 -1.633654,0.306476 -0.991227,0.100819 -1.115938,0.04872 -1.216157,-0.508025 -0.105701,-0.587218 -0.110305,-0.585022 -0.08614,0.04109 z"
             id="path3230" />
          <path
             style="fill:#008000;stroke-width:0.264583"
             d="m 68.497201,47.264112 c -0.197583,0.238072 -0.807474,0.715817 -1.355312,1.061651 -0.547839,0.345837 -0.996072,0.727723 -0.996072,0.84864 0,0.120915 0.597974,0.724067 1.328833,1.340335 l 1.328832,1.120489 1.184709,-0.573508 c 1.097288,-0.531186 1.184709,-0.648309 1.184709,-1.587215 0,-0.915627 -0.07833,-1.030914 -0.809617,-1.19153 -0.51549,-0.11322 -0.897593,-0.40922 -1.051785,-0.814773 -0.286948,-0.754732 -0.345188,-0.769329 -0.814297,-0.204089 z m 17.057552,0.604295 c -0.45743,0.416385 -1.052742,0.882785 -1.322916,1.036447 -0.661332,0.376131 -0.288478,0.960032 1.348197,2.111324 1.2367,0.869937 1.262423,0.875464 1.63022,0.350359 0.212611,-0.30354 0.742879,-0.56915 1.230151,-0.616175 0.764141,-0.07374 0.865828,-0.181208 0.943425,-0.997016 0.09805,-1.030793 -0.42984,-1.599179 -1.485228,-1.599179 -0.413144,0 -0.684099,-0.185237 -0.774039,-0.529166 -0.187359,-0.71646 -0.58266,-0.655167 -1.56981,0.243406 z"
             id="path3232" />
          <path
             style="fill:#535353;stroke-width:0.264583"
             d="m 75.9354,30.80506 c 0,0.95567 -0.629623,1.415523 -2.208146,1.612749 -0.778095,0.09722 -1.548366,0.259355 -1.711714,0.36031 -0.452832,0.279865 -0.649142,12.593537 -0.429585,26.946095 0.147113,9.617038 -0.08382,8.733297 2.436741,9.324788 1.421037,0.333469 1.912704,0.806945 1.912704,1.841938 0,1.152024 1.554639,0.668117 10.240801,-3.187625 4.62678,-2.053801 8.666536,-3.831592 8.977242,-3.950645 0.549431,-0.210525 0.569843,-0.400095 0.744664,-6.915294 0.09886,-3.684359 0.142306,-10.746959 0.09654,-15.694667 L 95.911442,32.146876 93.3979,31.852289 C 92.015452,31.690266 89.574671,31.421581 87.973942,31.255209 86.373213,31.088836 83.43211,30.774916 81.438157,30.557606 76.293149,29.996885 75.9354,30.012971 75.9354,30.80506 Z m 8.995834,0.559938 c 2.110052,0.211158 5.141293,0.512376 6.73609,0.669366 1.5948,0.156993 3.112847,0.39955 3.373438,0.539015 0.446738,0.239088 0.473805,1.104648 0.473805,15.152216 0,14.320498 -0.01958,14.916361 -0.504566,15.355268 -0.277513,0.251145 -3.462435,1.7641 -7.077604,3.362123 -3.615171,1.598023 -7.168351,3.184219 -7.895955,3.524878 -0.727604,0.34066 -1.821953,0.624536 -2.431886,0.630836 -1.05542,0.0109 -1.112912,-0.02917 -1.190625,-0.829806 -0.07607,-0.783739 -0.166063,-0.853236 -1.316133,-1.016413 -0.678963,-0.09633 -1.571932,-0.336878 -1.984375,-0.534543 l -0.749898,-0.35939 -0.06806,-17.094242 c -0.05497,-13.805681 -0.0016,-17.1494 0.277389,-17.380945 0.19,-0.157686 1.11243,-0.381347 2.049844,-0.497025 1.626291,-0.200684 1.710685,-0.246692 1.841796,-1.004057 0.103132,-0.595738 0.28737,-0.801325 0.738574,-0.824158 0.330642,-0.01672 0.686697,-0.117925 0.791231,-0.22487 0.104534,-0.106947 0.844907,-0.117438 1.645272,-0.02331 0.800365,0.09412 3.181615,0.343901 5.291667,0.555059 z m 6.879166,4.353753 c 0,0.14552 0.231098,0.264583 0.513551,0.264583 0.282454,0 0.587137,-0.119063 0.677074,-0.264583 0.09274,-0.150061 -0.129545,-0.264584 -0.513551,-0.264584 -0.37239,0 -0.677074,0.119063 -0.677074,0.264584 z m 0.744141,25.58074 c 0.190995,0.07643 0.419198,0.06703 0.507119,-0.02089 0.08792,-0.08792 -0.06835,-0.150453 -0.347266,-0.138964 -0.308226,0.0127 -0.370919,0.07539 -0.159853,0.159852 z"
             id="path3234" />
        </g>
      </g>
    </g>
  </g>
</svg>
