<?xml version="1.0" encoding="UTF-8" standalone="no"?>
<svg
   xmlns:dc="http://purl.org/dc/elements/1.1/"
   xmlns:cc="http://creativecommons.org/ns#"
   xmlns:rdf="http://www.w3.org/1999/02/22-rdf-syntax-ns#"
   xmlns:svg="http://www.w3.org/2000/svg"
   xmlns="http://www.w3.org/2000/svg"
   xmlns:sodipodi="http://sodipodi.sourceforge.net/DTD/sodipodi-0.dtd"
   xmlns:inkscape="http://www.inkscape.org/namespaces/inkscape"
   sodipodi:docname="detail3.svg"
   inkscape:version="1.0 (4035a4fb49, 2020-05-01)"
   id="svg88"
   version="1.1"
   viewBox="0 0 132.29166 132.29167"
   height="500"
   width="500">
  <defs
     id="defs82" />
  <sodipodi:namedview
     units="px"
     inkscape:window-maximized="0"
     inkscape:window-y="0"
     inkscape:window-x="192"
     inkscape:window-height="1030"
     inkscape:window-width="1635"
     showgrid="false"
     inkscape:document-rotation="0"
     inkscape:current-layer="layer1"
     inkscape:document-units="mm"
     inkscape:cy="554.24624"
     inkscape:cx="710.75576"
     inkscape:zoom="0.24748737"
     inkscape:pageshadow="2"
     inkscape:pageopacity="0.0"
     borderopacity="1.0"
     bordercolor="#666666"
     pagecolor="#ffffff"
     id="base" />
  <metadata
     id="metadata85">
    <rdf:RDF>
      <cc:Work
         rdf:about="">
        <dc:format>image/svg+xml</dc:format>
        <dc:type
           rdf:resource="http://purl.org/dc/dcmitype/StillImage" />
        <dc:title></dc:title>
      </cc:Work>
    </rdf:RDF>
  </metadata>
  <g
     id="layer1"
     inkscape:groupmode="layer"
     inkscape:label="Calque 1">
    <g
       transform="matrix(2.0833333,0,0,2.0833334,263.00843,-207.88691)"
       id="g104">
      <path
         id="path120"
         d="M -126.24405,131.53571 V 99.785713 h 31.75 31.75 v 31.749997 31.75 h -31.75 -31.75 z m 12.5394,29.4794 c 0.25198,-0.65664 0.17971,-58.40834 -0.0736,-58.80803 -0.12435,-0.19622 -0.44995,-0.31366 -0.72356,-0.26097 -0.48284,0.093 -0.49946,0.9589 -0.56559,29.46093 -0.0375,16.15082 -0.0114,29.51396 0.0578,29.69586 0.17985,0.47219 1.11414,0.40933 1.3049,-0.0878 z m 17.358517,-6.05903 0.132291,-2.63555 1.058334,-0.2056 c 1.560459,-0.30315 7.905244,-0.93588 8.135937,-0.81135 0.109141,0.0589 0.198438,0.79988 0.198438,1.6466 0,1.02507 0.128741,1.64634 0.385286,1.85925 0.638392,0.52982 0.93763,0.0579 0.93763,-1.4786 0,-2.08386 0.280882,-2.47558 1.795246,-2.50367 0.686104,-0.0127 2.25683,-0.16327 3.490502,-0.33453 1.923683,-0.26706 2.286921,-0.39941 2.551242,-0.92959 0.453009,-0.90864 0.178327,-32.49363 -0.289083,-33.24087 -0.182052,-0.29104 -1.793478,-1.18001 -3.580951,-1.9755 -1.787469,-0.79548 -3.411272,-1.60766 -3.608451,-1.80483 -0.221413,-0.22142 -0.358505,-0.96151 -0.358505,-1.93541 0,-1.2018 -0.100758,-1.61557 -0.423576,-1.73945 -0.581208,-0.22303 -0.890474,0.36439 -0.89529,1.7005 -0.0021,0.61847 -0.109524,1.12448 -0.238439,1.12448 -0.32656,0 -8.55412,-3.70031 -8.959882,-4.02967 -0.181901,-0.14765 -0.330729,-0.71739 -0.330729,-1.26608 0,-1.61087 -1.140791,-1.60745 -1.36371,0.004 -0.0777,0.5617 -0.250601,0.6744 -1.146477,0.74732 -1.57079,0.12784 -1.72315,0.36736 -1.72315,2.70904 0,1.13776 -0.0893,2.12076 -0.19843,2.18443 -0.10914,0.0637 -1.62719,-0.47103 -3.37344,-1.18825 -3.10029,-1.27334 -4.24269,-1.54827 -4.85666,-1.16882 -0.22278,0.13768 -0.30272,5.30981 -0.30272,19.58595 0,17.23879 0.0459,19.43695 0.41208,19.74086 0.33804,0.28055 1.07631,0.26068 4.10896,-0.11062 2.03328,-0.24893 3.81237,-0.38123 3.95354,-0.29398 0.14117,0.0872 0.25667,0.76731 0.25667,1.51124 0,1.70888 0.49886,2.32033 1.893094,2.32033 h 1.017326 v 2.46944 c 0,2.5629 0.09342,2.89341 0.780849,2.76245 0.326371,-0.0622 0.436703,-0.61449 0.542068,-2.71361 z m -0.599533,-5.05809 c -0.10682,-0.10682 -0.194217,-9.10406 -0.194217,-19.99388 0,-15.70686 0.06865,-19.79965 0.332097,-19.79965 0.55015,0 16.720092,7.36803 16.818618,7.66361 0.05022,0.15064 -0.01561,0.27389 -0.146286,0.27389 -0.130672,0 -3.502356,-1.19062 -7.492629,-2.64583 -3.990277,-1.45521 -7.401441,-2.64583 -7.580366,-2.64583 -0.814046,0 -0.873101,1.17797 -0.873101,17.41579 0,15.21916 0.03314,16.43285 0.463021,16.95956 l 0.463021,0.56732 5.953125,-0.39209 c 9.924883,-0.65369 9.392708,-0.65896 9.392708,0.093 0,0.9315 0.424926,0.85645 -11.355319,2.00569 -2.170842,0.21178 -4.315865,0.45426 -4.76672,0.53884 -0.450855,0.0846 -0.907132,0.0664 -1.013952,-0.0404 z m -9.785364,-2.63702 c -0.27248,-0.27879 -0.25253,-35.50434 0.0202,-35.6729 0.23083,-0.14266 5.23521,1.8271 5.80063,2.28317 0.1819,0.14672 0.33073,0.43881 0.33073,0.64907 0,0.41737 0.0641,0.42778 -2.84039,-0.46142 -1.54967,-0.47443 -1.99009,-0.52321 -2.31196,-0.25609 -0.34869,0.28939 -0.37939,2.27127 -0.24954,16.10905 0.0814,8.67849 0.19368,15.92352 0.24941,16.10007 0.0681,0.21575 0.95115,0.34589 2.69305,0.39688 2.22117,0.065 2.494,0.11982 1.90821,0.38329 -0.83439,0.37528 -5.32441,0.7512 -5.60034,0.46888 z m 15.808855,-4.34817 c -0.08994,-0.14552 -0.03743,-0.26459 0.116676,-0.26459 0.154109,0 0.280199,0.11907 0.280199,0.26459 0,0.14552 -0.0525,0.26458 -0.116676,0.26458 -0.06417,0 -0.190262,-0.11906 -0.280199,-0.26458 z m -1.719792,-25.44458 c -0.509323,-0.14379 -1.039151,-0.37117 -1.177396,-0.5053 -0.396536,-0.38473 0.118243,-0.29542 1.574271,0.27313 1.39354,0.54415 1.170464,0.67465 -0.396875,0.23217 z m 18.467917,34.65208 c 0.241083,-0.24109 0.3175,-4.91645 0.3175,-19.42524 0,-10.50925 -0.07227,-19.29607 -0.160599,-19.52625 -0.190008,-0.49516 -0.925751,-0.54925 -1.373984,-0.10101 -0.419889,0.41989 -0.462148,38.07617 -0.04361,38.85822 0.312097,0.58316 0.797073,0.6579 1.260692,0.19428 z"
         style="fill:#fcfcfc;stroke-width:0.264583" />
      <path
         id="path118"
         d="m -115.03252,161.04548 c -0.0819,-0.21348 -0.0876,-0.5409 -0.0126,-0.7276 0.075,-0.1867 0.14576,-0.0628 0.15725,0.27525 0.0149,0.43757 0.15432,0.58902 0.4839,0.52555 0.43766,-0.0843 0.46302,-1.6977 0.46302,-29.45068 0,-27.23669 -0.032,-29.36767 -0.44259,-29.44673 -0.27325,-0.0526 -0.48918,0.1247 -0.56437,0.46345 -0.10819,0.48747 -0.11785,0.48212 -0.0866,-0.048 0.0404,-0.68408 0.90711,-0.98054 1.25622,-0.42966 0.2533,0.39969 0.32557,58.15139 0.0736,58.80803 -0.20213,0.52675 -1.12926,0.54795 -1.32787,0.0304 z m 17.549006,-3.48326 c -0.102044,-0.10204 -0.185536,-1.29678 -0.185536,-2.65498 v -2.46944 h -1.017326 c -1.394234,0 -1.893094,-0.61145 -1.893094,-2.32033 0,-0.74393 -0.1155,-1.42399 -0.25667,-1.51124 -0.14117,-0.0873 -1.92026,0.0451 -3.95354,0.29398 -3.03265,0.3713 -3.77092,0.39117 -4.10896,0.11062 -0.36619,-0.30391 -0.41208,-2.50207 -0.41208,-19.74086 0,-14.27614 0.0799,-19.44827 0.30272,-19.58595 0.61397,-0.37945 1.75637,-0.10452 4.85666,1.16882 1.74625,0.71722 3.2643,1.25193 3.37344,1.18825 0.10914,-0.0637 0.19843,-1.04667 0.19843,-2.18443 0,-2.34168 0.15236,-2.5812 1.72315,-2.70904 0.895876,-0.0729 1.068776,-0.18562 1.146477,-0.74732 0.222919,-1.61154 1.36371,-1.61496 1.36371,-0.004 0,0.54869 0.148828,1.11843 0.330729,1.26608 0.405762,0.32936 8.633322,4.02967 8.959882,4.02967 0.128915,0 0.236212,-0.50601 0.238439,-1.12448 0.0048,-1.33611 0.314082,-1.92353 0.89529,-1.7005 0.320077,0.12283 0.424566,0.53631 0.427627,1.6922 0.0021,0.84131 0.09647,1.67511 0.209415,1.85288 0.112951,0.17778 1.688706,0.98982 3.501679,1.80455 1.812972,0.81472 3.504673,1.72426 3.759335,2.02119 0.426397,0.49717 0.458258,1.36945 0.402801,11.02774 l -0.06022,10.48788 -0.138221,-10.66826 c -0.133464,-10.30134 -0.156366,-10.67899 -0.665901,-10.98021 -0.290224,-0.17157 -1.885852,-0.93743 -3.54584,-1.7019 -1.659988,-0.76448 -3.178704,-1.5232 -3.374922,-1.68604 -0.217464,-0.18048 -0.356764,-0.84554 -0.356764,-1.70329 0,-0.77396 -0.119062,-1.48078 -0.264583,-1.57072 -0.161711,-0.0999 -0.264584,0.30871 -0.264584,1.05103 0,0.86043 -0.121311,1.26109 -0.416081,1.37421 -0.236209,0.0906 -2.438021,-0.74785 -5.093229,-1.93959 -4.668687,-2.09545 -4.677301,-2.1009 -4.762159,-3.01224 -0.121422,-1.30408 -0.501229,-1.54275 -0.773363,-0.48599 -0.216078,0.83908 -0.313675,0.90431 -1.538254,1.02821 l -1.307533,0.13229 -0.0766,2.32743 c -0.0516,1.56674 -0.1855,2.36921 -0.40973,2.45526 -0.18321,0.0703 -1.84624,-0.4792 -3.69562,-1.2211 -1.84938,-0.74191 -3.62953,-1.311 -3.95589,-1.26463 l -0.59338,0.0843 -0.0679,19.25433 -0.0679,19.25433 0.59704,0.22265 c 0.35524,0.13248 1.6686,0.0729 3.24287,-0.14714 1.45521,-0.20338 3.12209,-0.33599 3.70417,-0.29468 l 1.05833,0.0751 0.0761,1.5875 c 0.0882,1.83812 0.444187,2.24896 1.948866,2.24896 h 0.997836 l 0.07607,2.426 c 0.05042,1.6077 0.184322,2.46185 0.396997,2.53232 0.233627,0.0774 0.341582,-0.59898 0.396875,-2.48656 l 0.07595,-2.59289 1.190625,-0.19857 c 3.148581,-0.52509 8.350964,-0.93165 8.665104,-0.67717 0.190368,0.15421 0.330729,0.87176 0.330729,1.69073 0,0.78254 0.119063,1.42281 0.264584,1.42281 0.146817,0 0.264583,-0.70245 0.264583,-1.57819 0,-1.80073 0.30634,-2.12192 2.033127,-2.13169 1.380485,-0.008 5.596491,-0.65672 5.839484,-0.89878 0.10845,-0.10804 0.263877,-2.06208 0.345395,-4.34232 l 0.148214,-4.1459 0.04632,3.83646 c 0.061,5.05248 0.05825,5.05773 -2.862213,5.46317 -1.233672,0.17126 -2.804398,0.3218 -3.490502,0.33453 -1.514364,0.0281 -1.795246,0.41981 -1.795246,2.50367 0,1.53653 -0.299238,2.00842 -0.93763,1.4786 -0.256545,-0.21291 -0.385286,-0.83418 -0.385286,-1.85925 0,-0.84672 -0.0893,-1.58769 -0.198438,-1.6466 -0.230693,-0.12453 -6.575478,0.5082 -8.135937,0.81135 l -1.058334,0.2056 -0.132291,2.63555 c -0.105365,2.09912 -0.215697,2.65143 -0.542068,2.71361 -0.225377,0.0429 -0.493268,-0.005 -0.595313,-0.10747 z m 22.048772,-5.6362 c -0.418539,-0.78205 -0.37628,-38.43833 0.04361,-38.85822 0.448233,-0.44824 1.183976,-0.39415 1.373984,0.10101 0.08833,0.23018 0.160599,9.017 0.160599,19.52625 0,14.50879 -0.07642,19.18415 -0.3175,19.42524 -0.463619,0.46362 -0.948595,0.38888 -1.260693,-0.19428 z m 1.313609,-19.36858 c 0,-17.44727 -0.04056,-19.31015 -0.423577,-19.45713 -0.232968,-0.0894 -0.528802,0.004 -0.657408,0.20674 -0.363603,0.57424 -0.310049,38.16305 0.05489,38.52799 0.163254,0.16325 0.46091,0.23386 0.661459,0.1569 0.305176,-0.11711 0.364633,-3.28607 0.364633,-19.4345 z m -23.106944,17.5873 c -0.253087,-0.25308 -0.218757,-40.24745 0.03468,-40.40408 0.116088,-0.0718 0.383979,-0.0211 0.595312,0.11263 0.318741,0.20163 0.305313,0.24376 -0.07878,0.24712 -0.436817,0.004 -0.463021,1.1263 -0.463021,19.83466 0,18.60716 0.02857,19.84724 0.463021,20.10028 0.392136,0.2284 0.398888,0.27092 0.0441,0.27773 -0.23041,0.004 -0.498301,-0.0713 -0.595312,-0.16834 z m 2.469444,-0.35437 c 1.211553,-0.2277 3.618179,-0.34364 3.417535,-0.16464 -0.06063,0.0541 -1.122275,0.16361 -2.359202,0.24337 -1.634075,0.10538 -1.923431,0.0838 -1.058333,-0.0787 z m 4.303117,-0.45285 c 0.402182,-0.0608 0.997495,-0.0592 1.322917,0.004 0.325421,0.0628 -0.0036,0.11256 -0.731243,0.11057 -0.727604,-0.002 -0.993857,-0.0534 -0.591674,-0.11418 z m 2.777572,-0.26185 c 0.329118,-0.0633 0.805368,-0.0609 1.058333,0.005 0.252966,0.0662 -0.01632,0.11801 -0.598397,0.11507 -0.582084,-0.003 -0.789054,-0.0571 -0.459936,-0.12041 z m 2.245873,-0.26696 c 0.400182,-0.0606 1.055026,-0.0606 1.455208,0 0.400183,0.0606 0.07276,0.11022 -0.727604,0.11022 -0.800364,0 -1.127786,-0.0496 -0.727604,-0.11022 z m 2.78121,-0.26221 c 0.329118,-0.0633 0.805368,-0.0609 1.058334,0.005 0.252965,0.0662 -0.01632,0.118 -0.598398,0.11506 -0.582083,-0.003 -0.789054,-0.0571 -0.459936,-0.1204 z m 2.179728,-0.30207 c 0.47267,-0.14014 0.661458,-0.3815 0.661458,-0.84564 0,-0.75779 0.540652,-0.75215 -9.392708,-0.0979 l -5.953125,0.39209 -0.463021,-0.56732 c -0.429885,-0.52671 -0.463021,-1.7404 -0.463021,-16.95956 0,-16.20805 0.06004,-17.41579 0.865764,-17.41579 0.457722,0 10.788775,3.77949 10.666175,3.90209 -0.05637,0.0564 -2.447552,-0.744 -5.313744,-1.77858 -4.093003,-1.47742 -5.29091,-1.81496 -5.582436,-1.57302 -0.311245,0.25831 -0.371176,2.96981 -0.371176,16.79321 0,14.47826 0.04952,16.53468 0.406731,16.8919 0.32375,0.32374 0.823079,0.37706 2.447396,0.26132 1.122365,-0.08 4.362384,-0.30421 7.20004,-0.4983 2.837656,-0.19409 5.3975,-0.39248 5.688542,-0.44087 0.455633,-0.0757 0.529166,0.0591 0.529166,0.97037 0,0.98801 -0.05275,1.06178 -0.79375,1.11023 -0.73928,0.0483 -0.748358,0.0384 -0.132291,-0.14422 z m -26.392187,-0.47428 c -0.42428,-0.17826 -0.49017,-36.47758 -0.0667,-36.73931 0.14522,-0.0897 0.59171,0.0203 0.99219,0.2446 0.40048,0.22429 1.68064,0.77735 2.84481,1.22902 2.43131,0.94331 2.77813,1.17726 2.77813,1.87404 0,0.79957 -0.55726,0.82174 -2.79469,0.11123 -1.33253,-0.42316 -2.18271,-0.57204 -2.34423,-0.41052 -0.27268,0.27268 -0.242,31.38554 0.0314,31.82789 0.0886,0.14337 1.16241,0.1924 2.51929,0.11504 1.86886,-0.10656 2.39449,-0.0576 2.50615,0.23336 0.28902,0.75318 -0.44688,1.09266 -2.76909,1.27744 -1.26951,0.10101 -2.54632,0.22697 -2.83736,0.27991 -0.29105,0.0529 -0.678,0.0337 -0.8599,-0.0427 z m 5.73263,-0.97806 c 0.58579,-0.26347 0.31296,-0.31827 -1.90821,-0.38329 -1.7419,-0.051 -2.62495,-0.18113 -2.69305,-0.39688 -0.0557,-0.17655 -0.16796,-7.42158 -0.2494,-16.10007 -0.12986,-13.83778 -0.0992,-15.81966 0.24953,-16.10905 0.32187,-0.26712 0.76229,-0.21834 2.31196,0.25609 2.90451,0.8892 2.84039,0.87879 2.84039,0.46142 0,-0.21026 -0.14882,-0.50235 -0.33073,-0.64907 -0.56542,-0.45607 -5.5698,-2.42583 -5.80063,-2.28317 -0.27273,0.16856 -0.29268,35.39411 -0.0202,35.6729 0.27593,0.28232 4.76595,-0.0936 5.60034,-0.46888 z m -3.38689,-2.63157 c -0.37323,-0.37323 -0.4141,-10.9326 -0.0432,-11.16183 0.13861,-0.0857 0.79627,0.25968 1.46146,0.76743 1.24386,0.94946 1.9907,1.00129 1.9907,0.13815 0,-0.26688 0.11906,-0.55883 0.26458,-0.64877 0.17312,-0.10699 0.26458,1.71982 0.26458,5.28436 0,4.12749 -0.0802,5.47261 -0.33073,5.54992 -0.93904,0.28976 -3.34126,0.33686 -3.60738,0.0707 z m 19.54853,-4.64321 c 0,-2.74064 0.07834,-5.06133 0.174093,-5.15708 0.09575,-0.0958 0.333878,-0.0415 0.529167,0.12059 0.273471,0.22696 0.355073,1.41215 0.355073,5.15708 0,4.68601 -0.01919,4.8624 -0.529166,4.8624 -0.510435,0 -0.529167,-0.17639 -0.529167,-4.98299 z m 2.028473,4.8066 c -0.09701,-0.097 -0.17639,-2.65686 -0.17639,-5.68855 0,-4.7233 0.0568,-5.51215 0.396875,-5.51215 0.340471,0 0.396875,0.80845 0.396875,5.68854 0,5.1938 -0.09424,6.03527 -0.61736,5.51216 z m -11.281116,-0.94809 c 0.0043,-0.1819 -0.05879,-5.64957 -0.140147,-12.15037 -0.08657,-6.91788 -0.04892,-11.88081 0.09079,-11.96716 0.131289,-0.0811 1.150659,0.12365 2.26527,0.45509 l 2.026562,0.60261 0.05769,11.56006 c 0.04702,9.42296 -0.0075,11.58507 -0.29468,11.69528 -0.193802,0.0744 -1.176068,0.13522 -2.182813,0.13522 -1.292111,0 -1.828157,-0.0973 -1.822669,-0.33073 z m 3.696393,-0.46302 c 0,-0.14552 -0.12609,-0.26459 -0.280199,-0.26459 -0.154109,0 -0.206613,0.11907 -0.116676,0.26459 0.08994,0.14552 0.216027,0.26458 0.280199,0.26458 0.06417,0 0.116676,-0.11906 0.116676,-0.26458 z m -14.2875,-20.10834 c 0,-5.11583 0.0749,-6.61435 0.33073,-6.61355 0.1819,5.6e-4 1.10463,0.2197 2.05052,0.48695 l 1.71979,0.48591 0.0713,5.73076 c 0.0646,5.19481 -0.0826,6.58794 -0.56386,5.33389 -0.23409,-0.61003 -0.91965,-0.4754 -2.02099,0.39688 -0.55121,0.43656 -1.13389,0.79375 -1.29485,0.79375 -0.20601,0 -0.29265,-1.95828 -0.29265,-6.61459 z m 21.872223,5.90903 c -0.285377,-0.28538 -0.20897,-9.08403 0.07889,-9.08403 0.590526,0 0.726739,1.15465 0.600842,5.09323 -0.124034,3.88032 -0.220985,4.44954 -0.679728,3.9908 z m -1.846572,-0.78824 c -0.100047,-0.10004 -0.181901,-1.81435 -0.181901,-3.80957 0,-2.58277 -0.09526,-3.70489 -0.330729,-3.89576 -0.181901,-0.14745 -2.176198,-0.83302 -4.431771,-1.52349 -4.201567,-1.28618 -5.110951,-1.73477 -4.584348,-2.26137 0.392888,-0.39289 9.784879,3.32348 10.15719,4.01916 0.354203,0.66183 0.205962,7.43632 -0.16542,7.55961 -0.154617,0.0513 -0.362977,0.0115 -0.463021,-0.0886 z m -7.457943,-10.6892 c -1.456028,-0.56855 -1.970807,-0.65786 -1.574271,-0.27313 0.273405,0.26526 1.862117,0.75975 2.500313,0.77822 0.218281,0.006 -0.198438,-0.22097 -0.926042,-0.50509 z m 10.120096,0.46769 c -1.127906,-0.44433 -2.006269,-0.85234 -1.951919,-0.90669 0.05435,-0.0543 0.90206,0.20352 1.883802,0.57305 2.079948,0.78289 2.363589,0.81735 2.150192,0.26125 -0.09035,-0.23546 -0.046,-0.34167 0.103984,-0.24897 0.303263,0.18742 0.358584,1.2033 0.06312,1.15899 -0.10914,-0.0164 -1.12127,-0.3933 -2.249175,-0.83763 z m -1.124262,-1.64292 c -1.309688,-0.63227 -2.262188,-1.15104 -2.116667,-1.15282 0.145521,-0.002 1.336146,0.51408 2.645833,1.14635 1.309688,0.63228 2.262188,1.15105 2.116667,1.15283 -0.145521,0.002 -1.336146,-0.51408 -2.645833,-1.14636 z m -3.836459,-1.72302 c -0.509323,-0.27885 -0.806979,-0.50699 -0.661458,-0.50699 0.145521,0 0.681302,0.22814 1.190625,0.50699 0.509323,0.27884 0.806979,0.50698 0.661458,0.50698 -0.145521,0 -0.681302,-0.22814 -1.190625,-0.50698 z m -2.645833,-1.19063 c -0.654844,-0.35065 -1.071562,-0.63755 -0.926042,-0.63755 0.145521,0 0.800365,0.2869 1.455209,0.63755 0.654843,0.35065 1.071562,0.63755 0.926041,0.63755 -0.145521,0 -0.800364,-0.2869 -1.455208,-0.63755 z m -2.645833,-1.19062 c -0.509323,-0.27885 -0.806979,-0.50699 -0.661459,-0.50699 0.145521,0 0.681302,0.22814 1.190625,0.50699 0.509323,0.27884 0.80698,0.50698 0.661459,0.50698 -0.145521,0 -0.681302,-0.22814 -1.190625,-0.50698 z m -2.645834,-1.19063 c -0.654843,-0.35065 -1.071562,-0.63755 -0.926041,-0.63755 0.145521,0 0.800364,0.2869 1.455208,0.63755 0.654844,0.35065 1.071562,0.63755 0.926042,0.63755 -0.145521,0 -0.800365,-0.2869 -1.455209,-0.63755 z"
         style="fill:#e8e8e8;stroke-width:0.264583" />
      <path
         id="path116"
         d="m -114.86697,160.93217 c 0,-0.15163 0.1786,-0.20715 0.39688,-0.12339 0.3513,0.13481 0.39687,-3.21119 0.39687,-29.14078 0,-25.92958 -0.0456,-29.27558 -0.39687,-29.14077 -0.21828,0.0838 -0.39688,0.0282 -0.39688,-0.12339 0,-0.15162 0.20836,-0.23555 0.46302,-0.18651 0.43766,0.0843 0.46302,1.6977 0.46302,29.45067 0,27.75298 -0.0254,29.36639 -0.46302,29.45068 -0.25466,0.049 -0.46302,-0.0349 -0.46302,-0.18651 z m -0.13696,-29.26417 c 1e-5,-15.71625 0.0319,-22.10672 0.0708,-14.20106 0.0389,7.90566 0.0389,20.76441 -2e-5,28.575 -0.0389,7.81059 -0.0708,1.34231 -0.0708,-14.37394 z m 17.775853,25.35591 c -0.09701,-0.097 -0.17639,-1.22126 -0.17639,-2.49833 v -2.32194 l -0.992187,-0.10375 c -0.846344,-0.0885 -0.797727,-0.109 0.330729,-0.13943 0.727604,-0.0196 1.799167,-0.0913 2.38125,-0.15935 0.954463,-0.11154 0.967446,-0.10584 0.132292,0.0581 l -0.926042,0.18174 -0.07573,2.57969 c -0.06988,2.38064 -0.207135,2.87009 -0.673926,2.4033 z m 10.93611,-4.13632 c 0,-0.77126 -0.142875,-1.54517 -0.3175,-1.71979 -0.246943,-0.24695 -0.232246,-0.31831 0.06615,-0.32112 0.211005,-0.002 0.681302,-0.0697 1.045104,-0.15049 0.564555,-0.12537 0.593625,-0.10353 0.198438,0.14905 -0.355939,0.22749 -0.463021,0.66003 -0.463021,1.87029 0,0.87318 -0.117837,1.57435 -0.264583,1.57435 -0.145521,0 -0.264584,-0.63103 -0.264584,-1.40229 z m 11.144742,-1.05255 c -0.364942,-0.36494 -0.418496,-37.95375 -0.05489,-38.52799 0.128606,-0.2031 0.42444,-0.29614 0.657408,-0.20674 0.383021,0.14698 0.423577,2.00986 0.423577,19.45713 0,16.14843 -0.05946,19.31739 -0.364633,19.4345 -0.200549,0.077 -0.498205,0.006 -0.661459,-0.1569 z m 0.761508,-19.39533 c 0,-15.24587 -0.06817,-19.18162 -0.330729,-19.09412 -0.259667,0.0865 -0.345315,4.21283 -0.398616,19.20434 -0.05995,16.86324 -0.02131,19.09412 0.330729,19.09412 0.351438,0 0.398616,-2.27296 0.398616,-19.20434 z m -25.837863,19.06063 c -0.0862,-0.22455 -0.0976,-0.4674 -0.0253,-0.53966 0.0722,-0.0722 0.19488,0.11147 0.272498,0.40829 0.164875,0.63048 -0.01831,0.72784 -0.247198,0.13137 z m 6.329878,-0.0396 c 0.257431,-0.0671 0.614619,-0.0627 0.79375,0.01 0.17913,0.0725 -0.03149,0.12736 -0.468056,0.12197 -0.436563,-0.005 -0.583126,-0.0647 -0.325694,-0.13177 z m 2.511591,-0.26836 c 0.329118,-0.0633 0.805368,-0.0609 1.058334,0.005 0.252965,0.0662 -0.01632,0.118 -0.598398,0.11507 -0.582083,-0.003 -0.789054,-0.0571 -0.459936,-0.12041 z m 2.113582,-0.26417 c 0.327422,-0.0631 0.863203,-0.0631 1.190625,0 0.327422,0.0631 0.05953,0.11466 -0.595313,0.11466 -0.654843,0 -0.922734,-0.0516 -0.595312,-0.11466 z m 5.427596,-0.53231 c 0.402183,-0.0608 0.997495,-0.0592 1.322917,0.004 0.325421,0.0628 -0.0036,0.11256 -0.731242,0.11058 -0.727604,-0.002 -0.993857,-0.0534 -0.591675,-0.11419 z m -13.651727,-0.25111 c -0.244973,-0.24497 -0.223057,-40.56944 0.02205,-40.56944 0.109141,0 0.198438,9.16781 0.198438,20.37291 0,11.20511 -0.0099,20.37292 -0.02204,20.37292 -0.01212,0 -0.101425,-0.0794 -0.198437,-0.17639 z m 1.612633,-0.0107 c 0.329117,-0.0633 0.805367,-0.0609 1.058333,0.005 0.252965,0.0662 -0.01633,0.11801 -0.598398,0.11507 -0.582083,-0.003 -0.789053,-0.0571 -0.459935,-0.12041 z m 14.686325,0.004 c 0.257431,-0.0671 0.614619,-0.0627 0.79375,0.01 0.17913,0.0725 -0.03149,0.12736 -0.468056,0.12197 -0.436563,-0.005 -0.583126,-0.0647 -0.325694,-0.13178 z m -12.308161,-0.26796 c 0.327422,-0.0631 0.863204,-0.0631 1.190625,0 0.327422,0.0631 0.05953,0.11466 -0.595312,0.11466 -0.654844,0 -0.922734,-0.0516 -0.595313,-0.11466 z m 15.030265,-0.18852 c 0.282245,-0.20638 0.569444,-0.31897 0.63822,-0.25019 0.145616,0.14561 -0.536665,0.61544 -0.902388,0.62139 -0.136953,0.002 -0.01807,-0.16481 0.264168,-0.3712 z m -12.381346,-0.0765 c 0.329118,-0.0633 0.805368,-0.0609 1.058333,0.005 0.252966,0.0662 -0.01632,0.118 -0.598397,0.11507 -0.582084,-0.003 -0.789054,-0.0571 -0.459936,-0.12041 z m 2.642748,-0.26417 c 0.327422,-0.0631 0.863203,-0.0631 1.190625,0 0.327422,0.0631 0.05953,0.11466 -0.595312,0.11466 -0.654844,0 -0.922735,-0.0516 -0.595313,-0.11466 z m 2.384335,-0.26499 c 0.329118,-0.0633 0.805368,-0.0609 1.058334,0.005 0.252965,0.0662 -0.01632,0.11801 -0.598398,0.11507 -0.582083,-0.003 -0.789054,-0.0571 -0.459936,-0.12041 z m -22.626689,-0.35339 -0.59704,-0.23746 0.0679,-19.25633 0.0679,-19.25632 0.59338,-0.0843 c 0.32636,-0.0464 2.10651,0.52272 3.95589,1.26463 1.84938,0.7419 3.50897,1.29272 3.68797,1.22403 0.21467,-0.0824 0.31793,0.13977 0.30335,0.6526 -0.0151,0.53263 -0.11359,0.70176 -0.3126,0.53703 -0.15977,-0.13226 -1.24299,-0.61003 -2.40716,-1.06171 -1.16417,-0.45167 -2.44433,-1.00473 -2.84481,-1.22902 -0.40048,-0.22428 -0.84697,-0.33435 -0.99219,-0.2446 -0.17153,0.10601 -0.26404,6.54434 -0.26404,18.37551 0,14.59399 0.0676,18.23826 0.34012,18.34285 0.49985,0.19181 5.535,-0.31987 6.07603,-0.61746 0.39198,-0.2156 0.46302,-0.13959 0.46302,0.49549 0,0.68503 -0.0698,0.73993 -0.80343,0.63225 -0.69772,-0.1024 -5.21492,0.32721 -6.34032,0.603 -0.21828,0.0535 -0.66555,-0.01 -0.99392,-0.1402 z m 1.12621,-38.08865 c 0.0899,-0.14552 -0.0291,-0.26458 -0.26459,-0.26458 -0.23545,0 -0.35452,0.11906 -0.26458,0.26458 0.0899,0.14552 0.209,0.26458 0.26458,0.26458 0.0556,0 0.17465,-0.11906 0.26459,-0.26458 z m 24.275519,38.1822 c 0.254662,-0.0666 0.67138,-0.0666 0.926042,0 0.254661,0.0666 0.0463,0.121 -0.463021,0.121 -0.509323,0 -0.717682,-0.0544 -0.463021,-0.121 z m 5.338271,-5.50616 c 1.98e-4,-3.20146 0.0384,-4.47478 0.0849,-2.82961 0.04649,1.64518 0.04633,4.26456 -2.65e-4,5.82084 -0.0467,1.55628 -0.08474,0.21023 -0.08454,-2.99123 z m -3.552333,5.32062 c 0,-0.0568 0.408366,-0.15103 0.907481,-0.20929 0.499115,-0.0583 0.849278,-0.0118 0.778137,0.10334 -0.128037,0.20717 -1.685618,0.30507 -1.685618,0.10595 z m -14.136309,-1.63535 c -0.369068,-0.36907 -0.415775,-2.26534 -0.415775,-16.88042 0,-16.62929 0.02606,-17.11728 0.912813,-17.09159 0.152797,0.004 0.06945,0.1294 -0.185209,0.27773 -0.433136,0.25227 -0.46302,1.33409 -0.46302,16.7606 0,17.62812 -0.05597,16.90226 1.322916,17.15578 l 0.661459,0.12161 -0.708705,0.036 c -0.38979,0.0198 -0.895805,-0.15106 -1.124479,-0.37974 z m 3.354538,-0.0416 c 0.545703,-0.0571 1.438672,-0.0571 1.984375,0 0.545703,0.0571 0.09922,0.10378 -0.992188,0.10378 -1.091406,0 -1.53789,-0.0467 -0.992187,-0.10378 z m 4.095141,-0.2628 c 0.469697,-0.0584 1.303134,-0.0594 1.852084,-0.002 0.548947,0.0573 0.16465,0.1051 -0.853996,0.10627 -1.018646,0.001 -1.467787,-0.0457 -0.998088,-0.10413 z m 4.497917,-0.26458 c 0.469696,-0.0584 1.303134,-0.0594 1.852083,-0.002 0.548947,0.0573 0.16465,0.1051 -0.853995,0.10627 -1.018646,0.001 -1.467787,-0.0457 -0.998088,-0.10414 z m 3.250827,-0.44783 c 0.163002,-0.163 0.278871,-5.177 0.308988,-13.3709 0.03454,-9.39887 0.09908,-11.87428 0.227981,-8.74448 0.09889,2.40109 0.196265,8.418 0.216398,13.3709 0.03585,8.81959 0.02577,9.00529 -0.488784,9.00529 -0.345183,0 -0.435933,-0.0895 -0.264583,-0.26081 z m -25.207211,-0.0466 c -0.10811,-0.10812 -0.19475,-3.36165 -0.19252,-7.23008 0.002,-4.29916 0.0971,-6.88646 0.24343,-6.65525 0.13165,0.20804 0.42666,0.40574 0.65558,0.43934 0.22891,0.0336 0.88064,0.42893 1.44829,0.87852 1.22208,0.9679 1.81387,1.03685 1.92973,0.22482 0.0465,-0.32594 0.2929,-0.63232 0.54757,-0.68086 0.42932,-0.0818 0.46302,0.32478 0.46302,5.58729 0,4.68993 -0.0681,5.73203 -0.39187,6.00077 -0.26235,0.21773 -1.09645,0.29323 -2.5236,0.22842 -2.01055,-0.0913 -2.12739,-0.0666 -2.05552,0.43478 0.0696,0.48555 0.2744,0.53158 2.36493,0.53158 3.07376,0 3.166553,0.24302 0.13399,0.35091 -1.33455,0.0475 -2.51491,-0.002 -2.62303,-0.11024 z m 4.49978,-1.84181 c 0.25058,-0.0773 0.33073,-1.42243 0.33073,-5.54992 0,-3.56454 -0.0915,-5.39135 -0.26458,-5.28436 -0.14552,0.0899 -0.26458,0.38189 -0.26458,0.64877 0,0.86314 -0.74684,0.81131 -1.9907,-0.13815 -0.66519,-0.50775 -1.32285,-0.85309 -1.46146,-0.76743 -0.37089,0.22923 -0.33002,10.7886 0.0432,11.16183 0.26612,0.26612 2.66834,0.21902 3.60738,-0.0707 z m 12.432182,0.75657 c -0.256444,-0.0668 -0.400402,-0.22808 -0.319907,-0.35832 0.256905,-0.41568 -1.167088,-0.58794 -3.312891,-0.40076 -1.911448,0.16673 -2.105466,0.13829 -2.365044,-0.34673 -0.435353,-0.81347 -0.389657,-24.48818 0.04796,-24.84549 0.229984,-0.18778 0.814303,-0.11826 1.918229,0.22824 2.202492,0.69132 4.001587,0.99574 4.406336,0.74559 0.396502,-0.24505 0.665578,-0.13257 -3.17373,-1.32665 -3.224191,-1.00277 -3.811158,-1.42237 -3.243429,-2.31862 0.186531,-0.29446 0.948825,-0.11363 4.030845,0.95619 4.518988,1.56863 6.571941,2.18508 7.276878,2.18508 0.566171,0 1.158862,0.47205 1.146096,0.91281 -0.0044,0.1528 -0.129403,0.0695 -0.277731,-0.18521 -0.64744,-1.11159 -0.783021,-0.33553 -0.712658,4.07925 0.05332,3.34579 0.15951,4.57124 0.403122,4.65226 0.251209,0.0835 0.344485,-0.70643 0.387938,-3.2855 l 0.05721,-3.39549 0.08358,3.28557 c 0.04597,1.80706 -0.01939,3.38854 -0.145259,3.5144 -0.319436,0.31944 -1.111075,-0.0299 -1.111075,-0.49026 0,-0.29163 -0.216408,-0.33996 -0.926042,-0.20683 l -0.926041,0.17372 v -3.85028 c 0,-2.55227 -0.09972,-3.91192 -0.295791,-4.0331 -0.162685,-0.10055 -0.703599,-0.27479 -1.202031,-0.3872 -0.724356,-0.16337 -0.849496,-0.13601 -0.623499,0.13629 0.340834,0.41068 -0.174154,0.66707 -1.339903,0.66707 h -0.77211 v 10.81552 c 0,8.33026 0.076,10.87832 0.33073,11.08882 0.181901,0.15032 0.780438,0.35735 1.330086,0.46007 0.565142,0.10561 1.115246,0.4033 1.266079,0.68513 0.325025,0.60732 0.927328,0.64929 1.145839,0.0799 0.08833,-0.23018 0.1606,-2.62468 0.1606,-5.32111 v -4.9026 l 0.906547,0.17007 c 0.802915,0.15063 0.916339,0.10106 0.992187,-0.43357 0.05571,-0.39265 0.295519,-0.63344 0.686065,-0.68887 l 0.600427,-0.0852 -0.07126,5.89804 -0.07126,5.89803 -1.719792,0.0605 c -0.945885,0.0333 -2.255573,0.11234 -2.910416,0.17566 -0.654844,0.0633 -1.400443,0.0604 -1.656885,-0.006 z m 4.567301,-5.20845 c 0,-3.74493 -0.0816,-4.93012 -0.355073,-5.15708 -0.195289,-0.16207 -0.433414,-0.21634 -0.529167,-0.12059 -0.09575,0.0958 -0.174093,2.41644 -0.174093,5.15708 0,4.8066 0.01873,4.98299 0.529167,4.98299 0.509971,0 0.529166,-0.17639 0.529166,-4.8624 z m 1.5875,-0.82615 c 0,-4.88009 -0.0564,-5.68854 -0.396875,-5.68854 -0.340077,0 -0.396875,0.78885 -0.396875,5.51215 0,3.03169 0.07937,5.59153 0.17639,5.68855 0.523116,0.52311 0.61736,-0.31836 0.61736,-5.51216 z m -7.892994,4.75958 c 0.287226,-0.11021 0.341704,-2.27232 0.29468,-11.69528 l -0.05769,-11.56006 -2.026562,-0.60261 c -1.114611,-0.33144 -2.133981,-0.53623 -2.26527,-0.45509 -0.139713,0.0863 -0.177364,5.04928 -0.09079,11.96716 0.08135,6.5008 0.14442,11.96847 0.140147,12.15037 -0.0055,0.23346 0.530558,0.33073 1.822669,0.33073 1.006745,0 1.989011,-0.0608 2.182813,-0.13522 z m 6.247048,-19.13789 c 0.04159,-1.96394 -0.0412,-3.70204 -0.189545,-3.97922 -0.372311,-0.69568 -9.764302,-4.41205 -10.15719,-4.01916 -0.526603,0.5266 0.382781,0.97519 4.584348,2.26137 2.255573,0.69047 4.24987,1.37604 4.431771,1.52349 0.235466,0.19087 0.330729,1.31299 0.330729,3.89576 0,1.99522 0.08185,3.70953 0.181901,3.80957 0.560136,0.56014 0.749276,-0.24726 0.817986,-3.49181 z m -21.762827,-1.47338 c 0.004,-5.32935 0.10682,-8.70948 0.26924,-8.8719 0.17346,-0.17346 0.97098,-0.0374 2.35318,0.40157 1.14994,0.36517 2.24917,0.60318 2.44274,0.5289 0.19357,-0.0743 0.35195,-0.0197 0.35195,0.12122 0,0.39332 -0.82761,0.30797 -2.64584,-0.27289 -2.1416,-0.68416 -2.38125,-0.67084 -2.38125,0.13229 0,0.54052 0.13304,0.665 0.72761,0.68081 0.40018,0.0106 1.50151,0.27853 2.44739,0.59531 l 1.71979,0.57597 0.0715,5.81457 c 0.0393,3.19802 0.006,5.98406 -0.0731,6.1912 -0.1144,0.2981 -0.2769,0.25226 -0.77949,-0.2199 -0.68939,-0.64764 -0.7705,-0.6272 -2.33296,0.58798 -0.54854,0.42662 -1.16359,0.71188 -1.36676,0.63392 -0.2527,-0.097 -0.43915,0.15084 -0.59015,0.78435 -0.13197,0.55371 -0.21798,-2.53593 -0.21388,-7.6834 z m 2.50669,5.66524 c 1.10134,-0.87228 1.7869,-1.00691 2.02099,-0.39688 0.48122,1.25405 0.62849,-0.13908 0.56386,-5.33389 l -0.0713,-5.73076 -1.71979,-0.48591 c -0.94589,-0.26725 -1.86862,-0.48638 -2.05052,-0.48695 -0.25579,-8e-4 -0.33073,1.49772 -0.33073,6.61355 0,4.65631 0.0866,6.61459 0.29265,6.61459 0.16096,0 0.74364,-0.35719 1.29485,-0.79375 z m 25.196012,-5.99764 c -0.03333,-3.08041 -0.129117,-5.81885 -0.212866,-6.08541 -0.138498,-0.44084 -0.126058,-0.44406 0.137597,-0.0357 0.193466,0.29969 0.264255,2.32343 0.212862,6.08542 l -0.077,5.63641 z m -2.111844,-3.78551 c -0.26897,-0.4307 -0.25727,-0.49109 0.07075,-0.36521 0.257516,0.0988 0.400206,-0.0186 0.413893,-0.34052 0.01148,-0.27023 0.07442,-0.36207 0.139848,-0.20408 0.06543,0.15799 0.02418,0.54343 -0.09163,0.85654 -0.206259,0.55757 -0.217221,0.55867 -0.532853,0.0533 z m -3.37271,-1.45665 c -0.873125,-0.34604 -1.468437,-0.63749 -1.322916,-0.64767 0.27637,-0.0193 3.093318,1.00546 3.285244,1.19517 0.247959,0.24509 -0.462918,0.0467 -1.962328,-0.5475 z m 3.042709,-0.26958 c -0.363802,-0.20797 -0.535387,-0.38234 -0.381299,-0.3875 0.154088,-0.005 0.511275,0.16543 0.79375,0.37909 0.653251,0.49409 0.4446,0.49835 -0.412451,0.008 z m -6.300391,-0.8422 c -0.62756,-0.22195 -1.094235,-0.45033 -1.037056,-0.5075 0.120717,-0.12072 2.574947,0.68506 2.574947,0.84541 0,0.16568 -0.301059,0.0995 -1.537891,-0.33791 z M -79.4128,115.793 c -0.363802,-0.20796 -0.535387,-0.38234 -0.381299,-0.38749 0.154088,-0.005 0.511276,0.16543 0.79375,0.37908 0.653251,0.49409 0.444601,0.49835 -0.412451,0.008 z m -4.233333,-0.13229 c -0.218282,-0.14106 -0.277813,-0.25648 -0.132292,-0.25648 0.145521,0 0.443177,0.11542 0.661458,0.25648 0.218282,0.14107 0.277813,0.25648 0.132292,0.25648 -0.145521,0 -0.443177,-0.11541 -0.661458,-0.25648 z m -6.035808,-0.44532 c -0.62756,-0.22195 -1.094234,-0.45033 -1.037055,-0.50751 0.120716,-0.12071 2.574946,0.68506 2.574946,0.84541 0,0.16568 -0.301059,0.0995 -1.537891,-0.3379 z m 3.389974,-0.7453 c -0.363802,-0.20797 -0.542395,-0.37813 -0.396875,-0.37813 0.145521,0 0.56224,0.17016 0.926042,0.37813 0.363802,0.20797 0.542396,0.37812 0.396875,0.37812 -0.145521,0 -0.56224,-0.17015 -0.926042,-0.37812 z m 3.96875,0 c -0.363802,-0.20797 -0.542395,-0.37813 -0.396875,-0.37813 0.145521,0 0.56224,0.17016 0.926042,0.37813 0.363802,0.20797 0.542396,0.37812 0.396875,0.37812 -0.145521,0 -0.56224,-0.17015 -0.926042,-0.37812 z m -10.26914,-0.31303 c -0.62756,-0.22196 -1.094235,-0.45033 -1.037056,-0.50751 0.120716,-0.12072 2.574946,0.68506 2.574946,0.84541 0,0.16568 -0.301058,0.0995 -1.53789,-0.3379 z m 3.91914,-0.74531 c -0.363802,-0.20796 -0.542396,-0.37812 -0.396875,-0.37812 0.145521,0 0.56224,0.17016 0.926042,0.37812 0.363802,0.20797 0.542396,0.37813 0.396875,0.37813 -0.145521,0 -0.56224,-0.17016 -0.926042,-0.37813 z m 3.413252,-0.39206 c -0.64036,-0.43391 -1.402418,-0.79864 -1.69346,-0.81052 -0.486706,-0.0199 -0.481399,-0.0408 0.06615,-0.26087 0.499785,-0.20089 0.595312,-0.4402 0.595312,-1.49135 0,-1.72488 0.476301,-1.1511 0.580158,0.69889 0.07762,1.38264 0.129246,1.47533 1.139634,2.04617 0.582083,0.32885 0.927423,0.59987 0.767419,0.60227 -0.160002,0.002 -0.814846,-0.35067 -1.455209,-0.78459 z m -6.059085,-0.79856 c -0.218281,-0.14106 -0.277813,-0.25648 -0.132292,-0.25648 0.145521,0 0.443177,0.11542 0.661459,0.25648 0.218281,0.14106 0.277812,0.25648 0.132291,0.25648 -0.14552,0 -0.443177,-0.11542 -0.661458,-0.25648 z m 2.645833,-0.66146 c -0.363802,-0.20797 -0.542396,-0.37812 -0.396875,-0.37812 0.145521,0 0.56224,0.17015 0.926042,0.37812 0.363802,0.20797 0.542396,0.37813 0.396875,0.37813 -0.145521,0 -0.56224,-0.17016 -0.926042,-0.37813 z m -5.291666,-0.52917 c -0.363802,-0.20796 -0.542396,-0.37812 -0.396875,-0.37812 0.14552,0 0.562239,0.17016 0.926041,0.37812 0.363802,0.20797 0.542396,0.37813 0.396875,0.37813 -0.14552,0 -0.562239,-0.17016 -0.926041,-0.37813 z m 2.645833,-0.66145 c -0.509323,-0.27885 -0.806979,-0.50699 -0.661458,-0.50699 0.145521,0 0.681302,0.22814 1.190625,0.50699 0.509323,0.27884 0.806979,0.50698 0.661458,0.50698 -0.145521,0 -0.681302,-0.22814 -1.190625,-0.50698 z m -5.291667,-0.52917 c -0.218281,-0.14106 -0.277812,-0.25648 -0.132291,-0.25648 0.145521,0 0.443177,0.11542 0.661458,0.25648 0.218281,0.14106 0.277813,0.25648 0.132292,0.25648 -0.145521,0 -0.443177,-0.11542 -0.661459,-0.25648 z m 2.910417,-0.52917 c -0.509323,-0.27884 -0.806979,-0.50698 -0.661458,-0.50698 0.14552,0 0.681302,0.22814 1.190625,0.50698 0.509323,0.27885 0.806979,0.50699 0.661458,0.50699 -0.145521,0 -0.681302,-0.22814 -1.190625,-0.50699 z m -6.54377,-1.1687 c 0.0338,-0.27898 0.24007,-0.55593 0.458353,-0.61545 0.255265,-0.0696 0.293021,-0.0302 0.105818,0.11036 -0.16008,0.12022 -0.366341,0.39718 -0.458351,0.61546 -0.11755,0.27886 -0.14902,0.24604 -0.10582,-0.11037 z m 3.754186,-0.17276 c -0.09624,-0.15571 -0.380444,-0.36407 -0.631563,-0.46302 -0.374095,-0.14739 -0.415198,-0.33695 -0.227502,-1.04922 0.283805,-1.07698 0.738232,-0.86608 0.738232,0.34263 0,0.57542 0.166085,0.99401 0.463021,1.16696 0.254662,0.14833 0.32122,0.27331 0.147908,0.27773 -0.173313,0.004 -0.393857,-0.11936 -0.490096,-0.27508 z"
         style="fill:#d0d0d0;stroke-width:0.264583" />
      <path
         id="path114"
         d="m -114.74497,160.57373 c -0.0693,-0.1819 -0.0953,-13.29862 -0.0579,-29.14827 0.0538,-22.77017 0.13755,-28.84067 0.39887,-28.92778 0.26326,-0.0877 0.33073,5.85907 0.33073,29.14828 0,27.55207 -0.0687,30.51089 -0.67175,28.92777 z m 0.34097,-43.41197 c -0.0389,-7.88334 -0.0707,-1.35553 -0.0707,14.50624 1e-5,15.86178 0.0318,22.31178 0.0707,14.33335 0.0389,-7.97844 0.0389,-20.95625 -2e-5,-28.83959 z m 15.9412,34.81623 c -0.654844,-0.0565 -1.280282,-0.19086 -1.389864,-0.29853 -0.109581,-0.10767 0.485732,-0.118 1.322916,-0.0229 0.837187,0.095 1.70075,0.11989 1.919031,0.0552 0.352777,-0.10453 0.352777,-0.0859 0,0.16789 -0.218281,0.15702 -0.456406,0.26652 -0.529166,0.24332 -0.07276,-0.0232 -0.668073,-0.0884 -1.322917,-0.14494 z m 2.847356,-0.52107 c 0.329118,-0.0633 0.805368,-0.0609 1.058333,0.005 0.252966,0.0662 -0.01632,0.11801 -0.598397,0.11507 -0.582084,-0.003 -0.789054,-0.0571 -0.459936,-0.12041 z m 20.500382,-18.90699 c 0.0533,-14.99151 0.138949,-19.1178 0.398616,-19.20434 0.262559,-0.0875 0.330729,3.84825 0.330729,19.09412 0,16.93138 -0.04718,19.20434 -0.398616,19.20434 -0.352041,0 -0.390681,-2.23088 -0.330729,-19.09412 z m 0.398508,-9.41474 c -0.04011,-5.20237 -0.07294,-0.94588 -0.07294,9.45886 0,10.40474 0.03282,14.66122 0.07294,9.45885 0.04012,-5.20237 0.04012,-13.71534 0,-18.91771 z m -18.785309,28.05755 c 0.327422,-0.0631 0.863204,-0.0631 1.190625,0 0.327422,0.0631 0.05953,0.11466 -0.595312,0.11466 -0.654844,0 -0.922734,-0.0516 -0.595313,-0.11466 z m 2.783161,-0.26121 c 0.257431,-0.0671 0.614619,-0.0627 0.79375,0.01 0.17913,0.0725 -0.03149,0.12736 -0.468056,0.12197 -0.436563,-0.005 -0.583126,-0.0647 -0.325694,-0.13177 z m -9.652748,-2.66092 -0.0757,-2.57969 h -2.38125 c -2.18318,0 -2.38758,-0.0442 -2.45744,-0.53158 -0.0719,-0.50137 0.045,-0.52609 2.05552,-0.43478 1.42715,0.0648 2.26125,-0.0107 2.5236,-0.22842 0.32386,-0.26878 0.39187,-1.31217 0.39187,-6.01223 0,-5.6841 -2.9e-4,-5.68692 -0.56728,-5.53865 -0.40517,0.10595 -0.48587,0.0669 -0.28237,-0.13657 0.1567,-0.1567 0.47144,-0.21333 0.69943,-0.12584 0.36567,0.14032 0.41194,1.22019 0.39267,9.16325 -0.0214,8.82186 -0.14849,11.5523 -0.29902,6.42451 z m 12.430576,2.38793 c 0.475549,-0.0589 1.189924,-0.0577 1.5875,0.003 0.397576,0.0604 0.0085,0.10855 -0.864634,0.10707 -0.873125,-0.002 -1.198415,-0.0509 -0.722866,-0.10977 z m -9.603708,-0.35007 c -0.09424,-0.15249 -0.428689,-0.24178 -0.74322,-0.19844 l -0.571873,0.0788 -0.06777,-20.40548 -0.06777,-20.40547 1.258396,0.007 c 0.692118,0.004 0.989766,0.0564 0.661445,0.11732 l -0.596951,0.11067 0.06778,20.28815 0.06778,20.28816 1.058333,0.16089 1.058333,0.16089 -0.976571,0.0376 c -0.537115,0.0206 -1.05368,-0.0872 -1.147919,-0.2397 z m 12.244803,0.10201 c 0.181901,-0.0734 0.479557,-0.0734 0.661458,0 0.181901,0.0734 0.03307,0.13346 -0.330729,0.13346 -0.363802,0 -0.51263,-0.0601 -0.330729,-0.13346 z m -8.858507,-0.2727 c 0.257432,-0.0671 0.614619,-0.0627 0.79375,0.01 0.179131,0.0725 -0.03149,0.12736 -0.468056,0.12197 -0.436562,-0.005 -0.583125,-0.0647 -0.325694,-0.13177 z m 11.242842,-0.004 c 0.329118,-0.0633 0.805368,-0.0609 1.058333,0.005 0.252966,0.0662 -0.01632,0.118 -0.598397,0.11506 -0.582084,-0.003 -0.789054,-0.0571 -0.459936,-0.1204 z m -8.602044,-0.25983 c 0.254662,-0.0665 0.671381,-0.0665 0.926042,0 0.254662,0.0666 0.0463,0.121 -0.463021,0.121 -0.509323,0 -0.717682,-0.0545 -0.463021,-0.121 z m 10.980209,-0.004 c 0.327422,-0.0631 0.863203,-0.0631 1.190625,0 0.327422,0.0631 0.05953,0.11466 -0.595313,0.11466 -0.654843,0 -0.922734,-0.0516 -0.595312,-0.11466 z m -8.598958,-0.26024 c 0.254661,-0.0666 0.67138,-0.0666 0.926041,0 0.254662,0.0666 0.0463,0.121 -0.463021,0.121 -0.509323,0 -0.717682,-0.0545 -0.46302,-0.121 z m 10.71255,-0.10561 c 0.245099,-0.31438 0.345885,-3.08099 0.4,-10.98021 l 0.07234,-10.55992 0.06302,10.61708 c 0.05842,9.84088 0.02917,10.64363 -0.4,10.98021 -0.409429,0.3211 -0.425098,0.31448 -0.135366,-0.0572 z m -7.797099,-0.15994 c 0.257432,-0.0671 0.614619,-0.0627 0.79375,0.01 0.179131,0.0725 -0.03149,0.12736 -0.468056,0.12197 -0.436562,-0.005 -0.583125,-0.0647 -0.325694,-0.13177 z m 2.247009,-0.26836 c 0.329117,-0.0633 0.805367,-0.0609 1.058333,0.005 0.252965,0.0662 -0.01633,0.11801 -0.598398,0.11507 -0.582083,-0.003 -0.789053,-0.0571 -0.459935,-0.12041 z m 2.515491,-0.26081 c 0.257432,-0.0671 0.614619,-0.0627 0.79375,0.01 0.179131,0.0725 -0.03149,0.12736 -0.468056,0.12197 -0.436562,-0.005 -0.583125,-0.0647 -0.325694,-0.13178 z m 2.045333,-10.74375 0.132138,-10.63644 0.06942,10.4347 c 0.03818,5.73908 -0.02127,10.52548 -0.132138,10.63643 -0.110855,0.11096 -0.142092,-4.58466 -0.06942,-10.43469 z m -15.82193,8.75752 c -0.174625,-0.17463 -0.3175,-0.43551 -0.3175,-0.57974 0,-0.14423 0.148828,-0.067 0.330729,0.17171 0.181901,0.23868 0.806979,0.47954 1.389062,0.53526 l 1.058334,0.10131 -1.071563,0.0445 c -0.589359,0.0245 -1.214437,-0.0984 -1.389062,-0.27302 z m 4.383593,-0.13884 c 0.475548,-0.0589 1.189923,-0.0577 1.5875,0.003 0.397576,0.0604 0.0085,0.10855 -0.864635,0.10707 -0.873125,-0.002 -1.198414,-0.0509 -0.722865,-0.10977 z m 3.70642,-0.2669 c 0.622311,-0.0559 1.574811,-0.0551 2.116667,0.002 0.541856,0.0568 0.0327,0.10258 -1.131472,0.10162 -1.164167,-10e-4 -1.607505,-0.0475 -0.985195,-0.10337 z m 5.35082,-0.31207 1.455208,-0.15532 0.06923,-13.49375 c 0.06387,-12.45069 0.0344,-13.51931 -0.381299,-13.82447 -0.247788,-0.18191 -0.315457,-0.33073 -0.150373,-0.33073 0.165081,0 0.474644,0.24912 0.687916,0.55361 0.363731,0.5193 0.395563,0.5234 0.51348,0.0662 0.06914,-0.26811 0.114612,1.53659 0.10105,4.01044 l -0.02466,4.49792 -0.153881,-3.96875 c -0.09172,-2.3656 -0.176239,1.32698 -0.209233,9.14136 -0.04129,9.78071 -0.135982,13.19073 -0.372851,13.4276 -0.176768,0.17677 -0.909748,0.29838 -1.653645,0.27437 l -1.336146,-0.0431 z m -12.795885,-1.41209 c -0.467889,-2.43661 -0.473456,-2.517 -0.105299,-1.52135 l 0.342416,0.92604 2.200074,-0.0894 c 2.312172,-0.0939 3.596264,0.0833 3.361034,0.46392 -0.251537,0.407 0.881467,0.50919 3.233549,0.29166 1.269897,-0.11745 2.482737,-0.11807 2.695202,-0.001 0.281157,0.15441 0.209145,0.21441 -0.264583,0.22046 -0.357987,0.005 -2.555883,0.12919 -4.884216,0.27694 -6.649924,0.42198 -6.38388,0.44491 -6.578177,-0.56692 z m 12.474916,-5.91942 0.0759,-5.96004 -0.60507,0.0858 c -0.392264,0.0556 -0.63481,0.2952 -0.689621,0.68113 -0.04968,0.34983 -0.267891,0.59365 -0.529167,0.59127 -0.2536,-0.002 -0.330948,-0.0876 -0.180035,-0.19844 0.145521,-0.10691 0.396621,-0.43251 0.558003,-0.72356 0.166243,-0.29981 0.567614,-0.52916 0.926042,-0.52916 h 0.632621 l 0.07144,5.80231 c 0.03929,3.19127 -0.02024,5.8942 -0.132292,6.0065 -0.112051,0.11231 -0.169571,-2.47782 -0.127823,-5.75584 z m -4.425053,5.22261 c -0.150833,-0.28183 -0.700937,-0.57952 -1.266079,-0.68513 -0.549648,-0.10272 -1.148185,-0.30975 -1.330086,-0.46007 -0.254733,-0.2105 -0.33073,-2.75856 -0.33073,-11.08882 v -10.81552 h 0.77211 c 1.165749,0 1.680737,-0.25639 1.339903,-0.66707 -0.225997,-0.2723 -0.100857,-0.29966 0.623499,-0.13629 0.498432,0.11241 1.039346,0.28665 1.202031,0.3872 0.196072,0.12118 0.295791,1.48083 0.295791,4.0331 v 3.85028 l 0.926041,-0.17372 c 0.733775,-0.13766 0.926042,-0.0888 0.926042,0.23514 0,0.22487 0.138906,0.40886 0.308681,0.40886 0.169773,0 0.21957,0.0891 0.11066,0.19802 -0.108913,0.10891 -0.350735,-0.0108 -0.53738,-0.26608 -0.311586,-0.42612 -0.417263,-0.43154 -1.291433,-0.0663 -1.106639,0.46238 -2.823861,1.89681 -2.823861,2.35882 0,0.4406 1.702141,2.04807 2.581465,2.43787 0.496311,0.22002 0.579414,0.32856 0.262806,0.34325 -0.423434,0.0197 -0.463021,0.43812 -0.463021,4.89464 0,2.68024 -0.07227,5.06149 -0.1606,5.29167 -0.218511,0.56943 -0.820814,0.52746 -1.145839,-0.0799 z M -103.4549,133.24554 c -0.6356,-0.49984 -1.2547,-0.84757 -1.37578,-0.77273 -0.40047,0.2475 -0.82799,-0.9732 -0.65807,-1.87896 0.11555,-0.61592 0.28,-0.84249 0.53928,-0.743 0.20517,0.0787 0.93229,-0.28387 1.61582,-0.80578 0.68353,-0.52192 1.32627,-0.94894 1.42831,-0.94894 0.10204,0 0.40103,0.23812 0.66441,0.52917 0.26339,0.29104 0.38427,0.52916 0.26862,0.52916 -0.11565,0 -0.35928,-0.20376 -0.54138,-0.45281 -0.30565,-0.41799 -0.41575,-0.39256 -1.43187,0.33073 -0.60542,0.43095 -1.30299,0.9026 -1.55015,1.04812 -1.25043,0.73622 -1.10746,1.45568 0.50378,2.53513 0.74252,0.49745 1.51982,1.02352 1.72733,1.16904 0.26883,0.18853 0.45001,0.1505 0.63028,-0.13229 0.21588,-0.33864 0.25359,-0.32894 0.25705,0.0661 0.006,0.71672 -0.79743,0.53375 -2.07763,-0.47299 z m 8.435988,-7.79524 -0.116647,-4.63021 -0.152241,4.36562 c -0.130733,3.74893 -0.153321,3.3378 -0.159893,-2.91041 -0.0042,-4.00183 0.05981,-6.32355 0.142266,-5.15938 0.130895,1.84807 0.191297,2.04444 0.475986,1.54746 0.244382,-0.42661 0.253984,-0.77597 0.03834,-1.39459 -0.290398,-0.83303 0.005,-1.60808 0.612934,-1.60808 0.138097,0 0.06399,0.1871 -0.164687,0.41578 -0.92387,0.92387 -0.313574,1.41471 3.06579,2.46574 3.839308,1.19408 3.570232,1.0816 3.17373,1.32665 -0.404749,0.25015 -2.203844,-0.0543 -4.406336,-0.74559 -1.087718,-0.34141 -1.689957,-0.41465 -1.912945,-0.23263 -0.233654,0.19073 -0.347195,1.80625 -0.402545,5.72775 l -0.0771,5.46209 z m -5.428268,-2.4604 v -6.13856 l -1.71979,-0.57597 c -0.94588,-0.31678 -2.04721,-0.58468 -2.44739,-0.59531 -0.59457,-0.0158 -0.72761,-0.14029 -0.72761,-0.68081 0,-0.80313 0.23965,-0.81645 2.38125,-0.13229 2.75208,0.87918 2.60832,1.03354 2.62753,-2.82141 0.009,-1.84282 0.0825,-3.41643 0.163,-3.49689 0.0805,-0.0805 0.0906,1.51658 0.0225,3.54902 -0.0681,2.03243 -0.12046,3.81439 -0.11641,3.95991 0.17656,6.33513 0.19113,12.69625 0.0295,12.85811 -0.1169,0.11702 -0.21255,-2.54958 -0.21255,-5.9258 z m 18.33467,1.6176 c 0.05894,-3.38034 -0.0068,-4.60636 -0.264584,-4.93615 -0.306734,-0.39237 -0.294044,-0.40037 0.120023,-0.0756 0.408226,0.32016 0.463021,0.88975 0.463021,4.81303 0,2.44745 -0.0893,4.50531 -0.198438,4.57302 -0.10914,0.0677 -0.163152,-1.9007 -0.120022,-4.37426 z m -3.253415,-5.70021 c -2.322915,-0.71463 -8.197239,-2.77168 -8.334375,-2.9185 -0.164962,-0.1766 -0.144492,-0.17056 5.953125,1.75755 2.764896,0.87427 4.729427,1.58472 4.365625,1.57877 -0.363802,-0.006 -1.256771,-0.19397 -1.984375,-0.41782 z m 7.078181,-1.2622 c 0.0029,-0.58209 0.05712,-0.78906 0.120407,-0.45994 0.06329,0.32912 0.06088,0.80537 -0.0053,1.05834 -0.06622,0.25296 -0.118004,-0.0163 -0.115067,-0.5984 z m -1.504921,-0.31932 c -0.143584,-0.37708 -0.113194,-0.40747 0.148114,-0.14811 0.180821,0.17947 0.262115,0.39297 0.180652,0.47443 -0.08146,0.0815 -0.229407,-0.0654 -0.328766,-0.32632 z m -4.647218,-0.0776 c -0.218282,-0.14106 -0.277813,-0.25648 -0.132292,-0.25648 0.145521,0 0.443177,0.11542 0.661458,0.25648 0.218282,0.14107 0.277813,0.25648 0.132292,0.25648 -0.145521,0 -0.443177,-0.11541 -0.661458,-0.25648 z m -1.5875,-0.52916 c -0.483651,-0.31256 -0.06591,-0.31256 0.661458,0 0.348917,0.14993 0.39398,0.23234 0.132292,0.24193 -0.218282,0.008 -0.575469,-0.10087 -0.79375,-0.24193 z m 4.233333,-0.39688 c -0.363802,-0.20797 -0.542396,-0.37812 -0.396875,-0.37812 0.145521,0 0.56224,0.17015 0.926042,0.37812 0.363802,0.20797 0.542396,0.37813 0.396875,0.37813 -0.145521,0 -0.56224,-0.17016 -0.926042,-0.37813 z m -6.35,-0.39687 c -0.218281,-0.14107 -0.277813,-0.25648 -0.132292,-0.25648 0.145521,0 0.443177,0.11541 0.661459,0.25648 0.218281,0.14106 0.277812,0.25648 0.132291,0.25648 -0.145521,0 -0.443177,-0.11542 -0.661458,-0.25648 z m -1.5875,-0.52917 c -0.48365,-0.31256 -0.06591,-0.31256 0.661458,0 0.348917,0.14993 0.393981,0.23234 0.132292,0.24194 -0.218281,0.008 -0.575469,-0.10088 -0.79375,-0.24194 z m 8.73125,-0.13229 c -0.363802,-0.20797 -0.542396,-0.37813 -0.396875,-0.37813 0.145521,0 0.56224,0.17016 0.926042,0.37813 0.363802,0.20797 0.542396,0.37812 0.396875,0.37812 -0.145521,0 -0.56224,-0.17015 -0.926042,-0.37812 z m -10.054167,-0.39688 c -0.218281,-0.14106 -0.277812,-0.25648 -0.132291,-0.25648 0.145521,0 0.443177,0.11542 0.661458,0.25648 0.218281,0.14107 0.277812,0.25648 0.132292,0.25648 -0.145521,0 -0.443177,-0.11541 -0.661459,-0.25648 z m -4.461885,-0.73591 c -0.05126,-0.85877 0.482658,-0.95324 1.972344,-0.34898 0.714404,0.28978 1.16463,0.53336 1.000498,0.5413 -0.164129,0.008 -0.72585,-0.16417 -1.248272,-0.38245 -1.260047,-0.52648 -1.438588,-0.50397 -1.573877,0.19844 l -0.114662,0.59531 z m 11.870219,-0.0578 c -0.218282,-0.14106 -0.277813,-0.25648 -0.132292,-0.25648 0.145521,0 0.443177,0.11542 0.661458,0.25648 0.218282,0.14107 0.277813,0.25648 0.132292,0.25648 -0.145521,0 -0.443177,-0.11541 -0.661458,-0.25648 z m -1.979933,-1.05114 c -0.08749,-0.14157 -0.642318,-0.38752 -1.232945,-0.54656 -0.590629,-0.15904 -1.025393,-0.33764 -0.966139,-0.39689 0.206089,-0.20609 2.007182,0.41869 2.330693,0.8085 0.179089,0.21579 0.258535,0.39234 0.176543,0.39234 -0.08199,0 -0.220657,-0.11582 -0.308152,-0.25739 z m -4.370067,-0.40407 c -0.363802,-0.20796 -0.542396,-0.37812 -0.396875,-0.37812 0.14552,0 0.562239,0.17016 0.926041,0.37812 0.363802,0.20797 0.542396,0.37813 0.396875,0.37813 -0.145521,0 -0.562239,-0.17016 -0.926041,-0.37813 z m -2.38125,-1.05833 c -0.363802,-0.20797 -0.542396,-0.37812 -0.396875,-0.37812 0.145521,0 0.562239,0.17015 0.926041,0.37812 0.363802,0.20797 0.542396,0.37813 0.396875,0.37813 -0.145521,0 -0.562239,-0.17016 -0.926041,-0.37813 z m 2.38125,-0.39687 c -0.218282,-0.14107 -0.277813,-0.25648 -0.132292,-0.25648 0.145521,0 0.443177,0.11541 0.661458,0.25648 0.218282,0.14106 0.277813,0.25648 0.132292,0.25648 -0.145521,0 -0.443177,-0.11542 -0.661458,-0.25648 z m -17.859377,-0.52917 c -0.0899,-0.14552 0.0291,-0.26458 0.26458,-0.26458 0.23546,0 0.35453,0.11906 0.26459,0.26458 -0.0899,0.14552 -0.209,0.26458 -0.26459,0.26458 -0.0556,0 -0.17464,-0.11906 -0.26458,-0.26458 z m 12.56771,-0.39688 c -0.363802,-0.20796 -0.542396,-0.37812 -0.396875,-0.37812 0.145521,0 0.56224,0.17016 0.926042,0.37812 0.363802,0.20797 0.542395,0.37813 0.396875,0.37813 -0.145521,0 -0.56224,-0.17016 -0.926042,-0.37813 z m -0.264583,-1.5875 c -0.363802,-0.20796 -0.542396,-0.37812 -0.396875,-0.37812 0.145521,0 0.562239,0.17016 0.926041,0.37812 0.363802,0.20797 0.542396,0.37813 0.396875,0.37813 -0.14552,0 -0.562239,-0.17016 -0.926041,-0.37813 z m -4.497917,-0.58023 c 0,-0.74792 2.912295,-0.87194 3.460573,-0.14737 0.298066,0.39391 0.295002,0.41365 -0.02053,0.13229 -0.473014,-0.42181 -2.704505,-0.43126 -3.122541,-0.0132 -0.212413,0.21242 -0.317502,0.22179 -0.317502,0.0283 z"
         style="fill:#afafaf;stroke-width:0.264583" />
      <path
         id="path112"
         d="m -114.47472,131.668 c -2e-5,-15.86177 0.0318,-22.38958 0.0707,-14.50624 0.0389,7.88334 0.0389,20.86115 2e-5,28.83959 -0.0389,7.97843 -0.0707,1.52843 -0.0707,-14.33335 z m 17.334837,19.97605 c 0.218281,-0.14107 0.575468,-0.24994 0.79375,-0.24194 0.261688,0.01 0.216625,0.092 -0.132292,0.24194 -0.727363,0.31255 -1.145109,0.31255 -0.661458,0 z m -2.801457,-0.36227 c -0.07646,-0.19925 -0.09475,-1.00292 -0.04064,-1.78594 l 0.09838,-1.42367 0.04894,1.6316 c 0.03052,1.01759 0.173403,1.68182 0.379672,1.76505 0.259043,0.10452 0.257244,0.13798 -0.0083,0.15434 -0.186471,0.0115 -0.401592,-0.14213 -0.47805,-0.34138 z m 4.719686,-0.0847 c 0.254661,-0.0666 0.67138,-0.0666 0.926041,0 0.254662,0.0666 0.0463,0.121 -0.46302,0.121 -0.509323,0 -0.717683,-0.0545 -0.463021,-0.121 z m 20.432165,-18.60303 c 0,-10.40474 0.03282,-14.66123 0.07294,-9.45886 0.04012,5.20237 0.04012,13.71534 0,18.91771 -0.04011,5.20237 -0.07294,0.94589 -0.07294,-9.45885 z m -18.047277,18.33097 c 0.402182,-0.0608 0.997495,-0.0592 1.322917,0.004 0.325421,0.0628 -0.0036,0.11256 -0.731243,0.11057 -0.727604,-0.002 -0.993857,-0.0534 -0.591674,-0.11418 z m -5.295305,-0.26612 c -0.472943,-0.0587 -0.859896,-0.1929 -0.859896,-0.29823 0,-0.2784 1.117788,-0.31908 1.443014,-0.0525 0.152228,0.12477 0.574434,0.28157 0.938236,0.34846 l 0.661459,0.12161 -0.661459,-0.006 c -0.363802,-0.003 -1.048411,-0.0543 -1.521354,-0.11302 z m 7.805208,0.005 c 0.327422,-0.0631 0.863204,-0.0631 1.190626,0 0.327421,0.0631 0.05953,0.11466 -0.595313,0.11466 -0.654844,0 -0.922734,-0.0516 -0.595313,-0.11466 z m -4.762499,-0.26458 c 0.327421,-0.0631 0.863203,-0.0631 1.190624,0 0.327422,0.0631 0.05953,0.11466 -0.595312,0.11466 -0.654844,0 -0.922734,-0.0516 -0.595312,-0.11466 z m 6.96736,0.0863 c 0.06063,-0.0552 1.181806,-0.16493 2.491494,-0.24378 1.754005,-0.10559 2.03278,-0.0852 1.058333,0.0772 -1.379048,0.22996 -3.741092,0.34077 -3.549827,0.16653 z m -4.450181,-0.35401 c 0.402183,-0.0608 0.997495,-0.0592 1.322917,0.004 0.325421,0.0628 -0.0036,0.11256 -0.731242,0.11057 -0.727604,-0.002 -0.993857,-0.0534 -0.591675,-0.11419 z m 2.642195,-0.25711 c 0.254662,-0.0666 0.671381,-0.0666 0.926042,0 0.254662,0.0666 0.0463,0.121 -0.463021,0.121 -0.509323,0 -0.717682,-0.0545 -0.463021,-0.121 z m 7.543711,-0.005 c 0.329117,-0.0633 0.805367,-0.0609 1.058333,0.005 0.252965,0.0662 -0.01632,0.118 -0.598398,0.11506 -0.582083,-0.003 -0.789053,-0.0571 -0.459935,-0.1204 z m -16.751856,-8.6765 c -1.01e-4,-4.80218 0.03566,-6.80404 0.07946,-4.44857 0.04381,2.35547 0.04389,6.28453 1.82e-4,8.73125 -0.04371,2.44672 -0.07955,0.51951 -0.07965,-4.28268 z m 11.857617,8.4091 c 0.402182,-0.0608 0.997495,-0.0592 1.322917,0.004 0.325421,0.0628 -0.0036,0.11256 -0.731243,0.11058 -0.727604,-0.002 -0.993857,-0.0534 -0.591674,-0.11419 z m 7.603133,4.2e-4 c 0.509323,-0.0576 1.074869,-0.29944 1.25677,-0.53739 0.181902,-0.23795 0.33073,-0.31463 0.33073,-0.1704 0,0.53601 -0.662869,0.89598 -1.574271,0.85489 l -0.939271,-0.0423 z m -5.090144,-0.26227 c 0.329117,-0.0633 0.805367,-0.0609 1.058333,0.005 0.252965,0.0662 -0.01633,0.118 -0.598398,0.11506 -0.582083,-0.003 -0.789053,-0.0571 -0.459935,-0.1204 z m 2.645833,-0.26458 c 0.329118,-0.0633 0.805368,-0.0609 1.058333,0.005 0.252966,0.0662 -0.01632,0.11801 -0.598397,0.11507 -0.582084,-0.003 -0.789054,-0.0571 -0.459936,-0.12041 z m 2.179727,-0.31397 0.661459,-0.18377 0.139149,-6.73517 0.13915,-6.73517 0.05929,6.62781 c 0.06233,6.96782 0.01233,7.29141 -1.118108,7.23644 -0.454277,-0.0221 -0.434933,-0.0562 0.119062,-0.21014 z m -20.056753,-2.27703 c 0.0054,-0.43656 0.06469,-0.58312 0.131774,-0.32569 0.06708,0.25743 0.06267,0.61462 -0.0098,0.79375 -0.07248,0.17913 -0.127364,-0.0315 -0.121971,-0.46806 z m 4.907183,0.2358 c -0.08015,-0.12969 0.706101,-0.24417 1.747231,-0.25441 1.04113,-0.0102 4.095621,-0.15568 6.787756,-0.3232 2.692135,-0.16752 5.162682,-0.30798 5.490104,-0.31212 0.688025,-0.009 0.783802,-0.58005 0.181086,-1.08026 -0.343223,-0.28485 -0.543782,-0.26725 -1.170045,0.1027 -0.577316,0.34103 -1.931517,0.51483 -5.733863,0.73589 -2.737921,0.15919 -5.541179,0.23532 -6.229466,0.16918 -0.769443,-0.0739 -1.297731,-0.008 -1.37165,0.1708 -0.175697,0.42533 -0.122407,-14.49807 0.07218,-20.21417 l 0.166629,-4.89479 0.22747,9.03195 c 0.125106,4.96758 0.191516,10.02774 0.147577,11.2448 -0.04394,1.21706 0.01685,2.71885 0.135109,3.33731 0.252103,1.31854 -0.198699,1.2597 6.497368,0.84796 5.304652,-0.32619 5.791158,-0.38172 6.106517,-0.69708 0.163962,-0.16396 0.234802,-2.48027 0.187402,-6.12754 -0.05921,-4.55549 -0.0024,-5.86387 0.254518,-5.86368 0.228053,1.6e-4 0.33073,-0.49519 0.33073,-1.59557 0,-1.03277 -0.11669,-1.64045 -0.33073,-1.72234 -0.251208,-0.0961 -0.312068,-1.22913 -0.253121,-4.71228 0.06171,-3.64633 0.0029,-4.64777 -0.287174,-4.8885 -0.200628,-0.1665 -2.319147,-0.90269 -4.707815,-1.63596 -2.388669,-0.73327 -5.046721,-1.57483 -5.906781,-1.87014 -1.374706,-0.47201 -1.610688,-0.48997 -1.952077,-0.14859 -0.312034,0.31204 -0.330613,0.55391 -0.09456,1.23104 0.266139,0.76345 0.05029,1.84883 -0.367673,1.84883 -0.06764,0 -0.122984,-0.8136 -0.122984,-1.80799 0,-1.5407 0.06845,-1.80985 0.463021,-1.82059 1.436301,-0.0391 12.235558,3.31269 13.058611,4.05302 0.464307,0.41764 1.295035,0.24094 1.295035,-0.27546 0,-0.18464 -2.130036,-1.03474 -4.960938,-1.97992 -2.728515,-0.91099 -5.08,-1.74695 -5.225521,-1.85768 -0.14552,-0.11073 -0.965279,-0.33737 -1.821685,-0.50363 -0.881002,-0.17104 -1.711719,-0.50408 -1.913199,-0.76701 -0.311209,-0.40612 -0.389578,-0.41467 -0.62166,-0.0678 -0.227825,0.34048 -0.266137,0.33108 -0.269613,-0.0661 -0.0021,-0.25466 0.08525,-0.46219 0.194387,-0.46118 0.233261,0.002 2.841037,0.89701 6.548437,2.24705 1.455208,0.52992 3.808981,1.36618 5.230606,1.85836 1.421625,0.49219 2.701547,0.96706 2.844271,1.05526 0.316857,0.19583 0.36236,27.02185 0.04616,27.21727 -0.117332,0.0725 -2.290222,0.25747 -4.828645,0.41102 -2.538421,0.15354 -5.758755,0.35617 -7.156294,0.45029 -1.412063,0.0951 -2.605728,0.0664 -2.686714,-0.0647 z m 16.860268,-14.25872 c 4.3e-5,-7.7126 0.03383,-10.82961 0.07509,-6.92669 0.04125,3.90292 0.04122,10.21323 -7.9e-5,14.02291 -0.0413,3.80969 -0.07505,0.61639 -0.07501,-7.09622 z m -22.032031,12.43542 c 0.005,-0.43656 0.0647,-0.58312 0.13177,-0.32569 0.0671,0.25743 0.0627,0.61462 -0.01,0.79375 -0.0725,0.17913 -0.12737,-0.0315 -0.12197,-0.46806 z m 0.324993,-6.35 c 2.15e-4,-3.05594 0.03873,-4.26986 0.08559,-2.6976 0.04686,1.57226 0.04668,4.07257 -3.97e-4,5.55625 -0.04707,1.48368 -0.08541,0.19729 -0.08519,-2.85865 z m 13.626314,-5.88698 -0.641432,-0.7276 0.727604,0.64143 c 0.680056,0.59952 0.84894,0.81378 0.641432,0.81378 -0.04739,0 -0.374814,-0.32743 -0.727604,-0.72761 z m -0.376849,-2.71198 c 0.26339,-0.29104 0.538422,-0.52916 0.611183,-0.52916 0.07276,0 -0.08321,0.23812 -0.346599,0.52916 -0.26339,0.29104 -0.538422,0.52917 -0.611183,0.52917 -0.07276,0 0.08321,-0.23813 0.346599,-0.52917 z m -13.361898,-6.82578 0.131854,-6.00651 0.07188,5.80231 c 0.03953,3.19127 -0.0198,5.8942 -0.131853,6.00651 -0.112051,0.1123 -0.144401,-2.49874 -0.07188,-5.80231 z m 0.914078,-3.75755 c 0,-5.45703 0.03518,-7.68945 0.07818,-4.96094 0.043,2.72852 0.043,7.19336 0,9.92188 -0.043,2.72851 -0.07818,0.49609 -0.07818,-4.96094 z m 19.723322,2.98924 c -0.07246,-2.93982 -0.03981,-5.25294 0.07257,-5.14026 0.112371,0.11267 0.171659,2.51798 0.131749,5.34513 l -0.07256,5.14026 z m -20.90245,-5.76737 c -0.034,-0.29104 -0.0306,-0.64822 0.007,-0.79375 0.038,-0.14552 0.15751,-0.6813 0.26549,-1.19062 0.147215,-0.69438 0.200128,-0.76057 0.211509,-0.26458 0.02092,0.91165 -0.408039,2.90322 -0.484399,2.24895 z m 21.69674,0.1644 c 0,-0.12787 -0.361005,-0.38202 -0.802233,-0.56478 -0.441229,-0.18277 -0.74995,-0.38458 -0.686048,-0.44849 0.183382,-0.18338 1.752864,0.70122 1.752864,0.98796 0,0.14178 -0.05953,0.25779 -0.132291,0.25779 -0.07276,0 -0.132292,-0.10462 -0.132292,-0.23248 z m -4.233333,-1.09044 c -0.218282,-0.14106 -0.277813,-0.25648 -0.132292,-0.25648 0.145521,0 0.443177,0.11542 0.661458,0.25648 0.218282,0.14107 0.277813,0.25648 0.132292,0.25648 -0.145521,0 -0.443177,-0.11541 -0.661458,-0.25648 z m -2.116667,-0.92604 c -0.363802,-0.20797 -0.542396,-0.37812 -0.396875,-0.37812 0.145521,0 0.56224,0.17015 0.926042,0.37812 0.363802,0.20797 0.542396,0.37813 0.396875,0.37813 -0.145521,0 -0.56224,-0.17016 -0.926042,-0.37813 z m 2.38125,0 c -0.363802,-0.20797 -0.542396,-0.37812 -0.396875,-0.37812 0.145521,0 0.56224,0.17015 0.926042,0.37812 0.363802,0.20797 0.542396,0.37813 0.396875,0.37813 -0.145521,0 -0.56224,-0.17016 -0.926042,-0.37813 z m -5.291667,-1.32292 c -0.363802,-0.20796 -0.542396,-0.37812 -0.396875,-0.37812 0.145521,0 0.56224,0.17016 0.926042,0.37812 0.363802,0.20797 0.542396,0.37813 0.396875,0.37813 -0.145521,0 -0.56224,-0.17016 -0.926042,-0.37813 z m 1.5875,-0.42888 c -0.509323,-0.27299 -0.747448,-0.49574 -0.529166,-0.495 0.218281,7.4e-4 0.754062,0.23789 1.190625,0.52701 0.986792,0.65353 0.580956,0.63389 -0.661459,-0.032 z m -13.664418,-2.48153 c -7.94e-4,-1.30969 0.04393,-1.87883 0.09942,-1.26476 0.05549,0.61408 0.05615,1.68564 0.0015,2.38125 -0.05467,0.69562 -0.100072,0.1932 -0.100879,-1.11649 z m 10.754002,1.19062 c -0.218282,-0.14106 -0.277813,-0.25648 -0.132292,-0.25648 0.145521,0 0.443177,0.11542 0.661458,0.25648 0.218282,0.14107 0.277813,0.25648 0.132292,0.25648 -0.145521,0 -0.443177,-0.11541 -0.661458,-0.25648 z m -4.233334,-0.79375 c -0.218281,-0.14106 -0.277812,-0.25648 -0.132291,-0.25648 0.14552,0 0.443177,0.11542 0.661458,0.25648 0.218281,0.14107 0.277813,0.25648 0.132292,0.25648 -0.145521,0 -0.443177,-0.11541 -0.661459,-0.25648 z m 1.322917,-0.52916 c -0.218281,-0.14107 -0.277813,-0.25648 -0.132292,-0.25648 0.145521,0 0.443177,0.11541 0.661459,0.25648 0.218281,0.14106 0.277812,0.25648 0.132291,0.25648 -0.145521,0 -0.443177,-0.11542 -0.661458,-0.25648 z m -6.482913,-1.05855 c -0.750433,-0.26324 -0.120243,-0.44699 0.926663,-0.27019 0.861592,0.1455 0.878739,0.16637 0.246401,0.29983 -0.373803,0.0789 -0.901681,0.0656 -1.173064,-0.0296 z m 4.101663,2.1e-4 c -0.218281,-0.14106 -0.277812,-0.25648 -0.132292,-0.25648 0.145521,0 0.443177,0.11542 0.661459,0.25648 0.218281,0.14107 0.277812,0.25648 0.132291,0.25648 -0.145521,0 -0.443177,-0.11541 -0.661458,-0.25648 z m -2.248958,-1.05833 c -0.08994,-0.14552 -0.781574,-0.28604 -1.53697,-0.31227 l -1.373447,-0.0477 1.257453,-0.0991 c 0.84531,-0.0666 1.449967,0.0357 1.84481,0.31227 0.323046,0.22627 0.448826,0.4114 0.279514,0.4114 -0.169312,0 -0.381423,-0.11906 -0.47136,-0.26458 z"
         style="fill:#929292;stroke-width:0.264583" />
      <path
         id="path110"
         d="m -102.55478,133.66705 c -0.085,-0.13746 -0.74682,-0.63376 -1.47082,-1.1029 -0.73373,-0.47544 -1.31637,-1.0534 -1.31637,-1.30579 0,-0.24905 0.62508,-0.92114 1.38907,-1.49353 2.00747,-1.50403 2.09016,-1.54053 2.43175,-1.07337 0.16553,0.22637 0.56113,0.45292 0.87912,0.50344 0.36939,0.0587 0.50693,0.20543 0.38089,0.4064 -0.14852,0.23683 -0.41208,0.21051 -1.06667,-0.10651 -0.82613,-0.40011 -0.90486,-0.39253 -1.58188,0.15222 -0.39187,0.31531 -0.98038,0.70978 -1.3078,0.87659 -0.89364,0.45529 -0.73463,0.83956 0.78864,1.90591 1.33284,0.93304 1.3988,0.9505 1.78594,0.47275 0.49433,-0.61003 1.25703,-0.90173 1.46746,-0.56124 0.086,0.13916 -0.0913,0.25303 -0.39407,0.25303 -0.3304,0 -0.67094,0.26443 -0.85184,0.66145 -0.3053,0.67008 -0.85115,0.86827 -1.13342,0.41155 z m 17.700787,-0.0902 c -0.875358,-0.51482 -2.76089,-2.11059 -2.76089,-2.3366 0,-0.36793 1.690745,-1.83712 2.752913,-2.39218 0.93024,-0.48613 1.056698,-0.49775 1.269918,-0.11675 0.132667,0.23706 0.576408,0.42313 1.009097,0.42313 0.540141,0 0.731041,0.10751 0.635052,0.35765 -0.146584,0.382 -1.321704,0.29289 -1.87393,-0.1421 -0.342569,-0.26984 -2.690172,1.28828 -2.718339,1.80419 -0.009,0.16496 0.477409,0.74605 1.080926,1.29129 1.080418,0.97609 1.103828,0.98318 1.521354,0.46076 0.477089,-0.59694 1.766147,-0.99386 1.999821,-0.61577 0.08415,0.13616 -0.176448,0.28542 -0.579098,0.3317 -0.454174,0.0522 -0.831237,0.31015 -0.993267,0.67947 -0.293897,0.66989 -0.554348,0.71937 -1.343557,0.25521 z"
         style="fill:#a1a05e;stroke-width:0.264583" />
      <path
         id="path108"
         d="m -99.496112,151.40053 c -0.30516,-0.1932 -0.38654,-1.88898 -0.453734,-9.45481 -0.04504,-5.07066 -0.07699,-10.05282 -0.07102,-11.07147 0.0139,-2.36714 0.161767,-17.22075 0.20348,-20.43906 l 0.03172,-2.44739 h 1.27322 c 0.705406,0 1.737868,0.22322 2.315104,0.50054 0.573038,0.2753 2.70876,1.24186 4.746051,2.14791 2.037292,0.90606 4.835261,2.17961 6.217709,2.83011 1.382448,0.65051 3.428539,1.60198 4.546867,2.11438 1.11833,0.5124 2.092738,1.08647 2.165353,1.27569 0.242861,0.63289 0.249314,32.16535 0.0066,32.40417 -0.130107,0.12804 -3.867965,0.59925 -8.306351,1.04713 -4.438385,0.44788 -8.641199,0.93178 -9.339585,1.07532 -1.565174,0.32171 -2.84426,0.32841 -3.335393,0.0175 z m 8.573937,-1.21398 c 9.303409,-0.95775 11.369207,-1.2268 11.732144,-1.52801 0.328686,-0.27278 0.359529,-1.80003 0.214854,-10.6389 -0.09291,-5.67621 -0.169849,-12.66986 -0.170981,-15.54145 l -0.0021,-5.22106 -1.256771,-0.635 c -3.328799,-1.68191 -16.706625,-7.52305 -17.476607,-7.63079 -0.639162,-0.0894 -0.938684,-10e-4 -1.114724,0.32751 -0.254942,0.47636 -0.341508,39.64304 -0.08986,40.65665 0.234592,0.94491 0.874649,0.96145 8.164004,0.21105 z m -4.167187,-3.71652 c -0.544217,-0.56453 -0.150043,-0.82907 1.061809,-0.71263 0.693135,0.0666 3.500364,-0.009 6.238285,-0.16833 3.802346,-0.22106 5.156547,-0.39486 5.733863,-0.73589 0.626263,-0.36995 0.826822,-0.38755 1.170045,-0.1027 0.652981,0.54193 0.500301,1.07114 -0.313377,1.08622 -1.09037,0.0202 -8.873998,0.47556 -11.44323,0.66945 -1.236927,0.0933 -2.338255,0.0771 -2.447395,-0.0361 z m 13.13889,-14.24033 c -0.228362,-0.5951 0.002,-2.94295 0.288714,-2.94295 0.145521,0 0.300029,0.74415 0.343355,1.65365 0.05028,1.05552 -0.0245,1.65365 -0.206743,1.65365 -0.15703,0 -0.348427,-0.16396 -0.425326,-0.36435 z m 0.146974,-12.71462 c -0.728665,-0.71275 -12.072242,-4.24427 -13.016447,-4.05232 -0.415399,0.0845 -0.552971,-0.87252 -0.199758,-1.38955 0.237157,-0.34715 0.315743,-0.33865 0.627227,0.0678 0.20148,0.26293 1.032197,0.59597 1.913199,0.76701 0.856406,0.16626 1.676165,0.3929 1.821685,0.50363 0.145521,0.11073 2.497006,0.94669 5.225521,1.85768 4.666713,1.55811 5.593384,2.06079 4.542422,2.46409 -0.534016,0.20492 -0.464013,0.22165 -0.913849,-0.21837 z"
         style="fill:#6a6a69;stroke-width:0.264583" />
      <path
         id="path106"
         d="m -103.42885,132.42951 c -1.52327,-1.06635 -1.68228,-1.45062 -0.78864,-1.90591 0.32742,-0.16681 0.91481,-0.56044 1.3053,-0.87472 0.68699,-0.55292 0.74056,-0.55692 1.65365,-0.12364 0.84901,0.40289 0.94366,0.55354 0.94366,1.50202 0,0.76579 -0.12669,1.09865 -0.46302,1.21657 -0.25467,0.0893 -0.64392,0.38559 -0.86501,0.65843 -0.38714,0.47775 -0.4531,0.46029 -1.78594,-0.47275 z m 17.969604,0.036 c -0.603517,-0.54524 -1.089935,-1.12633 -1.080926,-1.29129 0.02867,-0.52511 2.376466,-2.07459 2.718339,-1.79403 0.169395,0.13902 0.605648,0.29393 0.96945,0.34425 0.5706,0.0789 0.672576,0.24476 0.742389,1.20723 0.07484,1.03176 0.02506,1.12883 -0.661459,1.28987 -0.408313,0.0958 -0.933211,0.41291 -1.166439,0.70473 -0.417526,0.52242 -0.440936,0.51533 -1.521354,-0.46076 z"
         style="fill:#008000;stroke-width:0.264583" />
    </g>
  </g>
</svg>
