<?xml version="1.0" encoding="UTF-8" standalone="no"?>
<svg
   xmlns:dc="http://purl.org/dc/elements/1.1/"
   xmlns:cc="http://creativecommons.org/ns#"
   xmlns:rdf="http://www.w3.org/1999/02/22-rdf-syntax-ns#"
   xmlns:svg="http://www.w3.org/2000/svg"
   xmlns="http://www.w3.org/2000/svg"
   xmlns:sodipodi="http://sodipodi.sourceforge.net/DTD/sodipodi-0.dtd"
   xmlns:inkscape="http://www.inkscape.org/namespaces/inkscape"
   sodipodi:docname="detail2.svg"
   inkscape:version="1.0 (4035a4fb49, 2020-05-01)"
   id="svg48"
   version="1.1"
   viewBox="0 0 132.29166 132.29167"
   height="500"
   width="500">
  <defs
     id="defs42" />
  <sodipodi:namedview
     units="px"
     inkscape:window-maximized="0"
     inkscape:window-y="0"
     inkscape:window-x="96"
     inkscape:window-height="1030"
     inkscape:window-width="1635"
     showgrid="false"
     inkscape:document-rotation="0"
     inkscape:current-layer="g64"
     inkscape:document-units="mm"
     inkscape:cy="-46.305854"
     inkscape:cx="1481.8894"
     inkscape:zoom="0.24748737"
     inkscape:pageshadow="2"
     inkscape:pageopacity="0.0"
     borderopacity="1.0"
     bordercolor="#666666"
     pagecolor="#ffffff"
     id="base" />
  <metadata
     id="metadata45">
    <rdf:RDF>
      <cc:Work
         rdf:about="">
        <dc:format>image/svg+xml</dc:format>
        <dc:type
           rdf:resource="http://purl.org/dc/dcmitype/StillImage" />
        <dc:title></dc:title>
      </cc:Work>
    </rdf:RDF>
  </metadata>
  <g
     id="layer1"
     inkscape:groupmode="layer"
     inkscape:label="Calque 1">
    <g
       transform="translate(-3.3591886,6.3087662)"
       id="g64">
      <g
         transform="matrix(0.41341145,0,0,0.41341145,22.920691,-3.7067641)"
         id="g97">
        <path
           style="fill:#fafafa;stroke-width:1.33333"
           d="M -47.317273,153.70602 V -6.2939768 h 160.000003 160 v 159.9999968 160 h -160 -160.000003 z m 16.926111,125.24941 c 3.076021,-9.1205 8.816105,-26.78274 12.755739,-39.24941 6.153454,-19.47214 7.567703,-22.72598 10.0347665,-23.08761 1.579489,-0.23151 11.397912,1.73916 21.8187125,4.37928 95.480904,24.19017 94.464674,23.89572 94.464674,27.37152 0,1.34688 -3.05389,12.14478 -6.78641,23.99532 -3.732534,11.85053 -6.458414,21.87444 -6.057504,22.27535 2.30562,2.30562 5.032454,-2.46327 9.428624,-16.48953 2.7198,-8.67772 6.19439,-19.75129 7.72131,-24.60794 1.52692,-4.85665 2.40282,-9.80331 1.94647,-10.99256 -1.13558,-2.95928 -12.62431,-8.11912 -26.252494,-11.7906 l -11.33333,-3.05323 v -22.66667 -22.66666 l 9.33333,-4.92337 c 5.13334,-2.70787 13.383344,-6.23311 18.333344,-7.83387 5.83958,-1.88845 9,-3.61575 9,-4.91885 0,-3.12654 -8.65538,-1.39524 -21.549224,4.31038 -6.1146,2.70576 -12.16745,5.23992 -13.45078,5.63148 -2.20559,0.67293 -2.33334,-4.03239 -2.33334,-85.947 0,-74.244947 -0.27812,-86.8897488 -1.94159,-88.27029475 -1.06788,-0.886259 -2.56788,-1.22432 -3.33333,-0.751239 -0.94437,0.58365 -1.39175,29.58745175 -1.39175,90.22824375 v 89.36811 l -10.8371,10.60656 c -10.48369,10.26066 -10.89973,10.51712 -12.75789,7.86422 -2.93429,-4.18928 -4.40501,-2.00204 -4.40501,6.55106 0,10.04808 1.73123,11.61327 8.75743,7.9176 2.88342,-1.51664 6.14258,-3.63619 7.24257,-4.71011 1.77494,-1.73284 1.70689,-2.16983 -0.60466,-3.88313 -2.50554,-1.85711 -2.35748,-2.18154 3.89089,-8.5253 3.57255,-3.62709 6.99465,-6.28625 7.60466,-5.90925 1.19018,0.73557 1.57789,34.28155 0.40971,35.44972 -0.68093,0.68092 -35.31515,-7.6178 -68.3524605,-16.37797 -14.1132685,-3.74227 -16.6285845,-4.08118 -18.1404915,-2.44417 -1.587755,1.71911 -26.17847,80.01806 -26.152094,83.2705 0.01965,2.43062 4.211674,7.4512 5.802165,6.94907 0.848252,-0.2678 4.059026,-7.94914 7.135052,-17.06965 z m 9.671881,11.08393 c 4.422501,-16.1707 17.2233665,-56.68517 18.2201965,-57.66651 1.04163,-1.02545 68.2259205,13.50633 71.3393005,15.43051 0.64672,0.39967 1.17584,10.24222 1.17584,21.8723 0,22.12351 0.43994,25.36369 3.44375,25.36369 1.4574,0 1.89877,-4.49955 2.19068,-22.33332 l 0.36556,-22.33334 5.33334,0.41525 c 9.5531,0.74376 9.71437,1.75479 3.50838,21.99617 -3.02961,9.88135 -5.50838,18.96736 -5.50838,20.19116 0,1.75588 1.05433,2.13781 4.99999,1.81126 l 5.00001,-0.41383 6.21323,-18.66667 c 3.41728,-10.26667 6.267294,-20.02953 6.333344,-21.69525 0.14594,-3.68056 -1.24526,-4.2732 -20.546574,-8.75245 -26.70828,-6.19819 -50.46545,-11.82696 -66.32477,-15.71428 -16.6831605,-4.08927 -20.4139465,-4.5455 -21.5914255,-2.64029 -1.506969,2.43832 -19.4171465,62.76271 -19.4171465,65.4001 0,4.6951 3.809411,3.05656 5.26466,-2.26449 z m 190.735331,-14.06252 0.6667,-9.60415 20,-2.22012 c 10.99999,-1.22108 22.54998,-2.27108 25.66668,-2.33333 5.58352,-0.11162 5.66662,-0.0464 5.66662,4.44439 0,5.87363 1.14953,8.77572 3.476,8.77572 1.34098,0 1.85736,-1.86134 1.85736,-6.69525 0,-8.25334 0.43944,-8.47414 20.95738,-10.52636 8.22657,-0.82282 15.87659,-1.84877 17.00002,-2.27987 1.80631,-0.69316 2.0426,-11.07109 2.0426,-89.71966 0,-69.09117 -0.3719,-89.42476 -1.66667,-91.12699 -0.91666,-1.20514 -9.16666,-5.53145 -18.33333,-9.61403 -9.16666,-4.0826 -17.41666,-8.425932 -18.33333,-9.65187 -0.9217,-1.232635 -1.66667,-5.989019 -1.66667,-10.640801 0,-6.301153 -0.46614,-8.411828 -1.85736,-8.411828 -2.46102,0 -3.476,2.95167 -3.476,10.109047 0,3.468891 -0.61566,5.890953 -1.49745,5.890953 -1.85006,0 -43.36726,-18.200703 -47.50252,-20.824592 -1.98198,-1.257595 -3.00003,-3.213485 -3.00003,-5.763764 0,-5.206995 -1.23546,-8.078312 -3.47597,-8.078312 -1.08031,0 -1.85735,1.361613 -1.85735,3.254642 0,4.220205 -1.9718,5.324618 -8.76105,4.907112 -9.26421,-0.569701 -9.90561,0.942659 -9.90561,23.356669 0,17.792464 -0.18535,19.270844 -2.33334,18.609244 -17.11338,-5.27119 -20.93416,-6.22962 -23.42234,-5.8754 l -2.91099,0.41439 -0.31929,50.66666 c -0.17562,27.86667 0.12442,66.56667 0.66667,86 l 0.98597,35.33334 13.66666,-0.33381 13.66667,-0.33381 v 14.08812 c 0,17.63355 0.7636,19.24613 9.11358,19.24613 3.49419,0 7.07309,0.72 7.95309,1.6 0.89661,0.89662 1.6,5.19507 1.6,9.77778 0,4.49779 0.41,8.58779 0.91111,9.08889 2.05504,2.05506 3.79398,-2.47848 4.42219,-11.52918 z m -5.79481,-20.5101 c -1.22334,-1.22333 -1.09591,-216.427416 0.12815,-216.427234 1.16325,1.76e-4 82.89364,35.826594 89.3333,39.159144 3.488,1.80504 4.33336,3.05649 4.33336,6.41493 0,3.88584 -0.16025,4.028 -2.33333,2.06978 -2.36563,-2.13175 -65.55954,-25.42528 -76.03422,-28.026529 -3.79989,-0.943657 -6.14541,-0.971212 -7.03395,-0.08264 -0.85584,0.855795 -1.44031,33.142209 -1.63251,90.176149 -0.27112,80.47204 -0.0952,89.04799 1.86694,91.018 2.00209,2.01012 4.7302,2.01152 36,0.0186 38.35898,-2.44489 46.25426,-3.27048 47.2891,-4.94497 1.43279,-2.31829 3.21128,0.43505 3.21128,4.97144 0,5.8838 -1.65835,6.56131 -20.66665,8.44306 -21.01216,2.08012 -63.154,6.61934 -68.79482,7.41007 -2.63715,0.36969 -5.18716,0.27984 -5.66666,-0.19971 z m 65.79481,-57.08478 v -27.46344 l 4.47743,0.83997 c 4.20465,0.7888 4.52893,0.58241 5.32293,-3.38749 0.51205,-2.56035 1.50687,-4.00702 2.52256,-3.66844 1.28076,0.42688 1.6771,7.62297 1.6771,30.4479 v 29.88889 l -6.99999,0.403 -7.00003,0.403 z m -105.33332,-3.95319 c 0,-16.53084 0.34903,-30.05608 0.7756,-30.05608 0.42659,0 3.33839,2.1 6.47067,4.66666 5.74104,4.70437 9.23672,5.78791 10.75373,3.33334 2.74159,-4.43598 3.36199,0.68585 3.02819,25 l -0.36152,26.33333 -10.33334,0.3894 -10.33333,0.38944 z m 54.33333,26.50558 c -1.22709,-1.23458 -1.33881,-105.48454 -0.12851,-119.80376 l 0.87161,-10.31111 4.79507,0.87974 c 2.6373,0.48383 7.64507,1.80239 11.12839,2.93008 l 6.33333,2.05033 v 61.84653 61.84653 l -6.33333,0.0146 c -3.48332,0.008 -8.43334,0.36081 -10.99999,0.78389 -2.56665,0.42305 -5.11668,0.31647 -5.66667,-0.2369 z M 124.23065,119.37269 c -0.48055,-13.75 -0.87541,-29.35 -0.87748,-34.66666 -0.004,-11.25335 0.20707,-11.36269 13.99623,-7.23667 l 8,2.39378 0.35946,29.8184 c 0.34873,28.92987 0.28604,29.75194 -2.10499,27.58811 -3.4072,-3.08347 -4.35389,-2.87964 -11.31608,2.43637 -3.36145,2.56667 -6.35286,4.66667 -6.64759,4.66667 -0.2947,0 -0.92899,-11.25 -1.40955,-25 z m 115.50947,19.68339 c -0.61385,-2.34722 -1.52567,-2.81948 -4.57857,-2.3714 l -3.81214,0.55949 v -19.16862 c 0,-14.65691 -0.48378,-20.10373 -2.0545,-23.14156 -1.12997,-2.18512 -1.72079,-4.51289 -1.31295,-5.17281 0.40768,-0.65992 4.346,0.0171 8.75142,1.50511 l 8.00982,2.70496 -0.36334,23.42416 c -0.27817,17.92907 -0.7752,23.56108 -2.11829,24.00785 -0.98132,0.32645 -2.0926,-0.7081 -2.5212,-2.34718 z M 200.67507,85.91662 c -10.63751,-3.41583 -20.08753,-6.69601 -21.00001,-7.28928 -0.91243,-0.59328 -1.65901,-2.59096 -1.65901,-4.43928 0,-3.09657 0.33965,-3.28594 4.32584,-2.41048 2.37919,0.52255 9.42917,2.87617 15.66665,5.23025 6.23748,2.35407 14.19086,5.32383 17.67418,6.59944 5.16923,1.89301 6.33333,2.91172 6.33333,5.54236 0,1.77269 -0.45002,3.16783 -0.99997,3.10032 -0.54999,-0.0675 -9.70345,-2.91751 -20.34101,-6.33333 z"
           id="path80" />
        <path
           style="fill:#d0d1d0;stroke-width:1.33333"
           d="m -41.192886,293.47899 c -1.168413,-1.66814 -2.129386,-3.64947 -2.135494,-4.40298 -0.0262,-3.25244 24.56434,-81.55139 26.152094,-83.2705 1.511907,-1.63701 4.027223,-1.2981 18.1404915,2.44417 33.0373105,8.76017 67.6715305,17.05889 68.3524605,16.37797 1.16817,-1.16817 0.78046,-34.71415 -0.40971,-35.44972 -0.61001,-0.377 -4.03211,2.28216 -7.60466,5.90925 -6.24837,6.34376 -6.39643,6.66819 -3.89089,8.5253 2.31155,1.7133 2.3796,2.15029 0.60466,3.88313 -1.09999,1.07392 -4.35915,3.19347 -7.24257,4.71011 -7.0262,3.69567 -8.75743,2.13048 -8.75743,-7.9176 0,-8.5531 1.47072,-10.74034 4.40501,-6.55105 1.85816,2.65289 2.2742,2.39643 12.75789,-7.86423 l 10.8371,-10.60656 V 89.89817 c 0,-60.640792 0.4474,-89.64459375 1.39175,-90.22824375 0.76545,-0.473096 2.26545,-0.135005 3.33333,0.751239 1.66346,1.38054595 1.94159,14.02534775 1.94159,88.27029475 0,81.91461 0.12775,86.61993 2.33334,85.947 1.28333,-0.39156 7.33618,-2.92572 13.45078,-5.63148 12.893854,-5.70562 21.549224,-7.43692 21.549224,-4.31038 0,1.3031 -3.16042,3.0304 -9,4.91885 -4.95,1.60076 -13.200004,5.126 -18.333344,7.83387 l -9.33333,4.92337 v 22.66666 22.66667 l 11.33333,3.05323 c 13.628184,3.67148 25.116914,8.83132 26.252494,11.7906 0.45636,1.18925 -0.41953,6.13591 -1.94647,10.99256 -1.52692,4.85665 -5.00151,15.93022 -7.72131,24.60794 -4.39617,14.02626 -7.123004,18.79515 -9.428624,16.48953 -0.40089,-0.40088 2.32497,-10.42482 6.057504,-22.27535 3.73252,-11.85054 6.78641,-22.64844 6.78641,-23.99532 0,-3.4758 1.01623,-3.18135 -94.464674,-27.37152 -10.4208005,-2.64012 -20.2392225,-4.61079 -21.8187125,-4.37928 -2.4670635,0.36163 -3.8813125,3.61547 -10.0347665,23.08761 -12.148193,38.44203 -18.282704,55.81137 -19.890792,56.31906 -0.848257,0.26779 -2.498253,-0.87794 -3.666671,-2.54609 z M 110.68273,241.70602 c -1.32732,-1.46667 -3.6703,-2.6467 -5.20665,-2.6223 -2.71958,0.0433 -2.71021,0.11358 0.35437,2.66666 1.73126,1.44227 4.07424,2.62231 5.20665,2.62231 1.73824,0 1.68306,-0.41534 -0.35437,-2.66667 z M 78.349396,231.05397 c -2.38334,-1.45315 -4.33334,-3.64389 -4.33334,-4.86834 0,-2.04439 -0.21009,-2.03611 -2.572,0.10135 -2.45768,2.22417 -3.40526,2.11482 -21.31839,-2.46002 -10.31051,-2.63321 -19.50311,-4.76941 -20.42799,-4.7471 -2.99959,0.0723 2.63622,2.63595 8.58203,3.90382 3.15499,0.67276 11.73635,2.81219 19.06969,4.75428 13.6293,3.60947 21.62856,5.54585 24,5.8097 0.73334,0.0816 -0.61667,-1.04059 -3,-2.49374 z m -55,-13.34795 c -2.61116,-1.68747 -4.37624,-1.68747 -3.33334,0 0.45324,0.73334 1.83864,1.32415 3.0787,1.31293 1.94303,-0.0176 1.97822,-0.19906 0.25464,-1.31293 z m -11.95152,-3.44093 c -2.5400005,-1.10176 -5.8400005,-1.79001 -7.3333305,-1.52943 -2.10206,0.36682 -1.6614,0.80378 1.95151,1.93516 7.1420205,2.23652 10.8319105,1.95835 5.3818205,-0.40572 z M 0.6827255,211.80074 c 0,-0.65854 -13.6766015,-4.76139 -15.8718725,-4.76139 -2.413979,0 -1.645434,3.76746 0.871877,4.274 3.723848,0.7493 14.9999955,1.1157 14.9999955,0.4874 z m 47.9515305,-1.36965 c 1.83227,-2.20775 0.79258,-4.72507 -1.95153,-4.72507 -2.39935,0 -3.76495,2.28538 -2.82666,4.73053 0.94712,2.46815 2.72696,2.46613 4.77819,-0.006 z m 27.46752,-32.31581 c -1.10535,-2.88051 -2.99642,-1.98186 -4.75288,2.25861 -1.33335,3.21901 -1.32132,4.40611 0.0616,6.07239 1.50184,1.8096 1.94884,1.52436 3.53947,-2.25863 1.00129,-2.38139 1.51963,-5.11396 1.15185,-6.07237 z M -25.983941,292.30385 c 0,-2.63739 17.9101785,-62.96178 19.4171465,-65.4001 1.177479,-1.90521 4.90826,-1.44898 21.5914305,2.64029 15.85932,3.88732 39.61649,9.51609 66.32476,15.71428 19.301324,4.47925 20.692524,5.07189 20.546574,8.75245 -0.066,1.66572 -2.916054,11.42858 -6.333334,21.69525 l -6.21324,18.66667 -5,0.41383 c -3.94567,0.32656 -5,-0.0553 -5,-1.81126 0,-1.2238 2.47877,-10.30981 5.50838,-20.19116 6.206,-20.24138 6.04473,-21.25241 -3.50838,-21.99617 l -5.33334,-0.41525 -0.36555,22.33334 c -0.29193,17.83377 -0.73329,22.33332 -2.19068,22.33332 -3.00381,0 -3.44375,-3.24018 -3.44375,-25.36369 0,-11.63008 -0.52913,-21.47261 -1.17585,-21.8723 -3.11338,-1.92418 -70.2976605,-16.45596 -71.3393005,-15.43051 -0.99682,0.98134 -13.7976905,41.49581 -18.2201915,57.66651 -1.455249,5.32105 -5.26466,6.95959 -5.26466,2.26449 z m 191.577781,-4.79783 c -0.50111,-0.50111 -0.91111,-4.5911 -0.91111,-9.08889 0,-4.58271 -0.70338,-8.88116 -1.6,-9.77778 -0.88,-0.88 -4.45889,-1.6 -7.95309,-1.6 -8.34997,0 -9.11357,-1.61258 -9.11357,-19.24613 V 233.7051 l -13.66667,0.33381 -13.66667,0.33381 -0.98597,-35.33334 c -0.54229,-19.43336 -0.84229,-58.13336 -0.66667,-86.00003 l 0.3193,-50.66666 2.91098,-0.41439 c 2.48819,-0.35421 6.30896,0.60421 23.42235,5.8754 2.14796,0.66161 2.33333,-0.81677 2.33333,-18.609239 0,-22.41401 0.6414,-23.92637 9.90561,-23.356669 6.78926,0.417512 8.76106,-0.686907 8.76106,-4.907112 0,-1.893029 0.77704,-3.254642 1.85734,-3.254642 2.24053,0 3.47599,2.871317 3.47599,8.078312 0,2.550279 1.01805,4.506169 3.00003,5.763764 4.13526,2.623889 45.65246,20.824592 47.50252,20.824592 0.88179,0 1.49745,-2.422062 1.49745,-5.890953 0,-7.157377 1.01498,-10.109047 3.476,-10.109047 1.38346,0 1.85736,2.063587 1.85736,8.087655 0,4.448207 0.57595,9.163833 1.2799,10.479159 0.70395,1.315331 9.14399,5.89021 18.75568,10.16639 9.61174,4.27619 18.04085,8.83064 18.73144,10.121 0.75445,1.40966 1.11345,31.77705 0.89943,76.07929 l -0.35629,73.73317 -0.32201,-74.12668 c -0.29833,-68.7045 -0.49235,-74.27412 -2.65514,-76.14231 -1.28333,-1.1086 -10.00421,-5.4927 -19.37976,-9.74246 -9.37555,-4.24975 -17.36098,-8.235711 -17.74538,-8.857685 -0.38451,-0.621975 -1.60051,-1.130865 -2.70247,-1.130865 -2.79161,0 -49.70532,-20.83263 -54.08942,-24.01912 -1.9711,-1.432617 -7.01103,-3.007561 -11.19987,-3.499877 -10.84224,-1.274296 -11.21644,-0.503383 -11.21644,23.107169 0,22.140248 1.21079,20.891638 -15.31442,15.792738 -5.85627,-1.80697 -11.15706,-2.77609 -11.77955,-2.1536 -0.6225,0.62249 -0.931,2.551 -0.68557,4.28558 0.33748,2.38517 1.16193,3.05472 3.38298,2.74734 3.34633,-0.46312 19.95398,4.37928 22.62663,6.59738 1.37843,1.14399 1.76993,8.34634 1.76993,32.5603 0,32.56253 -0.6483,36.12652 -5.42066,29.79964 l -2.38811,-3.16598 -5.76228,4.36662 c -3.16925,2.40164 -7.71228,5.24809 -10.09561,6.32544 -3.69426,1.66993 -4.33334,2.64929 -4.33334,6.6406 0,3.79389 0.64604,4.9274 3.40656,5.97694 1.87362,0.71235 6.17927,3.41228 9.56811,5.99986 6.83232,5.21686 8.58826,5.31449 9.71534,0.54012 0.41998,-1.77896 1.6365,-3.23448 2.70343,-3.23448 1.62912,0 1.99746,4.77905 2.29918,29.83212 0.26094,21.6644 -0.0778,30.35862 -1.23674,31.75518 -1.22305,1.4737 -4.34562,1.82451 -13.36234,1.50123 -11.43898,-0.41015 -11.76625,-0.33839 -11.76327,2.57813 0.003,2.91091 0.39906,3.00001 13.3364,3.00001 h 13.33333 v 15.17007 c 0,10.57505 0.50896,15.59247 1.6803,16.56459 2.63697,2.1885 18.88343,2.04285 35.59389,-0.31909 8.40078,-1.18741 21.60075,-2.69288 29.33331,-3.34548 31.09186,-2.62407 50.00487,-5.44492 51.72586,-7.71484 1.4846,-1.95813 1.66667,-1.96753 1.66667,-0.0861 0,2.93033 -1.98445,3.46971 -19.04262,5.17588 -20.51779,2.05225 -20.95738,2.27305 -20.95738,10.5264 0,4.8339 -0.51638,6.69525 -1.85736,6.69525 -2.32647,0 -3.47601,-2.90209 -3.47601,-8.77572 0,-4.49077 -0.0831,-4.55594 -5.66662,-4.4444 -3.1167,0.0623 -14.66668,1.11226 -25.66667,2.33334 l -20,2.22012 -0.66671,9.60414 c -0.6282,9.05071 -2.36714,13.58424 -4.42222,11.52919 z m -19.88292,-90.13333 c 0.3338,-24.31415 -0.2866,-29.43598 -3.02819,-25 -1.51701,2.45457 -5.01269,1.37103 -10.75373,-3.33334 -3.13228,-2.56666 -6.04408,-4.66666 -6.47067,-4.66666 -0.42658,0 -0.7756,13.52524 -0.7756,30.05608 v 30.05609 l 10.33334,-0.38944 10.33333,-0.38939 z m -13.42313,-57.66667 c 6.96219,-5.31601 7.90888,-5.51984 11.31608,-2.43637 2.39101,2.16383 2.45373,1.34176 2.10499,-27.58811 l -0.35946,-29.8184 -8,-2.39378 c -13.78915,-4.12602 -14.00062,-4.01668 -13.99623,7.23667 0.007,15.47273 1.69999,59.66666 2.28702,59.66666 0.29471,0 3.28614,-2.1 6.6476,-4.66667 z m 30.70701,117.20096 c -0.5383,-0.53831 -0.97873,-50.07873 -0.97873,-110.08985 0,-91.04492 0.29989,-109.111107 1.81124,-109.111107 1.51731,0 47.1056,19.720451 84.85542,36.706507 l 10.00003,4.49965 0.89927,81.73026 c 0.49487,44.95164 0.60468,82.77885 0.24441,84.06049 -0.36031,1.28162 -1.96485,2.58321 -3.56596,2.8924 -3.90067,0.75327 -29.94862,3.29525 -41.57778,4.05752 -8.98262,0.58879 -9.05776,0.56945 -2.00002,-0.51456 4.03336,-0.61949 15.13333,-1.88891 24.66666,-2.82094 9.53333,-0.93202 18.38337,-2.22197 19.66669,-2.86654 1.53606,-0.77151 2.33333,-2.72353 2.33333,-5.71301 0,-4.47378 -1.78771,-7.19932 -3.21128,-4.89594 -1.03489,1.6745 -8.93012,2.50008 -47.28915,4.94497 -31.26975,1.99304 -33.99791,1.99164 -36,-0.0186 -1.96213,-1.97002 -2.13806,-10.54596 -1.86689,-91.018 0.192,-57.03394 0.77667,-89.320365 1.63246,-90.176161 0.88859,-0.888582 3.23406,-0.861021 7.034,0.08265 10.47463,2.601251 73.66854,25.894771 76.03417,28.026521 2.17307,1.95822 2.33333,1.81606 2.33333,-2.06978 0,-3.35844 -0.84536,-4.60988 -4.33331,-6.41492 -6.43966,-3.33256 -88.17009,-39.15897 -89.33334,-39.159146 -1.30757,-1.97e-4 -1.30757,215.654506 0,216.453576 0.55,0.33613 8.80003,-0.24834 18.33335,-1.29878 9.53333,-1.05043 18.5333,-1.72231 20,-1.49306 1.46666,0.22924 -4.83336,1.17545 -14.00002,2.10264 -9.16667,0.9272 -18.47625,1.99992 -20.68793,2.38383 -2.21169,0.3839 -4.46169,0.25756 -5,-0.28075 z m 33.16368,-17.83673 c 9.45502,-0.71635 26.47716,-1.9514 37.82703,-2.74458 13.06643,-0.91311 21.00666,-2.0249 21.64626,-3.03088 0.55559,-0.87382 1.01931,-33.49591 1.03055,-72.49353 0.0202,-62.69893 -0.22223,-71.14724 -2.07481,-73 -1.1524,-1.15238 -2.25587,-2.09524 -2.45216,-2.09524 -0.19603,0 -17.07983,-6 -37.51906,-13.33333 -20.43919,-7.33334 -38.23572,-13.333335 -39.54787,-13.333335 -2.24061,0 -2.39421,2.655585 -2.52629,43.666665 -0.38551,119.74891 -0.19553,135.30074 1.67,136.48272 2.2592,1.4316 1.42745,1.43608 21.94635,-0.11852 z m 32.52425,-11.65334 c -1.72734,-0.38062 -1.90911,-4.32993 -1.33332,-28.96855 0.36687,-15.69032 1.14394,-29.0034 1.7273,-29.58462 0.58336,-0.58122 2.22523,-0.32947 3.64855,0.55942 3.61852,2.2598 3.91836,2.12627 5.51585,-2.45614 1.06975,-3.06877 2.12056,-3.97237 4.26396,-3.66666 2.79856,0.39917 2.85011,0.90486 3.20232,31.43805 0.27867,24.15049 -0.0151,31.14973 -1.33332,31.56152 -2.66472,0.83367 -13.48243,1.60372 -15.69134,1.11698 z m 15.33334,-32.26645 c 0,-22.82493 -0.39609,-30.021 -1.6771,-30.4479 -1.01569,-0.3386 -2.01051,1.10809 -2.52256,3.66844 -0.794,3.9699 -1.11828,4.17629 -5.32293,3.38749 l -4.47743,-0.83997 v 27.46344 27.46342 l 7.00003,-0.403 6.99999,-0.403 z m -28.46982,30.22223 c -1.17316,-1.17095 -7.10198,-1.66667 -19.93333,-1.66667 h -18.26353 l -0.32,-66.66667 c -0.17588,-36.66666 0.15622,-67.41113 0.73776,-68.32105 0.82132,-1.28461 3.27695,-1.01974 10.98663,1.18507 5.46092,1.56171 14.12889,3.50619 19.26224,4.32106 10.65303,1.69108 12.13833,3.83659 3.33334,4.81492 l -6.00002,0.66667 -0.3704,56.66667 c -0.20359,31.16667 -0.064,57.93058 0.31093,59.47537 0.53004,2.18562 2.2071,3.07301 7.55951,4 5.32001,0.92142 7.12784,1.87095 7.97964,4.1913 0.87927,2.39508 0.62604,2.99999 -1.25571,2.99999 -1.29638,0 -3.10848,-0.74999 -4.02686,-1.66666 z m -19.86353,-4.98532 6.33333,-0.0146 v -61.8466 -61.84653 l -6.33333,-2.05033 c -3.48332,-1.12769 -8.49109,-2.44623 -11.12839,-2.93008 l -4.79507,-0.87974 -0.87155,10.31111 c -1.21046,14.31922 -1.09874,118.56918 0.1285,119.80376 0.55005,0.55338 3.10002,0.65998 5.66667,0.23691 2.5667,-0.42311 7.51667,-0.77584 11.00004,-0.7839 z m 42.39924,-79.89152 c -1.16787,-2.18224 -2.06115,-2.47216 -4.61979,-1.49938 -1.74453,0.66329 -3.53361,0.84427 -3.97566,0.4022 -0.44195,-0.44206 -0.81295,-9.85377 -0.82419,-20.91488 -0.0101,-11.06111 -0.59031,-21.01111 -1.2869,-22.11111 -0.69654,-1.1 -3.23734,-2.08451 -5.64621,-2.18781 -4.61869,-0.19804 -40.52848,-11.92161 -43.37981,-14.16231 -1.87449,-1.47307 -2.28112,-9.77942 -0.53165,-10.86065 1.65452,-1.02257 42.087,13.89943 44.67547,16.48793 0.76423,0.76423 2.64255,1.3895 4.17401,1.3895 3.39982,0 16.33512,4.45298 18.11997,6.23778 0.76628,0.76629 1.14373,11.02146 0.92724,25.19395 -0.35779,23.42197 -0.42331,23.90992 -3.27483,24.31585 -1.84981,0.26335 -3.43721,-0.57126 -4.35765,-2.29108 z m 6.29765,-23.10044 0.36334,-23.42416 -8.00983,-2.70496 c -4.40541,-1.48773 -8.34353,-2.16503 -8.75142,-1.50511 -0.40768,0.65992 0.18293,2.98769 1.31296,5.17281 1.57092,3.03783 2.0545,8.48465 2.0545,23.14156 v 19.16862 l 3.81213,-0.55949 c 3.05291,-0.4481 3.96473,0.0242 4.57857,2.3714 0.42885,1.63908 1.53988,2.67362 2.5212,2.34718 1.34309,-0.44679 1.84003,-6.07878 2.1183,-24.00785 z M 222.01605,89.14963 c 0,-2.63064 -1.1641,-3.64935 -6.33333,-5.54236 -3.48332,-1.27561 -11.4367,-4.24537 -17.67418,-6.59944 -6.23748,-2.35408 -13.28746,-4.7077 -15.66665,-5.23025 -3.98599,-0.87546 -4.32584,-0.68609 -4.32584,2.41048 0,1.84832 0.74658,3.846 1.65901,4.43928 1.5103,0.98195 38.99888,13.33514 41.34102,13.62261 0.55,0.0675 0.99997,-1.32763 0.99997,-3.10032 z"
           id="path78" />
        <path
           style="fill:#b1b1b1;stroke-width:1.33333"
           d="m 163.46051,266.56026 c 0.30558,-0.26351 2.35556,-0.88173 4.55556,-1.37384 2.92122,-0.65342 3.46059,-0.52973 1.99998,0.45869 -1.80047,1.21841 -7.89352,2.069 -6.55554,0.91515 z m -14.66105,-2.7136 c -1.0231,-1.23276 -1.39822,-6.73704 -1.1131,-16.33333 l 0.43001,-14.47398 0.28316,14.73334 c 0.17925,9.32584 0.87041,15.32057 1.88317,16.33333 0.88,0.88 1.25347,1.6 0.82992,1.6 -0.42351,0 -1.46447,-0.8367 -2.31319,-1.85936 z m 27.56549,-0.41701 c 1.65855,-0.31894 4.05855,-0.30679 5.33331,0.0267 1.27481,0.33371 -0.0821,0.59467 -3.01551,0.57987 -2.93336,-0.0146 -3.97636,-0.28785 -2.3178,-0.60677 z m 12.67648,-1.3143 c 1.29729,-0.33804 3.0973,-0.31582 4,0.0494 0.9027,0.36525 -0.15874,0.64182 -2.35868,0.61465 -2.20003,-0.0272 -2.9386,-0.326 -1.64132,-0.66405 z m 11.97465,-1.32845 c 1.28333,-0.33537 3.38334,-0.33537 4.66666,0 1.28333,0.33537 0.23333,0.60977 -2.33333,0.60977 -2.5667,0 -3.61665,-0.27439 -2.33333,-0.60977 z m 10.99999,-1.07634 c 3.03159,-1.02676 19.82504,-1.61199 17.33332,-0.60405 -1.46666,0.5933 -6.26666,1.07353 -10.66663,1.06719 -4.40003,-0.007 -7.40002,-0.21478 -6.66669,-0.46312 z m -50.7196,-3.6712 c -0.34978,-0.91667 -0.48091,-50.55849 -0.29148,-110.31515 0.30262,-95.457834 0.58724,-108.666275 2.34443,-108.795051 1.18111,-0.08658 1.31135,0.0837 0.31809,0.415849 -1.33928,0.447848 -1.6109,22.950767 -1.33333,110.461852 0.19169,60.44467 0.17975,109.89937 -0.0267,109.8993 -0.20636,-8e-5 -0.66135,-0.75013 -1.0111,-1.6668 z m 9.07833,0.74267 c 1.29728,-0.33804 3.09725,-0.31581 4,0.0494 0.9027,0.36525 -0.15874,0.64183 -2.35873,0.61466 -2.19999,-0.0272 -2.93861,-0.326 -1.64127,-0.66406 z m 67.9746,0.006 c 1.28333,-0.33537 3.38333,-0.33537 4.66666,0 1.28333,0.33537 0.23332,0.60977 -2.33333,0.60977 -2.56665,0 -3.61665,-0.27439 -2.33333,-0.60977 z m -83.71962,-2.08155 c -0.34979,-0.91668 -0.48091,-50.21671 -0.29148,-109.55565 0.27097,-84.879565 0.6999,-108.007426 2.01112,-108.444435 1.32436,-0.441399 1.66666,22.059379 1.66666,109.555635 0,103.34398 -0.4034,116.26207 -3.38629,108.44445 z m 27.71962,0.74755 c 1.28333,-0.33537 3.38333,-0.33537 4.66666,0 1.28332,0.33537 0.23332,0.60977 -2.33333,0.60977 -2.56665,0 -3.61666,-0.27439 -2.33333,-0.60977 z m 68,0 c 1.28333,-0.33537 3.38333,-0.33537 4.66666,0 1.28333,0.33537 0.23332,0.60977 -2.33333,0.60977 -2.56665,0 -3.61665,-0.27439 -2.33333,-0.60977 z m -54.64128,-1.33821 c 1.29728,-0.33804 3.09729,-0.31582 4,0.0494 0.9027,0.36525 -0.15874,0.64182 -2.35873,0.61465 -2.19999,-0.0272 -2.93856,-0.326 -1.64127,-0.66405 z m 66.30793,0.39998 c 0,-0.28821 0.93117,-0.88133 2.06926,-1.31807 1.18657,-0.4553 1.72175,-0.23181 1.25466,0.52401 -0.78302,1.26695 -3.32392,1.87394 -3.32392,0.79406 z m -55.66665,-1.72843 c 1.28333,-0.33537 3.38333,-0.33537 4.66666,0 1.28333,0.33537 0.23332,0.60978 -2.33333,0.60978 -2.56665,0 -3.61666,-0.2744 -2.33333,-0.60978 z m 12,-1.33333 c 1.28333,-0.33537 3.38333,-0.33537 4.66666,0 1.28333,0.33537 0.23332,0.60977 -2.33333,0.60977 -2.56665,0 -3.61665,-0.27439 -2.33333,-0.60977 z m 14.69203,-1.33821 c 1.29729,-0.33804 3.0973,-0.31582 4,0.0494 0.90271,0.36526 -0.15874,0.64183 -2.35867,0.61465 -2.20004,-0.0272 -2.93861,-0.32599 -1.64133,-0.66405 z m 33.46792,-12.4098 c 0,-7.7 0.22022,-10.85 0.48983,-7 0.2691,3.85 0.2691,10.15 0,14 -0.2691,3.85 -0.48983,0.7 -0.48983,-7 z m -22.82663,11.08089 c 1.28332,-0.33537 3.38333,-0.33537 4.66671,0 1.28332,0.33537 0.23332,0.60978 -2.33338,0.60978 -2.56665,0 -3.61666,-0.2744 -2.33333,-0.60978 z m 14.61412,-2.27974 c 0.94559,-1.02604 1.92932,-1.66596 2.18608,-1.42205 0.79088,0.75129 -1.21353,3.28757 -2.5981,3.28757 -0.71896,0 -0.53357,-0.83949 0.41222,-1.86552 z m -152.4664,-4.7568 c -3.06457,-2.55305 -3.07394,-2.62348 -0.35437,-2.66666 1.53635,-0.0242 3.87933,1.15563 5.20665,2.6223 2.03742,2.25131 2.0926,2.66667 0.35437,2.66667 -1.13241,0 -3.47539,-1.18004 -5.20665,-2.62231 z m 71.8523,-2.31867 c 1.64999,-0.31783 4.34999,-0.31783 5.99998,0 1.65004,0.31779 0.29984,0.57783 -2.99999,0.57783 -3.29998,0 -4.64998,-0.26003 -2.99999,-0.57783 z m 16.685,-1.34913 c 2.02674,-0.30649 5.02673,-0.29828 6.66664,0.0181 1.63996,0.31647 -0.0202,0.56722 -3.68499,0.55722 -3.66665,-0.0106 -5.00838,-0.26895 -2.98165,-0.57543 z m 17.31498,-1.34785 c 2.75003,-0.28765 7.25004,-0.28765 10.00002,0 2.74999,0.28765 0.49991,0.52301 -5.00001,0.52301 -5.50002,0 -7.75,-0.23534 -5.00001,-0.52301 z m 20.66671,-1.32657 c 2.38332,-0.29576 6.28328,-0.29576 8.66665,0 2.38332,0.29576 0.43339,0.53777 -4.33335,0.53777 -4.76664,0 -6.71667,-0.24199 -4.3333,-0.53777 z M 75.349396,232.33422 c -2.56667,-0.58583 -10.66667,-2.65411 -18,-4.59621 -7.33334,-1.94209 -15.9147,-4.08152 -19.06969,-4.75428 -5.94581,-1.26787 -11.58162,-3.83151 -8.58203,-3.90383 0.92488,-0.0222 10.11748,2.1139 20.42799,4.74711 17.91313,4.57484 18.86071,4.68419 21.31839,2.46001 2.36192,-2.1375 2.572,-2.14578 2.572,-0.10139 0,1.22444 1.95,3.41519 4.33334,4.86833 4.62124,2.81763 4.31265,2.94933 -3,1.28026 z m 45.330234,-2.96153 c -0.003,-2.91141 0.33391,-2.9872 11.4094,-2.56655 7.49797,0.28478 12.07244,-0.11429 13.33645,-1.16325 2.62192,-2.176 2.85824,-59.68909 0.25726,-62.60589 -1.42239,-1.5951 -1.31781,-1.60456 0.71351,-0.0646 2.19553,1.66452 2.33378,4.19346 1.7823,32.60236 -0.32882,16.93883 -0.79989,32.14787 -1.04682,33.79787 -0.43031,2.87528 -0.98943,3 -13.44899,3 -12.59167,0 -13.0001,-0.0943 -13.00311,-3 z m 134.66978,0.49658 c 0,-1.37687 -0.90003,-3.25033 -2.00002,-4.16326 -1.72679,-1.43313 -1.99998,-10.37942 -1.99998,-65.49658 0,-37.80005 0.4984,-63.83675 1.2222,-63.83675 0.67225,0 1.82486,-1.65 2.56141,-3.66667 0.9277,-2.54003 1.37152,18.35395 1.44444,68 0.058,39.41667 -0.19452,71.66667 -0.56139,71.66667 -0.36686,0 -0.66666,-1.12653 -0.66666,-2.50341 z m -78.33333,-4.00726 c -2.22956,-7.28702 -2.41058,-134.94132 -0.19704,-139.07699 1.10857,-2.07132 1.02668,-3.57419 -0.3331,-6.11902 -1.56991,-2.93764 -1.89334,1.00185 -2.50396,30.49999 l -0.70123,33.87335 -0.2051,-39.33333 c -0.11943,-22.91371 0.27313,-38.22014 0.94085,-36.66667 0.63027,1.46667 1.18808,1.98087 1.23963,1.14266 0.27667,-4.50288 7.01566,-3.28464 24.15295,4.36637 5.53257,2.47004 10.80249,4.49097 11.71099,4.49097 0.90845,0 4.61188,1.50001 8.2298,3.33334 3.61791,1.83333 7.64795,3.34252 8.95566,3.35375 1.30772,0.0111 3.27766,0.59422 4.37765,1.29554 1.3626,0.86874 0.30035,1.01574 -3.33334,0.46126 -2.93331,-0.44765 -6.0552,-1.38075 -6.93745,-2.07359 -3.5199,-2.76408 -43.08601,-17.17982 -44.59419,-16.24771 -1.74947,1.08123 -1.34284,9.38758 0.53165,10.86065 2.78768,2.19065 38.70897,13.96155 43.2192,14.16231 2.32058,0.10331 4.72058,0.68573 5.33337,1.29429 0.61274,0.60856 1.4141,10.80856 1.78076,22.66666 0.63617,20.57453 0.78856,21.54679 3.33335,21.26718 1.88049,-0.20662 1.5748,0.21059 -1.03696,1.41519 -5.00097,2.3066 -15.6297,11.30142 -15.6297,13.22705 0,2.69705 11.10057,12.9841 14.01091,12.9841 1.53398,0 3.53406,0.74499 4.44457,1.65553 1.3185,1.31847 1.91153,1.25061 2.91296,-0.33336 0.75555,-1.19513 1.26554,-1.35512 1.27778,-0.40088 0.0353,2.59292 -2.35228,3.28486 -5.19801,1.50767 -1.46318,-0.91375 -3.13756,-1.18581 -3.72092,-0.60459 -0.58336,0.58122 -1.36063,13.90937 -1.72729,29.61811 -0.57767,24.74779 -0.39962,28.58331 1.33331,28.72577 4.89429,0.40235 -13.88709,2.31466 -31.0978,3.16635 l -18.90217,0.93538 z m 43.81274,-1.82266 c -0.8518,-2.32035 -2.65963,-3.26988 -7.97964,-4.1913 -5.35242,-0.92699 -7.02947,-1.81438 -7.55951,-4 -0.37442,-1.54479 -0.51442,-28.3087 -0.31093,-59.47537 l 0.3704,-56.66667 6.00002,-0.66667 c 8.80499,-0.97833 7.31969,-3.12384 -3.33334,-4.81492 -5.13335,-0.81487 -13.80132,-2.75935 -19.26224,-4.32106 -7.70968,-2.20481 -10.16531,-2.46968 -10.98663,-1.18507 -0.58174,0.90992 -0.91374,31.65439 -0.73776,68.32105 l 0.32,66.66667 h 18.26353 c 12.83135,0 18.76016,0.49573 19.93333,1.66667 0.91837,0.91667 2.73048,1.66666 4.02686,1.66666 1.88175,0 2.13498,-0.60491 1.25571,-2.99999 z m -49.37413,3.55555 c 0.064,-1.55326 0.37996,-1.86919 0.80554,-0.80555 0.38501,0.96249 0.33764,2.11249 -0.10532,2.55556 -0.44296,0.44306 -0.75818,-0.34444 -0.70028,-1.75001 z m 67.22807,-0.43167 6.66663,-0.79053 0.35779,-31.03384 0.3578,-31.03385 -3.02468,-1.21497 c -1.83902,-0.73873 -2.21455,-1.2481 -0.95799,-1.29949 4.85372,-0.1985 5.2667,2.4087 5.2667,33.24881 0,21.65926 -0.45001,30.58329 -1.6,31.73334 -0.88002,0.88 -4.33003,1.50573 -7.6667,1.39053 l -6.06664,-0.20948 z m -66.34361,-25.12386 c -0.41424,-10.81667 -0.34671,-26.26667 0.15067,-34.33334 0.70219,-11.38675 0.93486,-6.98867 1.04048,19.66667 0.0746,18.88333 0.005,34.33333 -0.15068,34.33333 -0.15773,0 -0.62599,-8.85 -1.04047,-19.66666 z M 20.016056,217.70603 c -1.0429,-1.68747 0.72218,-1.68747 3.33334,0 1.72358,1.11387 1.68839,1.29532 -0.25464,1.31293 -1.24006,0.0111 -2.62547,-0.57959 -3.0787,-1.31293 z M 6.0160555,214.67084 c -3.61291,-1.13139 -4.05357,-1.56835 -1.95151,-1.93517 1.49333,-0.26058 4.79333,0.42769 7.3333305,1.52943 5.45009,2.36408 1.7602,2.64225 -5.3818205,0.40572 z M -14.31727,211.31336 c -2.517311,-0.50654 -3.285856,-4.274 -0.871877,-4.274 2.195271,0 15.8718725,4.10285 15.8718725,4.76139 0,0.62831 -11.2761475,0.2619 -14.9999955,-0.4874 z m 58.173336,-0.8768 c -0.93829,-2.44515 0.42729,-4.73053 2.82666,-4.73053 2.74411,0 3.7838,2.51732 1.95153,4.72507 -2.05123,2.47159 -3.83107,2.47361 -4.77819,0.006 z M 259.96593,143.70603 c 2.5e-4,-35.2 0.17235,-49.40852 0.38249,-31.57449 0.21014,17.83404 0.21014,46.63404 -4.5e-4,64 -0.21065,17.36597 -0.38249,2.77449 -0.38199,-32.42551 z M 71.410466,186.44629 c -1.38289,-1.66628 -1.39492,-2.85338 -0.0616,-6.07239 0.91153,-2.20065 2.20338,-4.0012 2.87077,-4.0012 2.2424,0 2.56492,3.45156 0.73025,7.81496 -1.59063,3.78299 -2.03762,4.06823 -3.53946,2.25863 z m 60.913604,-20.04591 c -3.38884,-2.58757 -7.6945,-5.28751 -9.56811,-5.99985 -2.76052,-1.04955 -3.40656,-2.18305 -3.40656,-5.97695 0,-3.9913 0.63908,-4.97066 4.33333,-6.6406 2.38334,-1.07734 6.92636,-3.9238 10.09562,-6.32544 l 5.76228,-4.36661 2.49907,3.30755 c 1.71769,2.27338 2.93039,2.87788 3.87859,1.93333 0.84695,-0.84368 1.52835,-13.19784 1.76498,-32.00001 l 0.38541,-30.62578 0.307,30.83675 c 0.26189,26.30277 0.007,31.08556 -1.73207,32.52903 -1.688,1.40092 -2.57045,1.19309 -5.12528,-1.20706 l -3.08621,-2.89933 -7.77443,6.03697 c -4.27593,3.32034 -8.26956,6.03697 -8.87471,6.03697 -0.60516,0 -1.06793,1.35001 -1.0284,3.00001 0.0506,2.10685 2.47919,4.71753 8.15774,8.76904 10.30252,7.35057 11.77038,7.90581 11.77038,4.4523 0,-1.50185 0.54919,-3.07005 1.2204,-3.48488 0.70878,-0.43807 0.81804,0.75024 0.26064,2.83443 -1.37112,5.12681 -2.89299,5.09435 -9.83971,-0.20989 z m 39.23584,-18.02769 c 0,-1.83333 0.30286,-2.58334 0.67255,-1.66667 0.36989,0.91667 0.36989,2.41667 0,3.33334 -0.36989,0.91666 -0.67255,0.16665 -0.67255,-1.66667 z m 67.30114,-5.04483 c -0.35528,-0.57465 0.95944,-1.02465 2.92132,-1 l 3.56702,0.0448 0.36485,-23.82553 c 0.27162,-17.73438 -0.0695,-24.38145 -1.33332,-26 -1.51201,-1.93621 -1.44242,-1.97396 0.63527,-0.34454 2.0617,1.61693 2.33332,4.51407 2.33332,24.89094 0,12.68357 -0.36434,24.0101 -0.80932,25.17007 -0.82822,2.15826 -6.51575,2.94649 -7.67904,1.06423 z m -2.17832,-53.62184 c -2.43729,-1.57509 -0.33209,-1.57509 3.33334,0 1.75834,0.75558 1.98541,1.17088 0.66666,1.21921 -1.09999,0.0403 -2.90001,-0.50833 -4,-1.21921 z m 1.33332,-8 c -1.1,-0.71087 -1.39999,-1.29249 -0.66666,-1.29249 0.73333,0 2.23335,0.58162 3.33334,1.29249 1.09999,0.71088 1.39999,1.2925 0.66666,1.2925 -0.73333,0 -2.2333,-0.58162 -3.33334,-1.2925 z m -92.58602,-3.86954 c -1.09259,-1.76784 -19.12178,-6.99906 -22.50999,-6.53133 -2.18477,0.3016 -3.01448,-0.38017 -3.35019,-2.75291 -0.24541,-1.73458 0.0631,-3.66309 0.68558,-4.28558 0.62249,-0.62249 5.92328,0.34661 11.77954,2.1536 16.40602,5.06213 15.17386,6.29696 15.68034,-15.71424 0.40919,-17.78181 0.41605,-17.717694 0.10733,1.000003 -0.45364,27.505837 -0.59417,29.040407 -2.39261,26.130457 z m 107.2527,-1.46379 c -1.09999,-0.71088 -1.39999,-1.2925 -0.66666,-1.2925 0.73333,0 2.23335,0.58162 3.33334,1.2925 1.1,0.71088 1.39999,1.2925 0.66666,1.2925 -0.73333,0 -2.23335,-0.58162 -3.33334,-1.2925 z m -33.33332,-1.33334 c -1.09999,-0.71087 -1.39998,-1.29249 -0.66665,-1.29249 0.73332,0 2.23329,0.58162 3.33329,1.29249 1.10004,0.71088 1.40003,1.29251 0.66671,1.29251 -0.73333,0 -2.23335,-0.58163 -3.33335,-1.29251 z m -20.41665,-6.91081 c -4.26255,-1.48516 -7.51668,-2.93363 -7.2315,-3.21881 0.60629,-0.60631 16.98147,4.77964 16.98147,5.58536 0,0.8698 -1.52118,0.50056 -9.74997,-2.36655 z m -16.91671,-6.42252 c -1.1,-0.71087 -1.39999,-1.292495 -0.66666,-1.292495 0.73333,0 2.23335,0.581625 3.33334,1.292495 1.09999,0.71088 1.39999,1.2925 0.66666,1.2925 -0.73333,0 -2.2333,-0.58162 -3.33334,-1.2925 z m -9.33332,-1.518228 c 0,-0.63164 1.50002,-1.148437 3.33334,-1.148437 1.83332,0 3.33334,0.230047 3.33334,0.511234 0,0.281197 -1.50002,0.797974 -3.33334,1.148441 -1.83332,0.35048 -3.33334,0.12039 -3.33334,-0.511238 z m 56.67613,-1.133163 c -0.46715,-0.755815 0.068,-0.979341 1.2546,-0.524014 2.3099,0.886385 2.73255,1.842076 0.81462,1.842076 -0.69004,0 -1.62122,-0.593128 -2.06922,-1.318062 z m -22.00945,-2.681938 c -1.09999,-0.710878 -1.39998,-1.292502 -0.66665,-1.292502 0.73332,0 2.23329,0.581624 3.33329,1.292502 1.10004,0.710874 1.40003,1.292498 0.66671,1.292498 -0.73333,0 -2.23335,-0.581624 -3.33335,-1.292498 z m 17.33332,0 c -1.20174,-0.776617 -1.36617,-1.300651 -0.41222,-1.312917 0.87337,-0.01109 1.9588,0.579583 2.41204,1.312917 1.02305,1.655363 0.56149,1.655363 -2.00002,0 z m -17.33332,-6.666668 c -2.5667,-1.405193 -4.06667,-2.55489 -3.33334,-2.55489 0.73333,0 3.43332,1.149697 5.99998,2.55489 2.5667,1.405193 4.06667,2.55489 3.33334,2.55489 -0.73333,0 -3.43332,-1.149697 -5.99998,-2.55489 z m -24,-4 c -1.09999,-0.710874 -1.39998,-1.292498 -0.66666,-1.292498 0.73333,0 2.2333,0.581624 3.3333,1.292498 1.10004,0.710874 1.40003,1.292498 0.6667,1.292498 -0.73332,0 -2.23334,-0.581624 -3.33334,-1.292498 z m 12,-1.333332 c -1.09999,-0.710878 -1.39998,-1.292502 -0.66666,-1.292502 0.73333,0 2.2333,0.581624 3.3333,1.292502 1.10004,0.710874 1.40003,1.292498 0.66671,1.292498 -0.73333,0 -2.23335,-0.581624 -3.33335,-1.292498 z M 169.8567,32.533528 c -1.75209,-1.378207 -4.38301,-2.808607 -5.84647,-3.178668 -2.06871,-0.523107 -2.15476,-0.707251 -0.38673,-0.8275 1.25078,-0.08507 4.48454,1.34533 7.1861,3.178663 2.70155,1.833333 4.30911,3.333332 3.57235,3.333332 -0.73675,0 -2.77311,-1.127625 -4.52525,-2.505827 z m -19.95435,-4.580455 c 0.6026,-0.602603 3.4247,-0.892014 6.27134,-0.643129 l 5.17571,0.452485 -6.27135,0.643134 c -3.44923,0.353714 -5.7783,0.150073 -5.1757,-0.452535 z"
           id="path76" />
        <path
           style="fill:#939393;stroke-width:1.33333"
           d="m 154.98634,264.74371 c 2.36697,-0.29455 6.56697,-0.29938 9.33333,-0.0106 2.76635,0.28866 0.82973,0.52962 -4.3036,0.53555 -5.13333,0.006 -7.39672,-0.23025 -5.02973,-0.52479 z m 16.11307,-1.28183 c 0.96247,-0.38516 2.1125,-0.33779 2.55557,0.10522 0.44296,0.44306 -0.3447,0.75818 -1.75003,0.70029 -1.55323,-0.064 -1.8692,-0.37992 -0.80554,-0.80554 z m 11.27539,-1.34651 c 1.29728,-0.33804 3.09725,-0.31582 4,0.0494 0.9027,0.36525 -0.15874,0.64182 -2.35873,0.61465 -2.19999,-0.0272 -2.93861,-0.326 -1.64127,-0.66405 z m 10.64128,-1.32845 c 1.28333,-0.33537 3.38334,-0.33537 4.66666,0 1.28333,0.33537 0.23333,0.60977 -2.33333,0.60977 -2.5667,0 -3.61665,-0.27439 -2.33333,-0.60977 z m 13.35872,-1.33822 c 1.29728,-0.33804 3.09725,-0.31581 4,0.0494 0.9027,0.36525 -0.15874,0.64183 -2.35873,0.61465 -2.19999,-0.0272 -2.93861,-0.326 -1.64127,-0.66405 z m -48.0254,-1.37388 c -2.38333,-0.29576 -4.33333,-1.08091 -4.33333,-1.74476 0,-0.66385 0.9,-0.86165 2,-0.43953 1.76784,0.67839 2,-12.03424 2,-109.51782 0,-97.483594 -0.23217,-110.196221 -2,-109.517837 -1.1,0.422098 -2,0.186306 -2,-0.524013 0,-1.459437 2.35625,-1.546815 5.33333,-0.197796 1.75429,0.794946 2,14.420193 2,110.906286 v 110 l 4.66667,0.82448 c 4.2908,0.75807 4.34447,0.82143 0.66666,0.78662 -2.19999,-0.0207 -5.95,-0.27984 -8.33333,-0.57563 z m 60.66666,0.0815 c 0.91666,-0.36989 2.41668,-0.36989 3.33334,0 0.91666,0.36989 0.1668,0.67252 -1.66667,0.67252 -1.83332,0 -2.58333,-0.30261 -1.66667,-0.67252 z m -41.97463,-1.37428 c 1.29729,-0.33804 3.0973,-0.31582 4,0.0494 0.9027,0.36525 -0.15874,0.64182 -2.35868,0.61465 -2.20003,-0.0272 -2.9386,-0.326 -1.64132,-0.66406 z m 53.30797,0.006 c 1.28333,-0.33537 3.38333,-0.33537 4.66666,0 1.28333,0.33537 0.23332,0.60978 -2.33333,0.60978 -2.56665,0 -3.61665,-0.2744 -2.33333,-0.60978 z m -39.9746,-1.33821 c 1.29728,-0.33804 3.09725,-0.31581 4,0.0494 0.9027,0.36525 -0.15874,0.64182 -2.35873,0.61465 -2.19999,-0.0272 -2.93861,-0.326 -1.64127,-0.66405 z m 51.9746,0.006 c 1.28333,-0.33537 3.38333,-0.33537 4.66666,0 1.28333,0.33537 0.23332,0.60977 -2.33333,0.60977 -2.56665,0 -3.61665,-0.27439 -2.33333,-0.60977 z m -39.9746,-1.33822 c 1.29728,-0.33804 3.09725,-0.31582 4,0.0494 0.9027,0.36525 -0.15874,0.64183 -2.35873,0.61465 -2.19999,-0.0272 -2.93861,-0.32599 -1.64127,-0.66405 z m 53.30792,0.006 c 1.28332,-0.33537 3.38333,-0.33537 4.66671,0 1.28332,0.33537 0.23332,0.60978 -2.33338,0.60978 -2.56665,0 -3.61666,-0.2744 -2.33333,-0.60978 z m -41.33332,-1.33333 c 1.28333,-0.33537 3.38333,-0.33537 4.66666,0 1.28333,0.33537 0.23332,0.60977 -2.33333,0.60977 -2.56665,0 -3.61666,-0.27439 -2.33333,-0.60977 z m 49.75239,-0.80507 c 0.50092,-1.31495 1.24624,-2.05496 1.6568,-1.64444 0.4107,0.41051 8e-4,1.48639 -0.91042,2.39084 -1.31678,1.30702 -1.46993,1.15387 -0.74638,-0.7464 z m -37.75239,-0.5296 c 1.28333,-0.33537 3.38333,-0.33537 4.66666,0 1.28333,0.33537 0.23332,0.60977 -2.33333,0.60977 -2.56665,0 -3.61665,-0.27439 -2.33333,-0.60977 z m 13.35872,-1.33821 c 1.29728,-0.33804 3.09729,-0.31582 4,0.0494 0.9027,0.36525 -0.15874,0.64182 -2.35873,0.61465 -2.19999,-0.0272 -2.93856,-0.326 -1.64127,-0.66405 z m 11.9746,-1.32845 c 1.28332,-0.33537 3.38333,-0.33537 4.66671,0 1.28332,0.33537 0.23332,0.60977 -2.33338,0.60977 -2.56665,0 -3.61666,-0.27439 -2.33333,-0.60977 z m 13.62817,-86.41423 c 1.5e-4,-46.93334 0.16731,-65.93987 0.3714,-42.23676 0.20409,23.70312 0.20409,62.10312 -2.5e-4,85.33333 -0.2041,23.23021 -0.3714,3.83676 -0.3709,-43.09657 z m -4.04077,46 c 0,-20.9 0.18444,-29.45 0.4097,-19 0.22526,10.45 0.22526,27.55 0,38 -0.22526,10.45 -0.4097,1.9 -0.4097,-19 z m -83.61711,29.70436 c 2.36694,-0.29455 6.56695,-0.29939 9.33332,-0.0106 2.76636,0.28865 0.82973,0.52963 -4.30358,0.53554 -5.13335,0.006 -7.39673,-0.23025 -5.02974,-0.52478 z m 18.72025,-1.33733 c 2.39647,-0.29677 5.9965,-0.29062 8,0.0136 2.00355,0.30422 0.0403,0.54702 -4.35719,0.53955 -4.40002,-0.008 -6.03923,-0.25641 -3.64281,-0.55315 z m -22.81983,-46.36703 c 0.11692,-25.66666 0.2686,-61.65018 0.33764,-79.96334 0.11691,-31.0899 0.26809,-33.09234 2.2845,-30.21361 1.72437,2.46188 1.85872,3.74322 0.66671,6.35942 -2.21183,4.85437 -2.07577,131.99173 0.14866,139.11967 l 1.64167,5.26015 8.69166,0.5085 c 7.0474,0.41232 6.61991,0.48524 -2.25956,0.38551 -9.98208,-0.11213 -10.98547,0.11308 -11.33762,2.54369 -0.21266,1.46666 -0.29077,-18.33333 -0.17386,-44 z m 49.12933,44.64044 c 8.2817,-1.05352 30.86851,-1.67605 29.88885,-0.82379 -0.30538,0.26583 -8.95556,0.7889 -19.22222,1.16239 -11.42642,0.4157 -15.56369,0.28437 -10.66663,-0.3386 z m -75.99149,-3.94752 c -0.4608,-1.45186 -0.25706,-3.67753 0.45278,-4.94592 1.00327,-1.79275 1.25937,-1.20506 1.15039,2.63976 -0.15985,5.6397 -0.42437,6.02019 -1.60316,2.30616 z m 107.5064,1.02 c -0.22879,-2.87919 -5.00647,-5.52505 -7.95243,-4.40392 -1.78686,0.68002 -1.89848,0.5152 -0.5625,-0.83065 1.23465,-1.24377 1.66667,-9.49001 1.66667,-31.81234 0,-22.30501 -0.43288,-30.57794 -1.66667,-31.84475 -1.34374,-1.37984 -1.14998,-1.62527 1.00002,-1.26667 2.32315,0.38748 2.7203,-0.40259 3.08303,-6.13355 0.45304,-7.15769 -0.59479,-13.21546 -2.12213,-12.26799 -0.52853,0.32787 -0.77495,-10.71018 -0.54763,-24.52899 0.4732,-28.77859 1.33776,-26.71241 -13.07998,-31.26706 -4.03331,-1.27416 -10.49661,-3.75088 -14.36286,-5.50382 -3.86626,-1.75294 -7.76623,-3.18764 -8.66666,-3.18821 -0.90044,-5.8e-4 -5.53711,-1.87378 -10.3038,-4.16266 -4.76664,-2.28889 -10.46667,-4.64791 -12.66666,-5.24227 -2.19999,-0.59436 -5.26055,-1.46776 -6.80123,-1.94087 -1.74473,-0.53577 -3.59131,-0.0701 -4.896,1.23454 -1.90413,1.90412 -2.17716,1.71954 -3.00029,-2.02825 -0.5814,-2.64706 -0.30992,-4.67246 0.75822,-5.65789 1.2672,-1.168993 1.43955,-1.137578 0.7229,0.13178 -1.50773,2.67054 0.46614,4.72929 2.73154,2.84911 1.57284,-1.30536 1.61386,-1.84941 0.21468,-2.84708 -2.94723,-2.101423 2.03353,-0.48585 36.95642,11.9874 38.81625,13.8638 38.97066,13.92605 31.9805,12.89326 -2.93337,-0.43338 -5.99872,-1.33752 -6.81197,-2.00918 -1.39787,-1.15454 -13.3755,-5.16145 -15.52136,-5.19242 -0.55005,-0.008 -1.00002,0.88557 -1.00002,1.98557 0,1.17119 1.24322,2.01958 2.99999,2.04725 1.64999,0.0262 4.50001,0.90472 6.33333,1.95275 1.83332,1.04803 4.71201,1.92677 6.39703,1.95276 1.68501,0.0262 4.50066,1.59784 6.25708,3.49302 3.76451,4.06199 8.05906,3.83348 7.91383,-0.42109 -0.0544,-1.59065 0.39559,-2.58652 1.00001,-2.21303 1.77809,1.09894 1.26025,5.50302 -0.90129,7.66453 -1.7213,1.72134 -1.99998,10.7767 -1.99998,64.99026 0,55.54374 0.24895,63.2655 2.10712,65.31861 1.16767,1.29024 1.8431,3.715 1.51493,5.43832 -0.35124,1.84532 -0.66605,2.1802 -0.77379,0.82353 z M 216.68273,76.37269 c -1.09999,-0.71088 -2.60001,-1.2925 -3.33334,-1.2925 -0.73333,0 -0.43339,0.58162 0.66666,1.2925 1.10004,0.71088 2.60001,1.2925 3.33334,1.2925 0.73333,0 0.43338,-0.58162 -0.66666,-1.2925 z m -6.66668,153.26689 c 6.96667,-0.53262 17.46671,-0.93666 23.33334,-0.89787 l 10.66668,0.0706 -13.33331,0.95693 c -7.33335,0.5263 -17.83338,0.93034 -23.33335,0.89785 l -10.00002,-0.0591 z m 10.9443,-68.31736 c -3.08601,-3.14442 -5.61094,-6.33217 -5.61094,-7.08388 0,-0.75171 1.94999,-3.129 4.33331,-5.28287 l 4.33335,-3.91612 -3.96261,4.38183 c -4.65602,5.14866 -4.15465,6.6204 4.52576,13.28485 3.1043,2.38333 4.82243,4.33332 3.81813,4.33332 -1.00435,0 -4.35099,-2.5727 -7.437,-5.71713 z m 3.72238,-16.11961 c 0,-0.27686 1.05,-1.32687 2.33333,-2.33333 2.11477,-1.6585 2.16194,-1.61134 0.50343,0.50343 -1.74186,2.221 -2.83676,2.92731 -2.83676,1.82992 z m -77.8935,-68.21365 c -0.4671,-1.86105 -0.37136,-4.23768 0.21271,-5.28139 0.67897,-1.21326 1.11194,0.007 1.20048,3.38373 0.16055,6.12341 -0.22325,6.6388 -1.4132,1.89766 z m 111.05674,1.0504 c -1.65846,-2.11474 -1.61129,-2.1619 0.50343,-0.50339 1.28333,1.00646 2.33333,2.05647 2.33333,2.33334 0,1.09738 -1.0949,0.39105 -2.83676,-1.82993 z m 1.50344,-4.33334 c -1.20173,-0.77661 -1.36617,-1.30064 -0.41222,-1.31291 0.87338,-0.0111 1.95881,0.57958 2.412,1.31291 1.02309,1.65537 0.56148,1.65537 -1.99998,0 z m -22.66668,-5.33333 c -1.09999,-0.71088 -1.39999,-1.2925 -0.66666,-1.2925 0.73333,0 2.23335,0.58162 3.33334,1.2925 1.1,0.71088 1.39999,1.2925 0.66666,1.2925 -0.73333,0 -2.23335,-0.58162 -3.33334,-1.2925 z m 9.33332,-0.66667 c -1.83333,-1.04802 -2.73331,-1.9055 -1.99998,-1.9055 0.73333,0 2.83334,0.85748 4.66666,1.9055 1.83332,1.04803 2.73335,1.90551 2.00003,1.90551 -0.73333,0 -2.83334,-0.85748 -4.66671,-1.90551 z m -18.66664,-3.33333 c -1.09999,-0.71088 -1.39998,-1.2925 -0.66665,-1.2925 0.73332,0 2.23329,0.58162 3.33329,1.2925 1.10004,0.71088 1.40003,1.2925 0.66671,1.2925 -0.73333,0 -2.23335,-0.58162 -3.33335,-1.2925 z m 6.66664,-2 c -1.83333,-1.04803 -2.73331,-1.90551 -1.99998,-1.90551 0.73333,0 2.83334,0.85748 4.66666,1.90551 1.83332,1.04803 2.73335,1.9055 2.00003,1.9055 -0.73333,0 -2.83334,-0.85747 -4.66671,-1.9055 z m -18.66664,-3.333335 c -1.09999,-0.710874 -1.39998,-1.292498 -0.66665,-1.292498 0.73332,0 2.23329,0.581624 3.33329,1.292498 1.10004,0.710878 1.40003,1.292502 0.66671,1.292502 -0.73333,0 -2.23335,-0.581624 -3.33335,-1.292502 z m 11.25483,-0.740218 c -2.48536,-1.991191 -2.46899,-2.015809 0.41172,-0.619757 1.64999,0.799592 2.99999,1.732692 2.99999,2.073554 0,1.020296 -0.69146,0.725646 -3.41181,-1.453797 z m -6.17151,-2.837266 c 0.96252,-0.385159 2.1125,-0.337789 2.55556,0.105272 0.44296,0.443061 -0.34419,0.758188 -1.75002,0.700291 -1.55323,-0.06395 -1.86915,-0.379918 -0.80554,-0.805553 z m -17.08332,-1.755848 c -1.09999,-0.710874 -1.39998,-1.292498 -0.66665,-1.292498 0.73332,0 2.23329,0.581624 3.33329,1.292498 1.10004,0.710874 1.40003,1.292498 0.66671,1.292498 -0.73333,0 -2.23335,-0.581624 -3.33335,-1.292498 z m -4,-6.666668 c -1.09999,-0.710874 -1.39998,-1.292498 -0.66665,-1.292498 0.73332,0 2.23329,0.581624 3.33329,1.292498 1.10004,0.710878 1.40003,1.292502 0.66671,1.292502 -0.73333,0 -2.23335,-0.581624 -3.33335,-1.292502 z m -20,-4 c -1.09999,-0.710874 -1.39998,-1.292498 -0.66666,-1.292498 0.73333,0 2.2333,0.581624 3.3333,1.292498 1.10004,0.710878 1.40003,1.292502 0.6667,1.292502 -0.73332,0 -2.23334,-0.581624 -3.33334,-1.292502 z m 6.66664,-2 c -1.83333,-1.048028 -2.73331,-1.905502 -1.99998,-1.905502 0.73333,0 2.83334,0.857474 4.66666,1.905502 1.83332,1.048027 2.73335,1.905506 2.00002,1.905506 -0.73332,0 -2.83333,-0.857479 -4.6667,-1.905506 z m -16,-2 c -1.1,-0.710874 -1.39999,-1.292498 -0.66666,-1.292498 0.73333,0 2.23335,0.581624 3.33334,1.292498 1.09999,0.710878 1.39999,1.292502 0.66666,1.292502 -0.73333,0 -2.2333,-0.581624 -3.33334,-1.292502 z m 5.33336,-2.666664 c -1.09999,-0.710878 -1.39998,-1.292502 -0.66666,-1.292502 0.73333,0 2.2333,0.581624 3.3333,1.292502 1.10004,0.710874 1.40003,1.292498 0.6667,1.292498 -0.73332,0 -2.23334,-0.581624 -3.33334,-1.292498 z m -9.33334,-4.777741 c -2.2418,-1.243943 -2.62272,-1.85605 -1.16326,-1.869273 1.19354,-0.01058 2.91699,0.880347 3.82992,1.980346 1.94706,2.346033 1.74644,2.337678 -2.66666,-0.111068 z"
           id="path74" />
        <path
           style="fill:#9ea25d;stroke-width:1.33333"
           d="m 129.73536,163.37269 c -6.38347,-4.53107 -8.94105,-7.18704 -8.98759,-9.33333 -0.0358,-1.65 0.43006,-3.00001 1.03524,-3.00001 0.60515,0 4.59878,-2.71663 8.87471,-6.03697 l 7.77443,-6.03697 3.05745,2.87232 c 1.6816,1.57978 3.95743,2.52697 5.05739,2.10488 1.39796,-0.53645 1.76298,-0.14997 1.2127,1.28405 -0.75925,1.97859 -1.91805,1.97058 -9.07696,-0.0628 -3.5271,-1.0018 -14.75412,8.65372 -13.58989,11.68766 0.43772,1.14066 3.28013,3.6422 6.3165,5.55897 5.05473,3.19091 5.71599,3.30824 7.83534,1.39027 1.27308,-1.15214 3.16745,-2.07653 4.20971,-2.05423 1.36718,0.0292 1.24509,0.41907 -0.43833,1.39959 -1.28333,0.74746 -2.33333,2.52922 -2.33333,3.95945 0,1.43023 -0.45556,2.60041 -1.01242,2.60041 -0.55682,0 -5.02755,-2.85 -9.93495,-6.33333 z m 99.61403,2.75891 c -6.9378,-4.44566 -12.66666,-9.82979 -12.66666,-11.90447 0,-1.97879 9.76262,-10.59279 15.27494,-13.47771 3.72182,-1.94788 4.04676,-1.9044 5.82929,0.7802 1.04617,1.57561 3.30124,2.84307 5.05842,2.84307 3.00714,0 3.17067,0.43848 3.17067,8.5 0,8.29856 -0.0907,8.5182 -3.839,9.2678 -2.67943,0.53589 -4.09665,1.79441 -4.69205,4.16666 -1.03766,4.13439 -1.42252,4.1261 -8.13561,-0.17557 z m 5.89143,-2.29477 c 0.85321,-1.02803 3.01752,-2.23718 4.80962,-2.68697 3.57997,-0.8985 5.40709,-5.5087 4.15703,-10.48921 -0.55181,-2.19863 -2.30536,-3.45669 -6.30687,-4.52475 -5.19398,-1.38636 -5.90967,-1.22061 -11.38021,2.63537 -3.21109,2.26338 -5.83766,5.19534 -5.83766,6.51639 0,2.13707 9.56775,10.41836 12.03679,10.41836 0.53352,0 1.66813,-0.84113 2.5213,-1.86919 z"
           id="path72" />
        <path
           style="fill:#737373;stroke-width:1.33333"
           d="m 165.04144,263.4487 c 1.2973,-0.33804 3.09729,-0.31581 3.99999,0.0494 0.9027,0.36525 -0.15874,0.64183 -2.3587,0.61465 -2.19999,-0.0272 -2.93858,-0.326 -1.64129,-0.66405 z m 9.30796,-1.32845 c 1.28333,-0.33537 3.38333,-0.33537 4.66666,0 1.28332,0.33537 0.23332,0.60977 -2.33333,0.60977 -2.56665,0 -3.61666,-0.27439 -2.33333,-0.60977 z m -25.38165,-14.63851 c -0.15678,-8.19002 -0.63032,-15.99002 -1.05236,-17.33333 -0.70624,-2.24791 -0.64964,-2.25975 0.7107,-0.14876 0.92982,1.44286 1.32015,7.87222 1.05236,17.33333 l -0.42572,15.0397 z m 37.40705,13.30029 c 1.29728,-0.33804 3.09725,-0.31581 4,0.0494 0.9027,0.36525 -0.15874,0.64183 -2.35873,0.61466 -2.19999,-0.0272 -2.93861,-0.326 -1.64127,-0.66406 z m 13.33332,-1.33333 c 1.29728,-0.33804 3.09729,-0.31581 4,0.0494 0.9027,0.36525 -0.15874,0.64183 -2.35873,0.61465 -2.19999,-0.0272 -2.93856,-0.326 -1.64127,-0.66405 z m -46.41159,-2.07601 c -0.34973,-0.91667 -0.48085,-51.46667 -0.29147,-112.33334 l 0.34434,-110.666659 3.33333,0.06773 c 1.83333,0.03729 6.03333,0.501367 9.33333,1.031308 l 6.00001,0.963552 -4,-2.689184 c -5.57126,-3.745537 -3.44662,-3.378137 3.53058,0.610515 3.19149,1.824499 4.90276,3.345763 3.80276,3.380581 -1.20708,0.0383 -0.6785,0.818756 1.33332,1.968811 4.70168,2.687718 2.71244,2.446458 -4.16383,-0.505011 -3.20988,-1.377758 -8.68617,-2.866277 -12.1695,-3.307827 l -6.33334,-0.802812 V 146.3137 257.53704 l 4.33334,0.53776 4.33333,0.53778 -4.37517,0.21337 c -2.44894,0.11948 -4.65513,-0.5204 -5.01103,-1.45328 z m 19.06842,0.72365 c 1.65855,-0.31894 4.05855,-0.30679 5.33331,0.0267 1.27481,0.33371 -0.0821,0.59467 -3.01551,0.57987 -2.93336,-0.0146 -3.97636,-0.28785 -2.3178,-0.60678 z m 38.66668,0 c 1.65851,-0.31894 4.05851,-0.30679 5.33332,0.0267 1.27481,0.33371 -0.0821,0.59467 -3.01556,0.57987 -2.93332,-0.0146 -3.97632,-0.28785 -2.31776,-0.60678 z m -26.66668,-1.33333 c 1.65855,-0.31894 4.05855,-0.3068 5.33331,0.0267 1.27481,0.33371 -0.0821,0.59467 -3.01551,0.57987 -2.93336,-0.0146 -3.97636,-0.28785 -2.3178,-0.60678 z m 12.65113,-1.30943 c 1.28333,-0.33537 3.38334,-0.33537 4.66666,0 1.28333,0.33537 0.23333,0.60977 -2.33333,0.60977 -2.5667,0 -3.61665,-0.27439 -2.33333,-0.60977 z m 38.69204,-0.006 c 1.29728,-0.33804 3.09729,-0.31582 4,0.0494 0.9027,0.36526 -0.15874,0.64183 -2.35873,0.61466 -2.19999,-0.0272 -2.93856,-0.326 -1.64127,-0.66406 z m -26.69204,-1.328 c 1.28333,-0.33537 3.38334,-0.33537 4.66666,0 1.28333,0.33537 0.23333,0.60977 -2.33333,0.60977 -2.5667,0 -3.61665,-0.27439 -2.33333,-0.60977 z m 38.66664,0 c 1.28332,-0.33537 3.38333,-0.33537 4.66671,0 1.28332,0.33537 0.23332,0.60977 -2.33338,0.60977 -2.56665,0 -3.61666,-0.27439 -2.33333,-0.60977 z m -25.30792,-1.33822 c 1.29728,-0.33804 3.09725,-0.31581 4,0.0494 0.9027,0.36525 -0.15874,0.64183 -2.35873,0.61466 -2.19999,-0.0272 -2.93861,-0.326 -1.64127,-0.66406 z m 36.97461,0.41283 c 0,-0.28115 1.20084,-0.82518 2.6685,-1.20899 1.46767,-0.3838 2.33227,-0.1538 1.92131,0.51116 -0.71765,1.16121 -4.58981,1.74992 -4.58981,0.69783 z M 235.03163,251.429 c 1.65851,-0.31889 4.05851,-0.3068 5.33332,0.0267 1.27481,0.3337 -0.0821,0.59466 -3.01556,0.57986 -2.93332,-0.0146 -3.97632,-0.28785 -2.31776,-0.60677 z m 11.31777,-1.30943 c 1.28333,-0.33537 3.38333,-0.33537 4.66666,0 1.28333,0.33537 0.23332,0.60978 -2.33333,0.60978 -2.56665,0 -3.61665,-0.2744 -2.33333,-0.60978 z m 13.28076,-2.27974 c 0.94558,-1.02604 1.92932,-1.66596 2.18608,-1.42204 0.79088,0.75128 -1.21348,3.28756 -2.5981,3.28756 -0.71897,0 -0.53357,-0.83948 0.41222,-1.86552 z m -85.61411,-13.55721 c 0,-2.86993 0.45203,-3.27966 2.7979,-2.53516 3.85386,1.22316 63.69648,-1.93337 68.08114,-3.59109 2.46345,-0.93136 4.3966,-0.88516 6.33333,0.15133 2.81131,1.50457 3.89044,5.39808 1.49614,5.39808 -0.7103,0 -0.97638,-0.82114 -0.59122,-1.82477 0.948,-2.47044 -4.27878,-3.72383 -6.14607,-1.47385 -1.1266,1.35749 -0.75706,1.89376 1.61764,2.34745 1.69277,0.32343 -0.82217,0.67465 -5.58886,0.78053 -4.76664,0.10588 -13.76666,0.73911 -20,1.40715 -6.2333,0.66805 -18.83334,1.51276 -28,1.87713 l -16.66666,0.66249 11.33334,-1.7077 11.33334,-1.70772 -12.47597,-0.18036 c -10.58862,-0.1531 -12.35991,0.12226 -11.70852,1.81964 0.4223,1.1 0.18646,2 -0.52399,2 -0.71035,0 -1.29154,-1.54042 -1.29154,-3.42319 z m 43.01833,-1.51539 c -1.63991,-0.31647 -4.6399,-0.32468 -6.66664,-0.0181 -2.02673,0.30645 -0.685,0.56541 2.98165,0.57543 3.66669,0.01 5.32495,-0.24073 3.68499,-0.55723 z m -68.04362,-36.61882 c -0.16942,-17.3567 -0.65333,-32.65669 -1.07537,-34 -0.69679,-2.21783 -0.63326,-2.23473 0.69098,-0.18399 0.98019,1.51794 1.33276,12.66524 1.07536,34 l -0.38294,31.74161 z m 112.00723,-70.79532 -0.31546,-46.35293 -4.3333,-2.64208 c -2.38337,-1.45315 -3.43338,-2.65352 -2.33338,-2.66749 1.77778,-0.0227 1.77778,-0.16902 0,-1.3179 -1.1,-0.71088 -2.89996,-1.2925 -4,-1.2925 -1.77774,0 -1.77774,0.14362 0,1.2925 3.27241,2.11477 -0.37846,1.41237 -4,-0.76954 -3.32831,-2.00537 -3.32856,-2.00708 -0.1663,-1.14324 2.22044,0.60657 2.88166,0.40351 2.21233,-0.67949 -0.5891,-0.95323 0.97986,-0.73635 4.09792,0.56644 5.69625,2.38005 7.05763,3.35916 4.67063,3.35916 -0.8964,0 -0.0801,1.35 1.81423,3 l 3.44411,3 -0.38804,46 -0.38803,46 z m -13.75969,37.09829 c -0.15673,-1.05205 -0.13909,-17.86792 0.0202,-19.07869 0.0721,-0.55 0.71312,-0.1 1.42403,1 1.70608,2.64001 1.70608,16.94557 0,18 -0.73333,0.45324 -1.38336,0.48862 -1.44444,0.0787 z m -97.9775,-52.07869 c -8.1e-4,-18.33333 0.18696,-26.01826 0.41731,-17.07762 0.23035,8.94064 0.23101,23.94064 0.001,33.33333 -0.2294,9.39269 -0.41782,2.07762 -0.41862,-16.25571 z m 95.85617,-19.99055 c -1.5945,-1.83853 -4.29455,-3.36405 -6.00002,-3.39003 -1.70548,-0.0262 -4.6009,-0.90473 -6.43422,-1.95276 -1.83332,-1.04802 -4.68334,-1.92676 -6.33333,-1.95275 -1.75677,-0.0277 -2.99999,-0.87606 -2.99999,-2.04725 0,-1.09999 0.45002,-1.9935 1.00002,-1.98556 2.12444,0.0307 14.11794,4.03263 15.52136,5.17915 0.81325,0.66436 4.17859,1.73657 7.47862,2.38268 4.68108,0.91651 5.99998,1.75165 5.99998,3.79924 0,3.9144 -4.8258,3.89522 -8.23242,-0.0328 z m 6.95393,0.56851 c 1.22714,-1.98554 -0.19553,-3.06505 -2.74852,-2.08543 -1.17811,0.45208 -1.76857,1.42621 -1.31215,2.16472 1.08079,1.74872 2.95347,1.71215 4.06067,-0.0793 z m 10.69758,-14.18713 c -0.72361,-1.90026 -0.57046,-2.05341 0.74638,-0.74639 0.91122,0.90445 1.32087,1.98032 0.91036,2.39084 -0.41071,0.41051 -1.15603,-0.32947 -1.65674,-1.64445 z m -48.75243,-0.39085 c -1.1,-0.71088 -1.39999,-1.2925 -0.66666,-1.2925 0.73333,0 2.23335,0.58162 3.33334,1.2925 1.09999,0.71087 1.39999,1.2925 0.66666,1.2925 -0.73333,0 -2.2333,-0.58163 -3.33334,-1.2925 z M 148.46718,53.930849 c 0.25645,-12.634134 1.0461,-22.944045 1.82992,-23.891492 0.75836,-0.916666 3.25535,-1.587684 5.54889,-1.491144 l 4.17008,0.175521 -4.66667,0.824476 -4.66667,0.824481 -0.66666,22.226001 C 149.6494,64.82299 149.0494,75.12417 148.68273,75.49019 148.31607,75.8562 148.21906,66.1545 148.46715,53.930849 Z m 84.21555,11.775171 c -1.09999,-0.71087 -1.39999,-1.29249 -0.66666,-1.29249 0.73333,0 2.23335,0.58162 3.33334,1.29249 1.1,0.71088 1.39999,1.2925 0.66666,1.2925 -0.73333,0 -2.23335,-0.58162 -3.33334,-1.2925 z m 6.66668,0 c -1.09999,-0.71087 -1.39998,-1.29249 -0.66665,-1.29249 0.73332,0 2.23329,0.58162 3.33329,1.29249 1.10004,0.71088 1.40003,1.2925 0.66671,1.2925 -0.73333,0 -2.23335,-0.58162 -3.33335,-1.2925 z m -64.69845,-1.38476 c -1.27728,-2.06671 0.98373,-4.087015 3.10601,-2.77535 1.3754,0.85004 1.33035,1.38445 -0.22576,2.67589 -1.43637,1.19211 -2.1889,1.21809 -2.88025,0.0995 z m 48.69845,-2.61524 c -1.09999,-0.71087 -1.39998,-1.292495 -0.66665,-1.292495 0.73332,0 2.23329,0.581625 3.33329,1.292495 1.10004,0.71088 1.40003,1.2925 0.66671,1.2925 -0.73333,0 -2.23335,-0.58162 -3.33335,-1.2925 z m 4.67609,-1.318059 c -0.46715,-0.755815 0.068,-0.979341 1.25465,-0.524014 2.30989,0.886393 2.7325,1.842073 0.81461,1.842073 -0.69004,0 -1.62121,-0.59313 -2.06926,-1.318059 z m -7.7753,-3.284118 c -2.80456,-1.000158 -5.50455,-2.269419 -6.00002,-2.82058 -0.49537,-0.551166 0.29933,-0.529361 1.76589,0.04838 1.46666,0.577814 4.02555,1.345053 5.68638,1.704975 1.66082,0.359912 3.34624,1.18277 3.74536,1.82854 0.88955,1.439355 1.03206,1.460233 -5.19761,-0.761383 z m -10.23415,-1.39782 c -2.06111,-1.178255 -2.56998,-1.944869 -1.33332,-2.008637 1.09999,-0.05674 -0.0998,-1.252838 -2.66668,-2.658031 -2.56666,-1.405188 -4.06662,-2.55489 -3.33329,-2.55489 2.29104,0 10.77679,5.1041 8.66665,5.212921 -1.23671,0.0638 -0.72783,0.830382 1.33332,2.008637 1.83332,1.048028 2.73335,1.905507 2.00003,1.905507 -0.73333,0 -2.83334,-0.857479 -4.66671,-1.905507 z m -12,-5.333332 c -2.06111,-1.178255 -2.56998,-1.944869 -1.33332,-2.008642 1.09999,-0.05669 -0.0998,-1.252833 -2.66668,-2.658026 -2.56666,-1.405193 -4.06662,-2.55489 -3.3333,-2.55489 2.29105,0 10.7768,5.104101 8.66666,5.212916 -1.23671,0.0638 -0.72783,0.830387 1.33332,2.008642 1.83332,1.048028 2.73335,1.905502 2.00003,1.905502 -0.73333,0 -2.83334,-0.857474 -4.66671,-1.905502 z m -10.66664,-4.666668 c -2.5667,-1.405193 -3.88127,-2.580042 -2.92132,-2.610777 0.95995,-0.03074 1.37877,-0.64902 0.93077,-1.373949 -0.48731,-0.788102 0.12447,-0.957762 1.52053,-0.421997 1.73949,0.667505 1.87082,1.05087 0.51487,1.502852 -1.12735,0.375785 -0.0867,1.530245 2.73411,3.032753 2.50487,1.334294 3.95435,2.425988 3.22102,2.425988 -0.73333,0 -3.43332,-1.149697 -5.99998,-2.55489 z m -8,-6.666668 c -1.09999,-0.710874 -1.39998,-1.292498 -0.66666,-1.292498 0.73333,0 2.2333,0.581624 3.3333,1.292498 1.10004,0.710878 1.40003,1.292502 0.6667,1.292502 -0.73332,0 -2.23334,-0.581624 -3.33334,-1.292502 z"
           id="path70" />
        <path
           style="fill:#008000;stroke-width:1.33333"
           d="m 130.68948,161.93525 c -2.92963,-2.02521 -5.49645,-4.56416 -5.70405,-5.64212 -0.20757,-1.07796 2.31593,-4.21131 5.60783,-6.963 5.87987,-4.91496 6.0811,-4.97332 11.42635,-3.31359 l 5.44108,1.68948 -0.38899,6.66667 c -0.33179,5.68653 -0.81581,6.72744 -3.29216,7.08004 -1.59675,0.22738 -3.62022,1.27736 -4.49659,2.33333 -2.08937,2.51755 -2.35797,2.45969 -8.59349,-1.85081 z m 95.52663,-0.23761 c -3.04333,-2.2046 -5.53338,-5.08911 -5.53338,-6.41 0,-1.32105 2.62657,-4.25301 5.83766,-6.51639 5.47054,-3.85598 6.18623,-4.02173 11.38021,-2.63537 4.00151,1.06806 5.75506,2.32612 6.30687,4.52475 1.25006,4.98051 -0.57706,9.59071 -4.15703,10.48921 -1.7921,0.44977 -3.95641,1.65894 -4.80962,2.68697 -2.13181,2.56873 -2.71718,2.42996 -9.02471,-2.13917 z"
           id="path68" />
        <path
           style="fill:#565656;stroke-width:1.33333"
           d="m 151.64614,263.33872 c -1.31394,-0.90152 -1.83562,-12.72651 -2.28231,-51.734 -0.80206,-70.0388 -0.0683,-176.764536 1.23873,-180.170556 1.16675,-3.040504 8.94007,-1.860797 18.6474,2.829999 12.29354,5.940531 23.67874,11.064824 40.09943,18.048126 14.70342,6.252992 18.53556,7.965627 35.69229,15.951421 6.4308,2.99327 12.2808,5.44231 13.00002,5.44231 0.71922,0 2.50769,1.2 3.97435,2.66667 2.6115,2.61149 2.66668,4.44444 2.66668,88.58797 0,61.06142 -0.42431,86.18364 -1.46696,86.82796 -1.46802,0.90728 -22.71637,3.60009 -46.53304,5.89717 -6.96668,0.67194 -21.06668,2.18594 -31.33334,3.36447 -29.17743,3.34934 -31.88872,3.53343 -33.70325,2.28846 z m 53.03659,-7.66147 c 17.23334,-1.85928 37.03332,-4.11341 44,-5.0092 l 12.66666,-1.6287 0.34318,-84.78449 c 0.32151,-79.46403 0.19603,-84.91323 -1.99997,-86.83631 -1.28872,-1.12851 -8.94312,-4.9014 -17.00979,-8.38421 -8.06667,-3.48281 -28.4667,-12.513159 -45.33337,-20.067441 -22.9818,-10.293156 -32.33727,-13.842707 -37.33332,-14.164637 l -6.66667,-0.429556 -0.34434,110.666664 c -0.18938,60.86667 -0.0582,111.41667 0.29148,112.33333 0.98784,2.58934 16.37779,2.08157 51.38619,-1.69544 z m -28.90185,-19.68507 c -1.29773,-2.0998 0.53216,-2.39599 12.40063,-2.00718 l 11.83456,0.38768 -11.76834,1.37486 c -6.47257,0.75619 -12.08264,0.86627 -12.46685,0.24461 z m 34.58686,-3.24293 c 2.02674,-0.3065 5.02673,-0.29828 6.66664,0.0181 1.63996,0.31647 -0.0202,0.56723 -3.68499,0.55722 -3.66665,-0.0106 -5.00838,-0.26895 -2.98165,-0.57542 z m 37.23717,-0.0777 c -2.37757,-0.38984 -2.7456,-0.90494 -1.61764,-2.26407 1.50032,-1.80777 6.69546,-1.25782 6.69546,0.70878 0,1.62569 -1.62076,2.1221 -5.07782,1.55529 z m -1.20748,-79.63216 c 0.0101,-3.66667 0.2691,-5.00841 0.57539,-2.98166 0.3064,2.02674 0.29833,5.02674 -0.0202,6.66666 -0.31647,1.63992 -0.56723,-0.0186 -0.55725,-3.685 z m 1.6128,-62.00941 c -0.45657,-0.73852 0.13404,-1.71264 1.31215,-2.16473 2.55289,-0.97962 3.97566,0.0999 2.74852,2.08543 -1.1072,1.79144 -2.97988,1.82801 -4.06067,0.0793 z"
           id="path66" />
      </g>
    </g>
  </g>
</svg>
